<svg version="1.1"
     xmlns="http://www.w3.org/2000/svg" xmlns:xlink="http://www.w3.org/1999/xlink" xmlns:a="http://ns.adobe.com/AdobeSVGViewerExtensions/3.0/"
     x="0px" y="0px" width="134.6px" height="159px" viewBox="0 0 134.6 159" enable-background="new 0 0 134.6 159"
     xml:space="preserve">
<defs>
</defs>
<radialGradient id="SVGID_1_" cx="83.9081" cy="99.0815" r="29.2479" gradientUnits="userSpaceOnUse">
    <stop  offset="0" style="stop-color:#3D2D13"/>
    <stop  offset="1" style="stop-color:#391F14"/>
</radialGradient>
<path fill="url(#SVGID_1_)" stroke="#717677" d="M78.5,102.1c0,0-6.5,2.7-6.6,12.1c-0.1,9.4,6,14.9,7.4,17.4
    c1.4,2.5,1.9,5.2,3.8,6.1c1.9,0.9,5.7,0.9,5.7,0.9l6.8-22l0.4-55.8l-4.6-1.3L78.5,102.1z"/>
<path fill="#444035" d="M47.8,113.8l-9.1,19.8c0,0,2.1,8.3,21.6,8.2c19.5-0.1,20.6-8.2,20.6-8.2L70,112.3L47.8,113.8z"/>
<linearGradient id="SVGID_2_" gradientUnits="userSpaceOnUse" x1="30.4565" y1="75.5863" x2="91.5501" y2="75.5863">
    <stop  offset="0" style="stop-color:#BFBFBF"/>
    <stop  offset="1" style="stop-color:#E6E6E6"/>
</linearGradient>
<path fill="url(#SVGID_2_)" stroke="#A7A9AC" d="M56.2,36l35.1,20c0,0,0.2,1.7,0.3,4.2c0.1,4-0.2,6.7,0,11.5
    c0.2,4.9-3.9,19.8-6.4,26.1c-2.2,5.5-11.5,16-14.6,16.3c-2,0.2-13.4,1.9-17.1,0.9c-3.6-1-17.3-8.3-19.4-11.9
    c-2.2-3.6-3.6-52.1-3.6-52.1L56.2,36z"/>
<linearGradient id="SVGID_3_" gradientUnits="userSpaceOnUse" x1="59.9436" y1="54.227" x2="59.9436" y2="93.4372">
    <stop  offset="0" style="stop-color:#BFBFBF"/>
    <stop  offset="1" style="stop-color:#E6E6E6"/>
</linearGradient>
<path fill="url(#SVGID_3_)" stroke="#A7A9AC" d="M90.8,60.2c0,0,0.7,13-0.7,17.6c-0.8,2.5-4.3,7.6-6.3,8.6c-0.7,0.3-6.3,7.8-24,7
    c-17.7-0.8-29-9-29.3-9.8c-0.3-0.8-2.6-20.4-1.1-27.8C31,48.4,46.6,45,46.6,45l37.1-0.5L90.8,60.2z"/>
<radialGradient id="SVGID_4_" cx="112.3615" cy="193.6249" r="6.5092" gradientTransform="matrix(1.18 0.2313 -0.226 1.0764 -42.1937 -173.1416)" gradientUnits="userSpaceOnUse">
    <stop  offset="0" style="stop-color:#F7FFE7"/>
    <stop  offset="0.9755" style="stop-color:#EAF2CE"/>
</radialGradient>
<path fill="url(#SVGID_4_)" d="M39,59.8c-0.8,3.9,2,7.7,6.2,8.5c4.2,0.8,8.3-1.6,9.2-5.5c0.8-3.9-2-7.7-6.2-8.5
    C43.9,53.4,39.8,55.9,39,59.8z"/>
<radialGradient id="SVGID_5_" cx="111.4683" cy="192.0604" r="3.191" gradientTransform="matrix(1.18 0.2313 -0.226 1.0764 -42.1937 -173.1416)" gradientUnits="userSpaceOnUse">
    <stop  offset="0" style="stop-color:#98D6CF"/>
    <stop  offset="1" style="stop-color:#0D133D"/>
</radialGradient>
<path fill="url(#SVGID_5_)" stroke="#000000" stroke-width="0.2" d="M48.8,60.5c-0.3,1.7-2,2.7-3.6,2.4c-1.7-0.3-2.7-1.9-2.4-3.6
    c0.3-1.7,2-2.7,3.6-2.4C48.1,57.2,49.2,58.8,48.8,60.5z"/>
<path d="M47.1,59.7c-0.1,0.7-0.8,1.1-1.6,1c-0.7-0.1-1.2-0.8-1-1.5c0.1-0.7,0.8-1.1,1.6-1C46.8,58.3,47.2,59,47.1,59.7z"/>
<path fill="#918C80" stroke="#231A18" stroke-width="0.5" d="M38.6,61.4c0,0,4.2,1.1,8.6,1.1c2,0,3-0.7,4.2-0.7c1.6-0.1,3,0.2,3,0.2
    l-0.9,3.1l-3,3l-5.6,0.8l-2.2-0.8l-3.1-2.4l-1.2-4L38.6,61.4z"/>
<radialGradient id="SVGID_6_" cx="590.5768" cy="202.8371" r="0.4469" fx="591.0237" fy="202.834" gradientTransform="matrix(-0.8168 0.8546 -0.8353 -0.745 697.2195 -294.2023)" gradientUnits="userSpaceOnUse">
    <stop  offset="0" style="stop-color:#FFFFFF"/>
    <stop  offset="1" style="stop-color:#FFFFFF;stop-opacity:0.21"/>
</radialGradient>
<path fill="url(#SVGID_6_)" d="M45.1,59.8c-0.2-0.2-0.2-0.5,0-0.7c0.2-0.2,0.5-0.2,0.7-0.1c0.2,0.2,0.2,0.5,0,0.7
    C45.6,59.9,45.3,59.9,45.1,59.8z"/>
<radialGradient id="SVGID_7_" cx="536.7101" cy="-11.9123" r="0.4472" fx="537.1573" fy="-11.9154" gradientTransform="matrix(2.4144 -4.900000e-02 6.400000e-02 2.9346 -1251.0627 119.2036)" gradientUnits="userSpaceOnUse">
    <stop  offset="0" style="stop-color:#FFFFFF"/>
    <stop  offset="1" style="stop-color:#FFFFFF;stop-opacity:0.21"/>
</radialGradient>
<path fill="url(#SVGID_7_)" d="M45,57.9c0,0.7-0.5,1.3-1,1.3c-0.6,0-1.1-0.5-1.1-1.2c0-0.7,0.5-1.3,1-1.3C44.5,56.6,45,57.2,45,57.9
    z"/>
<path fill="#918C80" stroke="#231A18" stroke-width="0.5" d="M54.2,61.7c0,0-0.7-0.7-2-1.7c-0.6-0.4-2-1.5-3-1.7
    c-1.3-0.3-4.4-0.1-6.3,0.1c-1.5,0.2-5.1,1.7-5.1,1.7l1.5-3.1l3.6-3l4.9-0.3l2.8,1.4l2.6,3L54.2,61.7z"/>
<path fill="#444035" d="M54.9,63.1c-0.9,4.5-5.4,7.3-10.1,6.4c-4.6-0.9-7.6-5.3-6.7-9.7c0.9-4.5,5.4-7.3,10.1-6.4
    C52.8,54.3,55.8,58.6,54.9,63.1z M47.9,54.3c-4-0.8-7.9,1.7-8.7,5.6c-0.8,3.8,1.8,7.6,5.8,8.4c4,0.8,7.9-1.7,8.7-5.6
    C54.5,58.9,51.9,55.1,47.9,54.3z"/>
<radialGradient id="SVGID_8_" cx="91.4433" cy="208.5053" r="6.0421" gradientTransform="matrix(1.1837 0.1517 -0.1515 1.1571 1.9751 -192.5188)" gradientUnits="userSpaceOnUse">
    <stop  offset="0" style="stop-color:#F7FFE7"/>
    <stop  offset="0.9755" style="stop-color:#EAF2CE"/>
</radialGradient>
<path fill="url(#SVGID_8_)" d="M71.5,61.7c-0.5,3.9,2.3,7.4,6.2,7.9c3.9,0.5,7.6-2.2,8.1-6.1c0.5-3.9-2.3-7.4-6.2-7.9
    C75.6,55.1,72,57.8,71.5,61.7z"/>
<radialGradient id="SVGID_9_" cx="818.1249" cy="-40.1619" r="0.5108" fx="818.6356" fy="-40.1654" gradientTransform="matrix(6.3858 0.8187 -0.8004 6.1188 -5180.1685 -361.9237)" gradientUnits="userSpaceOnUse">
    <stop  offset="0" style="stop-color:#FFFFFF"/>
    <stop  offset="1" style="stop-color:#FFFFFF;stop-opacity:0.21"/>
</radialGradient>
<path fill="url(#SVGID_9_)" d="M79.4,62.4c-0.2,1.7-1.8,2.8-3.6,2.6c-1.8-0.2-3.1-1.8-2.9-3.4c0.2-1.7,1.8-2.8,3.6-2.6
    C78.4,59.2,79.7,60.8,79.4,62.4z"/>
<radialGradient id="SVGID_10_" cx="130.7225" cy="191.4552" r="4.0356" gradientTransform="matrix(1.3175 0.1688 -0.1602 1.2242 -63.7431 -196.2334)" gradientUnits="userSpaceOnUse">
    <stop  offset="0" style="stop-color:#98D6CF"/>
    <stop  offset="1" style="stop-color:#0D133D"/>
</radialGradient>
<path fill="url(#SVGID_10_)" stroke="#000000" stroke-width="0.2" d="M80.3,61c-0.2,1.7-1.7,2.9-3.4,2.7c-1.6-0.2-2.8-1.8-2.6-3.5
    c0.2-1.7,1.7-2.9,3.4-2.7C79.4,57.7,80.6,59.3,80.3,61z"/>
<path d="M78.8,60.7c-0.1,0.7-0.8,1.3-1.5,1.2c-0.7-0.1-1.2-0.8-1.1-1.5c0.1-0.7,0.8-1.3,1.5-1.2C78.4,59.3,78.9,59.9,78.8,60.7z"/>
<path fill="#918C80" stroke="#231A18" stroke-width="0.5" d="M71.3,63.8c0,0,1.1-0.7,1.8-0.7c1.7,0,3.5,0.3,6.1,0.2
    c3.9-0.1,6.3-1,6.3-1L84.7,66l-2.8,2.8l-3.9,1l-3.8-1.2l-2.8-2.9L71.3,63.8z"/>
<path fill="#918C80" stroke="#231A18" stroke-width="0.5" d="M85.6,61.8c0,0-3.7-2.2-5.2-2.4c-1.7-0.2-3.6-0.2-4.7,0
    c-0.8,0.2-1.7,0.7-2.3,1.1c-1.1,0.8-2.3,1.8-2.3,1.8l0.9-3.5l3.5-2.7l3.8-0.4l2.8,0.9l1.9,1.5L85.6,61.8z"/>
<path fill="#444035" d="M86,63.6c-0.5,4.2-4.5,7.1-8.7,6.6c-4.3-0.5-7.3-4.4-6.7-8.5c0.5-4.2,4.5-7.1,8.7-6.6
    C83.5,55.6,86.5,59.4,86,63.6z M79.1,56.1c-3.7-0.5-7,2.1-7.5,5.6c-0.5,3.6,2.1,6.9,5.8,7.3c3.7,0.5,7-2.1,7.5-5.6
    C85.4,59.8,82.8,56.6,79.1,56.1z"/>
<radialGradient id="SVGID_11_" cx="129.6935" cy="192.0271" r="0.5119" fx="130.2054" fy="192.0235" gradientTransform="matrix(1.3175 0.1688 -0.1602 1.2242 -63.7431 -196.2334)" gradientUnits="userSpaceOnUse">
    <stop  offset="0" style="stop-color:#FFFFFF"/>
    <stop  offset="1" style="stop-color:#FFFFFF;stop-opacity:0.21"/>
</radialGradient>
<path fill="url(#SVGID_11_)" d="M77,60.8c0,0.3-0.4,0.6-0.7,0.5c-0.4,0-0.6-0.4-0.6-0.7c0-0.3,0.4-0.6,0.8-0.5
    C76.8,60.2,77,60.5,77,60.8z"/>
<linearGradient id="SVGID_12_" gradientUnits="userSpaceOnUse" x1="60.3388" y1="21.1997" x2="60.8005" y2="65.1859">
    <stop  offset="0" style="stop-color:#BFBFBF"/>
    <stop  offset="1" style="stop-color:#E6E6E6"/>
</linearGradient>
<path fill="url(#SVGID_12_)" stroke="#A7A9AC" d="M92.9,61.6c0,0,7.1-44.6-27.3-44.8C32.7,16.7,28.2,49,28,57.9
    c-0.1,4.4,1.3,4.4,1.3,4.4s3.3-8.6,14.3-9.2C60.7,52.1,61,63.4,61,63.4l5.4-0.2c0,0-0.3-8.4,10.9-8.9c14.1-0.7,13.7,7.2,13.7,7.2
    L92.9,61.6z"/>
<radialGradient id="SVGID_13_" cx="100.0333" cy="80.2686" r="60.3186" gradientUnits="userSpaceOnUse">
    <stop  offset="0" style="stop-color:#3D2D13"/>
    <stop  offset="1" style="stop-color:#391F14"/>
</radialGradient>
<path fill="url(#SVGID_13_)" stroke="#717677" d="M66,5.4c0,0,2.3-3.8,7-3.2c4.8,0.6,19.5,15.4,23.1,21.3c3.6,5.9,4.8,10.5,6,12.6
    c1.1,2.1,4.9,14.4,6.4,24.3c1.5,9.9,5.6,25.2,6.8,29.5c1.1,4.4-1.1,17.6-0.2,19.5c0.9,1.9,5.2,5.6,5.3,7c0.1,1.3,7.4,5.5,7.4,6
    c0,0.4,3.1,0.1,3.9-1.1c0.8-1.2,2.3-3.2,2.3-3.2s1.3,5.7-4.1,9.4c-5.4,3.7-11.9,6-12.8,5.6c-0.9-0.3,0.7,2.4,2.3,2.9
    c1.6,0.5,5.5-1,5.4-1.7c-0.1-0.7-2.5,3.9-7.3,7.5c-4.8,3.7-5.5,5.1-8.7,6.5c-3.2,1.5-7.6,2.4-9,1.9c-1.4-0.5,0.3,2.7,2.2,4
    c1.9,1.4,3.9,0.9,3.9,0.9s-1.9,3.1-5.7,3.3c-3.8,0.2-11.4-1.7-14.9-8.9c-3.5-7.2,3.2-22.5,4.2-26.9c1.1-4.4,8-29.5,6.2-43.7
    c-1.8-14.1-2.8-21.3-5.6-33c-4-16.7-7.2-24.7-12.4-22.9c-4.6,1.6-10.5-10-10.5-10L66,5.4z"/>
<radialGradient id="SVGID_14_" cx="80.0926" cy="55.2613" r="6.7758" gradientUnits="userSpaceOnUse">
    <stop  offset="0" style="stop-color:#3D2D13"/>
    <stop  offset="1" style="stop-color:#391F14"/>
</radialGradient>
<path fill="url(#SVGID_14_)" stroke="#717677" d="M70.8,55.3c-0.7-0.2,3.8-2.2,4.9-2.2c0.4,0,4.4,0.3,5.8,0.4s4.1,0.7,5.1,1.2
    c1,0.4,2.7,1.8,2.7,2.4c0.1,0.6-0.3,0.3-1.2-0.3c-0.9-0.7-2.3-1.2-4.1-1.4c-1.7-0.2-4.5,0.3-7.2,0.4S71.6,55.6,70.8,55.3z"/>
<radialGradient id="SVGID_15_" cx="46.3047" cy="54.1858" r="5.76" gradientUnits="userSpaceOnUse">
    <stop  offset="0" style="stop-color:#3D2D13"/>
    <stop  offset="1" style="stop-color:#391F14"/>
</radialGradient>
<path fill="url(#SVGID_15_)" stroke="#717677" d="M54.3,54.9c0,0-1.1-1.8-2-1.8s-5.4-0.3-6.8-0.2c-1.4,0.2-4.1,0.4-5,0.5
    c-1,0.2-1.9,1.7-2.3,1.9c-0.4,0.2,5-0.6,5.6-0.6c0.6,0,4.5,0.2,6,0.5C51.4,55.6,54,55.3,54.3,54.9z"/>
<radialGradient id="SVGID_16_" cx="38.381" cy="76.8533" r="60.2694" gradientUnits="userSpaceOnUse">
    <stop  offset="0" style="stop-color:#3D2D13"/>
    <stop  offset="1" style="stop-color:#391F14"/>
</radialGradient>
<path fill="url(#SVGID_16_)" stroke="#717677" d="M76.3,24c0,0-1.3-6.1-1.5-7.9c-0.2-1.8,0.2-2.3-1.5-5.2c-1.7-3-7.9-9.2-12.3-10.1
    c-4.4-0.9-10.7,0.8-10.7,0.8S42.5,4.4,38,6.2c-4.5,1.8-18.3,14-19.2,15.3C17.8,22.7,7.3,38.8,3,52.5c-4.3,13.7-1.7,21.7-1.5,23
    c0.1,1.3,1.3,4.9,2.4,7.6c3.1,7.3,0.9,22.8-1.3,23.4c-0.9,0.2-1.1-1.7-1.2-2.6c-0.1-0.9-1.7,4.7,0.3,8.9
    c2.9,6.1,10.3,11.9,12.7,11.6c2.4-0.3-1.3,2.6-3.2,1.7c-1.9-0.9-3.5-3.6-3.5-3.6s-1.1,14.5,12.9,23.9c8.4,5.6,19.6,3.5,19.6,3.5
    s1,1-0.3,1.2c-1.3,0.1-3.3,0.8-1.2,1.7c2.1,0.9,9.7,0.4,11.4-1.8c3.8-5.1-0.3-15.2-0.4-20.6c-0.1-5.4,3-10.2,2.3-10.8
    c-0.7-0.6-7.5-8.8-14.3-22c-6.8-13.2,0.8-19.7,2.4-35.2c1.8-17.1,2.7-21.9,6.3-26.1c3.6-4.2,7.7-14,9.8-15.3
    c2.1-1.3,6.7-1.9,9.2-1.7C67.9,19.5,76.3,24,76.3,24z"/>
<path fill="#939393" stroke="#514E44" stroke-width="1.25" d="M55.1,78.5c-0.1,1.4-0.1,2-0.2,3.2c0,0.1-0.1,0.5,1,0.7
    c1.9,0.5,5.2,1,8.1,1.1c3.5,0.2,6.1-0.1,7.6-0.4c0.5-0.1,0.6-0.4,0.6-1c0-1.1,0.1-1.7,0.2-3.3c0-0.1-0.1-1.2-0.9-1.2
    c-1.9,0.1-4.3,0.3-7,0.2c-2.8-0.1-5.9-0.7-7.3-0.9C55.7,76.6,55.2,77.3,55.1,78.5z"/>
<path fill="#717677" d="M49.3,90.9c0,0-3,1.7-2.5,1.8c0.5,0.2,1.8-0.8,2.3-0.5s3.2,3.3,8.3,4.8c5.1,1.5,8,2.5,11.8,0.3
    c3.8-2.2,6-5.1,6.6-5.3s2-0.5,2-0.5s-0.5-1.8-1-1.7c-0.5,0.2-0.7,0.8-1.3,1s-2.7,0-3.5-0.2c-0.8-0.2-3.3-1.5-4.5-1.2
    c-1.2,0.3-2.7,0.8-3.8,0.8c-1.2,0-1.3-0.5-2.5-0.3s-4.1,1.2-5.8,1.5c-1.7,0.3-4.6,0.5-5.5,0.2C49.1,91.4,50,90.7,49.3,90.9z"/>
</svg>