<svg version="1.1"
     xmlns="http://www.w3.org/2000/svg" xmlns:xlink="http://www.w3.org/1999/xlink" xmlns:a="http://ns.adobe.com/AdobeSVGViewerExtensions/3.0/"
     x="0px" y="0px" width="116.7px" height="134.4px" viewBox="0 0 116.7 134.4" enable-background="new 0 0 116.7 134.4"
     xml:space="preserve">
<defs>
</defs>
<radialGradient id="SVGID_1_" cx="95.7532" cy="60.4683" r="39.1624" gradientUnits="userSpaceOnUse">
    <stop  offset="0" style="stop-color:#3D2D13"/>
    <stop  offset="1" style="stop-color:#391F14"/>
</radialGradient>
<path fill="url(#SVGID_1_)" stroke="#717677" stroke-width="0.6793" d="M75.1,9.1c0,0,6.6-0.2,12.5,2.9c5.9,3.2,14.9,18.6,18.3,27.2
    c3.4,8.6,7.5,24.2,8.6,27.4c1.1,3.2,4.5,18.3-2.3,28.3S103,107.6,96,107.6c-5,0.5-6.1,4.3-6.1,4.3s4.3-9.1,4.8-14.7
    c0.5-5.7,4.1-21.1,2.7-29.7c-1.4-8.6-5.9-14.7-6.8-17.2c-0.9-2.5-4.8-23.3-6.3-24.7C82.6,24.2,75.1,9.1,75.1,9.1z"/>
<path fill="#444035" d="M103.2,74.8c0,0-2.3-3.3-3.4-3.4c-0.4,0-3.3,6.6-4.2,13.7c-1,7.6-0.3,15.1,1,15.5c1.4,0.5,6.9-11.8,6.9-11.8
    L103.2,74.8z"/>
<polygon fill="#939393" stroke="#514E44" stroke-width="1.25" points="92.6,81.9 103.6,83.2 103.5,88.9 91.9,87.4 "/>
<path fill="#918C80" stroke="#444035" d="M100.3,71.7c0,0,0.9,0,2.3,0.4c0.8,0.3,1.8,0.7,1.8,0.7s1.6,6.5,0.8,13
    c-1.3,10.1-4.2,14.6-4.2,14.6s-0.8,0.2-1.9,0.2c-1,0-2-0.3-2-0.3s2.5-4.9,3.7-14.8C102,76.7,100.3,71.7,100.3,71.7z"/>
<linearGradient id="SVGID_2_" gradientUnits="userSpaceOnUse" x1="11.728" y1="93.8102" x2="97.3432" y2="93.8102">
    <stop  offset="0" style="stop-color:#BFBFBF"/>
    <stop  offset="1" style="stop-color:#E6E6E6"/>
</linearGradient>
<path fill="url(#SVGID_2_)" stroke="#58595B" stroke-width="0.6793" d="M97.1,71.8l0.3-4.1c0-0.1,0-0.1,0-0.2
    c-0.9-6-3.4-10.7-5.1-13.9L13.1,55l-1.4,20.2c0,0,0.9,18.8,2.5,27.2c1.6,8.4,9.1,17.7,11.5,19.7c2.5,2,9.7,5.2,11.8,7
    c2,1.8,7.7,5,14.9,5s14.9-6.1,16.3-7c1.4-0.9,16.5-10.2,18.8-12.7c2.3-2.5,6.1-12.5,6.6-15.6C94.6,95.6,97.1,71.8,97.1,71.8z"/>
<linearGradient id="SVGID_3_" gradientUnits="userSpaceOnUse" x1="11.2535" y1="59.6771" x2="97.6189" y2="59.6771">
    <stop  offset="0" style="stop-color:#BFBFBF"/>
    <stop  offset="1" style="stop-color:#E6E6E6"/>
</linearGradient>
<path fill="url(#SVGID_3_)" stroke="#58595B" stroke-width="0.6793" d="M96.4,80.4c0.3-0.4,0.5-0.9,0.8-1.4
    c0.5-4.2,0.6-8.3,0.1-11.5c-1.4-8.6-5.9-14.7-6.8-17.2c-0.9-2.5-4.8-23.3-6.3-24.7c-0.7-0.6-2.5-3.7-4.3-7.1l-3-1.5l-25.6,9.5
    L18.1,41.7l-5.4,10.2c0,0-1.6,18.8-1.4,25.4c0.2,6.6,0.7,15.2,1.4,18.6c0.7,3.4,17.7,6.6,17.7,6.6s2.7-2.7,5.7-2.7
    c2.9,0,10.9,1.6,13.6,1.4c2.7-0.2,8.4-3.6,14.3-3.4c5.9,0.2,7.7,0,7.7,0S86.7,96.2,96.4,80.4z"/>
<radialGradient id="SVGID_4_" cx="69.5791" cy="51.8564" r="10.451" gradientUnits="userSpaceOnUse">
    <stop  offset="0" style="stop-color:#3D2D13"/>
    <stop  offset="1" style="stop-color:#391F14"/>
</radialGradient>
<path fill="url(#SVGID_4_)" stroke="#717677" stroke-width="0.6793" d="M55,54.1c0,0,2.3-4.5,4.5-4.5c2.3,0,14.5-0.2,17.9,0.9
    c3.4,1.1,6.8,3.4,6.8,3.4s-5.7-1.8-10.4-2c-4.8-0.2-6.3-0.2-8.8,0.5C62.4,53,63.6,53,62,53.5C60.4,53.9,55,54.1,55,54.1z"/>
<radialGradient id="SVGID_5_" cx="25.2002" cy="54.5826" r="7.5339" gradientUnits="userSpaceOnUse">
    <stop  offset="0" style="stop-color:#3D2D13"/>
    <stop  offset="1" style="stop-color:#391F14"/>
</radialGradient>
<polygon fill="url(#SVGID_5_)" stroke="#717677" stroke-width="0.6793" points="35.5,54.4 23.5,51.9 14.9,55.5 19.9,57.3 32.8,57.1 
    35.5,56.6 "/>
<path opacity="0.2" fill="#FFFFFF" d="M57.7,65.2c0,0,5.2-4.8,7.7-4.8c2.5,0,3.8-0.5,5.4,0.5c1.6,0.9,5,2.5,6.1,2.7
    c0,0-3.4,1.4-4.5,1.8c-1.1,0.5-6.6,1.4-8.4,0.7S57.7,65.2,57.7,65.2z"/>
<path opacity="0.2" fill="#FFFFFF" d="M38.2,66.6c0,0-2.9-2.7-8.4-2.7c-5.4,0-6.6,3.4-7.5,3.6c-0.9,0.2-4.1,1.6-4.1,1.6
    s3.4-0.9,5.4-0.2c2,0.7,7,0,9.3-0.7C35.3,67.5,38.2,66.6,38.2,66.6z"/>
<radialGradient id="SVGID_6_" cx="42.4884" cy="55.7643" r="49.2363" gradientUnits="userSpaceOnUse">
    <stop  offset="0" style="stop-color:#3D2D13"/>
    <stop  offset="1" style="stop-color:#391F14"/>
</radialGradient>
<path fill="url(#SVGID_6_)" stroke="#717677" stroke-width="0.6793" d="M84.6,22.4c0,0-2.9-16.1-24.2-21.1
    C39.1-3.6,9.7,9.8,2.9,34.2c-6.8,24.5,2,39.2,2.5,40.8c0.5,1.6,2.5,15.2,2.5,18.1c0,2.9,5.2,18.1,6.6,18.1l2.5-0.9
    c0,0-4.3-11.1-4.8-15.4c-0.5-4.3-2-31.5-0.9-34.4c1.1-2.9,2.5-2,2.5-2s13.6-4.1,16.3-5.9c2.7-1.8,21.3-11.8,29-16.8
    C59.1,35.8,79.4,29.5,84.6,22.4z"/>
<path fill="#444035" d="M12.4,96.9c-0.4-0.4-0.7-0.7-0.8-1.1c-0.7-3.4-1.1-12-1.4-18.6c0-0.1,0-0.2,0-0.3c-0.8-2-1.5-3.1-2-3.1
    C7,74,6.6,76.3,6.6,76.3S4.4,82,5.3,86.7c0.9,4.4,5.3,11.8,7.5,12.9C12.6,98.7,12.5,97.8,12.4,96.9z"/>
<path fill="#939393" stroke="#514E44" stroke-width="1.25" d="M10.5,82.5l-5.1,0.8l1,5.6l4.4-0.8C10.7,86.3,10.6,84.4,10.5,82.5z"/>
<path fill="#918C80" stroke="#444035" d="M8.4,74l-4.1,0.7c0,0-2.2,3.7-0.4,13.1C5.5,97,9,99.9,9,99.9l3.7-0.5c0,0-3.7-4.6-5-12.2
    C6.2,78.8,8.4,74,8.4,74z"/>
<polygon fill="#FFFFFF" stroke="#BBBDBF" stroke-width="0.4557" points="30.4,102.2 37.2,107.5 51.2,108 59.7,106 64.7,104.5 
    69.7,100 72,97.6 66.2,97 60.2,97 47.8,97.3 38.8,98 "/>
<path fill="#717677" d="M31.9,102.4c0,0,4.1,4.8,7.9,5.4c3.8,0.7,9.3-0.2,10-0.5c0.7-0.2,7.5-0.7,8.6-0.9c1.1-0.2,5.7-2,13.8-8.4
    c0,0-10,13.1-20.8,13.8C40.5,112.5,36.9,112.3,31.9,102.4z"/>
<path fill="#717677" d="M30.4,102.2c0,0,0.2-1.1,5.9-1.6c5.7-0.5,10.6,1.1,12.7,0.9c2-0.2,6.1-1.9,9.5-2.6C61.9,98.2,67,98,72,97.6
    c0,0-10.4-1.4-15.6-1.4c-5.2,0-8.5,1.1-8.5,1.1s-7.2,0.4-9.1,0.7C35.2,98.5,30.4,102.2,30.4,102.2z"/>
<g>
    
        <radialGradient id="SVGID_7_" cx="3094.0981" cy="-337.7677" r="7.4148" gradientTransform="matrix(-1.1604 0.2787 0.2756 1.134 3711.4314 -411.2249)" gradientUnits="userSpaceOnUse">
        <stop  offset="0" style="stop-color:#F7FFE7"/>
        <stop  offset="0.9755" style="stop-color:#EAF2CE"/>
    </radialGradient>
    <path fill="url(#SVGID_7_)" d="M36.6,66c1.1,4.6-1.8,9.3-6.6,10.5c-4.8,1.1-9.5-1.7-10.6-6.3c-1.1-4.6,1.8-9.3,6.6-10.5
        C30.7,58.5,35.4,61.4,36.6,66z"/>
    
        <radialGradient id="SVGID_8_" cx="1214.8849" cy="-146.5201" r="0.627" fx="1215.5118" fy="-146.5245" gradientTransform="matrix(-6.2599 1.5039 1.4569 5.9965 7850.3457 -880.9416)" gradientUnits="userSpaceOnUse">
        <stop  offset="0" style="stop-color:#FFFFFF"/>
        <stop  offset="1" style="stop-color:#FFFFFF;stop-opacity:0.21"/>
    </radialGradient>
    <path fill="url(#SVGID_8_)" d="M28.1,68.3c0.5,2,2.6,3.2,4.8,2.7c2.2-0.5,3.5-2.6,3-4.5c-0.5-2-2.6-3.2-4.8-2.7
        C29,64.2,27.6,66.3,28.1,68.3z"/>
    
        <radialGradient id="SVGID_9_" cx="2808.1436" cy="-324.7758" r="4.9526" gradientTransform="matrix(-1.2916 0.3102 0.2915 1.1997 3750.4495 -415.8063)" gradientUnits="userSpaceOnUse">
        <stop  offset="0" style="stop-color:#BFD8DF"/>
        <stop  offset="0.1853" style="stop-color:#BBD4DC"/>
        <stop  offset="0.3612" style="stop-color:#B0C9D1"/>
        <stop  offset="0.5333" style="stop-color:#9DB6C0"/>
        <stop  offset="0.7031" style="stop-color:#829BA8"/>
        <stop  offset="0.8697" style="stop-color:#607889"/>
        <stop  offset="1" style="stop-color:#40586C"/>
    </radialGradient>
    <path fill="url(#SVGID_9_)" stroke="#000000" stroke-width="0.2134" d="M25.8,66.9c0.5,2,2.5,3.3,4.5,2.9c2-0.5,3.1-2.5,2.7-4.6
        c-0.5-2.1-2.5-3.3-4.5-2.9C26.5,62.8,25.3,64.9,25.8,66.9z"/>
    <path d="M27.8,66.5c0.2,0.9,1.1,1.4,2,1.2c0.9-0.2,1.4-1.1,1.2-2c-0.2-0.9-1.1-1.4-2-1.2C28.1,64.8,27.5,65.6,27.8,66.5z"/>
    
        <radialGradient id="SVGID_10_" cx="2806.8337" cy="-324.6317" r="0.628" fx="2807.4617" fy="-324.636" gradientTransform="matrix(-1.2916 0.3102 0.2915 1.1997 3750.4495 -415.8063)" gradientUnits="userSpaceOnUse">
        <stop  offset="0" style="stop-color:#FFFFFF"/>
        <stop  offset="1" style="stop-color:#FFFFFF;stop-opacity:0.21"/>
    </radialGradient>
    <path fill="url(#SVGID_10_)" d="M29.7,65.6c0.1,0.4,0.5,0.6,1,0.5c0.4-0.1,0.7-0.5,0.6-0.9c-0.1-0.4-0.5-0.6-1-0.5
        C29.9,64.8,29.6,65.2,29.7,65.6z"/>
    <g>
        <path fill="#918C80" stroke="#231A18" stroke-width="0.5" d="M22.2,67.7c0.9-0.2,2-3.6,7.5-3.6c3.1,0,5.4,0.9,6.8,1.6
            c-1.3-4.4-5.9-7.1-10.5-6c-4.3,1-7.1,5-6.8,9.1C20.2,68.4,21.6,67.8,22.2,67.7z"/>
        <path fill="#918C80" stroke="#231A18" stroke-width="0.5" d="M32.8,68.3c-2.3,0.7-7.2,1.4-9.3,0.7c-1.3-0.4-3.2-0.2-4.4,0
            c0,0.4,0.1,0.7,0.2,1.1c1.1,4.6,5.9,7.5,10.6,6.3c4.4-1,7.2-5.1,6.7-9.3C35.7,67.5,34.2,67.9,32.8,68.3z"/>
    </g>
    <path fill="#EDE9E6" d="M26.2,58.9c5.1-1.2,10.3,1.8,11.5,6.9c1.2,5-2,10.1-7.1,11.3c-5.1,1.2-10.3-1.8-11.5-6.9
        C17.9,65.2,21.1,60.1,26.2,58.9z M20.4,69.9c1.1,4.3,5.5,6.9,9.9,5.9c4.4-1.1,7.1-5.4,6.1-9.7c-1-4.3-5.5-6.9-9.9-5.9
        C22.1,61.2,19.3,65.6,20.4,69.9z"/>
</g>
<g>
    
        <radialGradient id="SVGID_11_" cx="3131.0574" cy="-266.6711" r="7.168" gradientTransform="matrix(-1.1489 0.1822 0.172 1.0847 3710.1035 -217.4846)" gradientUnits="userSpaceOnUse">
        <stop  offset="0" style="stop-color:#F7FFE7"/>
        <stop  offset="0.9755" style="stop-color:#EAF2CE"/>
    </radialGradient>
    <path fill="url(#SVGID_11_)" d="M75.2,62.4c0.7,4.3-2.5,8.4-7,9.1c-4.6,0.7-8.8-2.2-9.5-6.5c-0.7-4.3,2.5-8.4,7-9.1
        C70.3,55.2,74.5,58.1,75.2,62.4z"/>
    
        <radialGradient id="SVGID_12_" cx="3130.5388" cy="-267.5447" r="3.9796" gradientTransform="matrix(-1.1489 0.1822 0.172 1.0847 3710.1035 -217.4846)" gradientUnits="userSpaceOnUse">
        <stop  offset="0" style="stop-color:#BFD8DF"/>
        <stop  offset="0.1853" style="stop-color:#BBD4DC"/>
        <stop  offset="0.3612" style="stop-color:#B0C9D1"/>
        <stop  offset="0.5333" style="stop-color:#9DB6C0"/>
        <stop  offset="0.7031" style="stop-color:#829BA8"/>
        <stop  offset="0.8697" style="stop-color:#607889"/>
        <stop  offset="1" style="stop-color:#40586C"/>
    </radialGradient>
    <path fill="url(#SVGID_12_)" stroke="#000000" stroke-width="0.1998" d="M63.9,63.9c0.3,2.1,2.2,3.5,4.2,3.2c2-0.3,3.4-2.3,3-4.3
        c-0.3-2.1-2.2-3.5-4.2-3.2C64.9,59.9,63.6,61.9,63.9,63.9z"/>
    <path d="M65.9,63.3c0.1,0.8,0.9,1.4,1.7,1.3c0.8-0.1,1.4-0.9,1.2-1.7c-0.1-0.8-0.9-1.4-1.7-1.3C66.3,61.7,65.7,62.5,65.9,63.3z"/>
    
        <radialGradient id="SVGID_13_" cx="3129.8535" cy="-215.2262" r="0.5251" fx="3130.3787" fy="-215.2299" gradientTransform="matrix(-1.1489 0.1822 0.1947 1.2279 3705.981 -243.2529)" gradientUnits="userSpaceOnUse">
        <stop  offset="0" style="stop-color:#FFFFFF"/>
        <stop  offset="1" style="stop-color:#FFFFFF;stop-opacity:0.21"/>
    </radialGradient>
    <path fill="url(#SVGID_13_)" d="M67.6,62.8c0.1,0.3,0.4,0.6,0.7,0.5c0.3-0.1,0.6-0.4,0.5-0.7c-0.1-0.3-0.4-0.6-0.7-0.5
        C67.8,62.1,67.6,62.5,67.6,62.8z"/>
    
        <radialGradient id="SVGID_14_" cx="1542.1024" cy="-164.2449" r="0.5262" fx="1542.6287" fy="-164.2486" gradientTransform="matrix(-3.0667 0.4863 0.4596 2.899 4868.6729 -212.0279)" gradientUnits="userSpaceOnUse">
        <stop  offset="0" style="stop-color:#FFFFFF"/>
        <stop  offset="1" style="stop-color:#FFFFFF;stop-opacity:0.21"/>
    </radialGradient>
    <path fill="url(#SVGID_14_)" d="M62.5,61.9c0.1,0.8,1,1.3,1.8,1.2c0.9-0.1,1.5-0.9,1.4-1.7c-0.1-0.8-0.9-1.3-1.8-1.2
        C63,60.4,62.4,61.1,62.5,61.9z"/>
    <g>
        <path fill="#918C80" stroke="#231A18" stroke-width="0.5" d="M65.2,60.5c2.5,0,3.8-0.5,5.4,0.5c1.1,0.6,3.1,1.6,4.6,2.2
            c0-0.2,0-0.5-0.1-0.7c-0.7-4.3-4.9-7.2-9.5-6.5c-4.3,0.7-7.3,4.3-7.1,8.3C60.3,62.9,63.5,60.5,65.2,60.5z"/>
        <path fill="#918C80" stroke="#231A18" stroke-width="0.5" d="M72.2,65.5c-1.1,0.5-6.6,1.4-8.4,0.7c-1.2-0.5-3.6-0.7-5.1-0.8
            c0.8,4.1,5,6.9,9.4,6.2c3.9-0.6,6.7-3.7,7.1-7.3C74.2,64.7,72.9,65.2,72.2,65.5z"/>
    </g>
    <path fill="#EDE9E6" d="M65.7,55c5-0.8,9.6,2.6,10.4,7.5c0.8,4.9-2.6,9.6-7.6,10.4c-5,0.8-9.6-2.6-10.4-7.5
        C57.3,60.4,60.7,55.8,65.7,55z M59.4,65c0.7,4.3,4.7,7.2,9,6.5c4.3-0.7,7.2-4.7,6.5-9c-0.7-4.3-4.7-7.2-9-6.5
        C61.6,56.7,58.7,60.8,59.4,65z"/>
</g>
</svg>