<svg version="1.1"
     xmlns="http://www.w3.org/2000/svg" xmlns:xlink="http://www.w3.org/1999/xlink" xmlns:a="http://ns.adobe.com/AdobeSVGViewerExtensions/3.0/"
     x="0px" y="0px" width="100.3px" height="166.5px" viewBox="0 0 100.3 166.5" enable-background="new 0 0 100.3 166.5"
     xml:space="preserve">
<defs>
</defs>
<path fill="#444035" d="M97.1,80.8c0,0-2.4-3.2-3.6-3.1c-0.4,0-2.8,6.7-3.3,13.7c-0.5,7.6,0.6,14.9,2,15.2c1.4,0.4,6-12,6-12
    L97.1,80.8z"/>
<path fill="#444035" d="M8.4,81.4c0,0,0.6-2.5,2.1-2.5c0.9,0,2.9,5.1,3.8,14.4c0.9,10.2-0.1,14.1-0.8,13.9
    c-2.1-0.4-6.8-9.6-7.4-14.8C5.4,87.3,8.4,81.4,8.4,81.4z"/>
<polygon fill="#939393" stroke="#514E44" stroke-width="1.25" points="6.4,88.8 15.8,88 18.8,91.8 17.5,93.9 7,94.9 "/>
<polygon fill="#939393" stroke="#514E44" stroke-width="1.25" points="87,88.5 97.9,89.1 98.2,94.7 86.7,94 "/>
<path fill="#918C80" stroke="#444035" d="M94,78c0,0,0.9-0.1,2.3,0.2c0.9,0.2,1.8,0.6,1.8,0.6s2,6.3,1.6,12.7
    c-0.6,10-3.2,14.7-3.2,14.7s-0.8,0.3-1.8,0.3c-1,0.1-2-0.1-2-0.1s2.1-5,2.8-14.8C96,82.8,94,78,94,78z"/>
<path fill="#918C80" stroke="#444035" d="M10.5,79.1L6,79.4c0,0-2.7,3.8-1.6,14.1c1,10.2,4.5,13.6,4.5,13.6l4.1-0.2
    c0,0-3.7-5.4-4.4-13.6C7.7,84,10.5,79.1,10.5,79.1z"/>
<linearGradient id="SVGID_1_" gradientUnits="userSpaceOnUse" x1="52.7059" y1="159.8876" x2="52.7266" y2="165.1538">
    <stop  offset="0" style="stop-color:#BFBFBF"/>
    <stop  offset="1" style="stop-color:#E6E6E6"/>
</linearGradient>
<rect x="43.4" y="157.5" fill="url(#SVGID_1_)" stroke="#A7A9AC" stroke-width="0.75" width="18.7" height="8.6"/>
<linearGradient id="SVGID_2_" gradientUnits="userSpaceOnUse" x1="52.7097" y1="155.0057" x2="52.8571" y2="162.4757">
    <stop  offset="0" style="stop-color:#BFBFBF"/>
    <stop  offset="1" style="stop-color:#E6E6E6"/>
</linearGradient>
<rect x="41.4" y="150.9" fill="url(#SVGID_2_)" stroke="#A7A9AC" stroke-width="0.75" width="22.7" height="8.6"/>
<linearGradient id="SVGID_3_" gradientUnits="userSpaceOnUse" x1="52.4257" y1="147.5764" x2="52.3744" y2="154.0844">
    <stop  offset="0" style="stop-color:#9C9C9C"/>
    <stop  offset="1" style="stop-color:#E6E6E6"/>
</linearGradient>
<rect x="38.8" y="143.2" fill="url(#SVGID_3_)" stroke="#8A8C8E" stroke-width="0.75" width="27.3" height="8.6"/>
<linearGradient id="SVGID_4_" gradientUnits="userSpaceOnUse" x1="51.9666" y1="114.6169" x2="51.9666" y2="152.411">
    <stop  offset="0" style="stop-color:#BFBFBF"/>
    <stop  offset="1" style="stop-color:#E6E6E6"/>
</linearGradient>
<path fill="url(#SVGID_4_)" stroke="#909091" stroke-width="1.25" d="M22.1,109.1c-1.3,3.8,9.8,33.1,20.6,37.3
    c4.8,1.9,15.6,2.2,18,1.3c10.3-3.6,24-36.8,20.7-40.1C79.7,106,23.5,105.3,22.1,109.1z"/>
<path fill="#FFFFFF" stroke="#717677" stroke-width="2" d="M32.9,113.5c0,0,8.8,10,12.5,10.7c3.6,0.8,10,1.2,13.8-0.8
    c3.8-1.9,9.8-9.6,9.8-9.6l-7.9-2.5l-25.7-1L32.9,113.5z"/>
<linearGradient id="SVGID_5_" gradientUnits="userSpaceOnUse" x1="52.5705" y1="37.3799" x2="52.5705" y2="116.1384">
    <stop  offset="0" style="stop-color:#BFBFBF"/>
    <stop  offset="1" style="stop-color:#E6E6E6"/>
</linearGradient>
<path fill="url(#SVGID_5_)" stroke="#909091" stroke-width="1.25" d="M13.2,69c0,0,3.4,37.7,4.6,40c1.2,2.3,18.7,6.6,34.2,6.6
    c15.8,0,33.9-3.2,34.8-6.9c0.9-3.7,5.2-47.1,5.2-47.1l-4.6-30.8l-74.2-1.4V69z"/>
<radialGradient id="SVGID_6_" cx="-259.8076" cy="166.5033" r="5.564" gradientTransform="matrix(1.1562 0.1277 -0.1205 1.0916 353.9436 -65.1355)" gradientUnits="userSpaceOnUse">
    <stop  offset="0" style="stop-color:#F7FFE7"/>
    <stop  offset="0.9755" style="stop-color:#EAF2CE"/>
</radialGradient>
<path fill="url(#SVGID_6_)" d="M27.1,82.7c-0.4,3.4,2.2,6.4,5.8,6.8c3.6,0.4,6.7-2,7.1-5.4c0.4-3.4-2.2-6.4-5.8-6.8
    C30.6,77,27.4,79.4,27.1,82.7z"/>
<radialGradient id="SVGID_7_" cx="-259.9699" cy="164.7775" r="3.1095" gradientTransform="matrix(1.1562 0.1277 -0.1205 1.0916 353.9436 -65.1355)" gradientUnits="userSpaceOnUse">
    <stop  offset="0" style="stop-color:#8A5222"/>
    <stop  offset="1" style="stop-color:#000000"/>
</radialGradient>
<path fill="url(#SVGID_7_)" stroke="#000000" stroke-width="0.2" d="M36.3,82.4c-0.2,1.6-1.6,2.8-3.2,2.6c-1.6-0.2-2.7-1.6-2.5-3.3
    c0.2-1.6,1.6-2.8,3.2-2.6C35.4,79.3,36.5,80.8,36.3,82.4z"/>
<path d="M34.7,81.8c-0.1,0.7-0.7,1.2-1.4,1.1c-0.7-0.1-1.2-0.7-1.1-1.4c0.1-0.7,0.7-1.2,1.4-1.1C34.2,80.4,34.7,81.1,34.7,81.8z"/>
<path fill="#918C80" stroke="#231A18" stroke-width="0.5" d="M26.5,83.4c0,0,2.8,1.1,6.6,1.1c2.5,0,4.1-0.8,5.2-0.9
    c1.1-0.1,1.5,0.3,1.5,0.3l-0.3,2.3L37.2,89l-4.6,1.1l-1.9-0.5L28,87.8l-1.3-3.3L26.5,83.4z"/>
<radialGradient id="SVGID_8_" cx="-260.7084" cy="291.5644" r="0.4355" fx="-260.2729" fy="291.5613" gradientTransform="matrix(1.1562 0.1277 -0.1364 1.2357 373.8962 -245.6661)" gradientUnits="userSpaceOnUse">
    <stop  offset="0" style="stop-color:#FFFFFF"/>
    <stop  offset="1" style="stop-color:#FFFFFF;stop-opacity:0.21"/>
</radialGradient>
<path fill="url(#SVGID_8_)" d="M33.2,81.4c0,0.3-0.3,0.5-0.6,0.5c-0.3,0-0.5-0.3-0.4-0.6c0-0.3,0.3-0.5,0.6-0.5
    C33,80.8,33.2,81.1,33.2,81.4z"/>
<radialGradient id="SVGID_9_" cx="-485.2495" cy="668.429" r="0.4363" fx="-484.8132" fy="668.4259" gradientTransform="matrix(3.0863 0.3407 -0.322 2.9175 1748.3871 -1704.7876)" gradientUnits="userSpaceOnUse">
    <stop  offset="0" style="stop-color:#FFFFFF"/>
    <stop  offset="1" style="stop-color:#FFFFFF;stop-opacity:0.21"/>
</radialGradient>
<path fill="url(#SVGID_9_)" d="M36.8,80.1c-0.1,0.7-0.7,1.2-1.5,1.1c-0.7-0.1-1.3-0.7-1.2-1.4c0.1-0.7,0.7-1.2,1.5-1.1
    C36.3,78.8,36.9,79.5,36.8,80.1z"/>
<path fill="#918C80" stroke="#231A18" stroke-width="0.5" d="M39.7,81.8c0,0-3.2-1.9-5.3-2c-4.7-0.2-7.8,3.3-7.8,3.3l1.9-4.3
    l2.4-1.6l3.5-0.4l2.4,1l1.7,1.4L39.7,81.8z"/>
<path fill="#444035" d="M40.4,84.4c-0.4,3.9-3.9,6.6-7.8,6.2c-3.9-0.4-6.7-3.9-6.2-7.8c0.4-3.9,3.9-6.6,7.8-6.2
    C38,77,40.8,80.5,40.4,84.4z M34,77.5c-3.4-0.4-6.4,2-6.7,5.4c-0.4,3.3,2,6.3,5.4,6.7c3.4,0.4,6.4-2,6.7-5.4
    C39.8,80.8,37.4,77.8,34,77.5z"/>
<radialGradient id="SVGID_10_" cx="-279.4948" cy="238.7974" r="6.0816" gradientTransform="matrix(1.1806 0.1745 -0.1738 1.154 438.724 -144.5775)" gradientUnits="userSpaceOnUse">
    <stop  offset="0" style="stop-color:#F7FFE7"/>
    <stop  offset="0.9755" style="stop-color:#EAF2CE"/>
</radialGradient>
<path fill="url(#SVGID_10_)" d="M60.1,81.2c-0.6,3.9,2.2,7.5,6.1,8.1c4,0.6,7.7-2.1,8.2-6c0.6-3.9-2.2-7.5-6.1-8.1
    C64.3,74.6,60.7,77.3,60.1,81.2z"/>
<radialGradient id="SVGID_11_" cx="-395.9184" cy="831.8185" r="0.5143" fx="-395.4041" fy="831.8149" gradientTransform="matrix(6.3688 0.9418 -0.9184 6.1022 3350.4426 -4621.3535)" gradientUnits="userSpaceOnUse">
    <stop  offset="0" style="stop-color:#FFFFFF"/>
    <stop  offset="1" style="stop-color:#FFFFFF;stop-opacity:0.21"/>
</radialGradient>
<path fill="url(#SVGID_11_)" d="M68.1,82c-0.2,1.7-1.9,2.8-3.7,2.5c-1.8-0.3-3.1-1.8-2.8-3.5c0.3-1.7,1.9-2.8,3.7-2.5
    C67.1,78.8,68.3,80.4,68.1,82z"/>
<radialGradient id="SVGID_12_" cx="-344.2439" cy="278.4533" r="4.0621" gradientTransform="matrix(1.314 0.1942 -0.1838 1.2209 570.9384 -193.3263)" gradientUnits="userSpaceOnUse">
    <stop  offset="0" style="stop-color:#8A5222"/>
    <stop  offset="1" style="stop-color:#000000"/>
</radialGradient>
<path fill="url(#SVGID_12_)" stroke="#000000" stroke-width="0.2" d="M69.9,80.6c-0.3,1.7-1.8,2.9-3.4,2.7c-1.6-0.2-2.8-1.8-2.5-3.5
    c0.3-1.7,1.8-2.9,3.4-2.7C69.1,77.3,70.2,78.9,69.9,80.6z"/>
<path d="M68.3,80.5c-0.1,0.7-0.8,1.2-1.5,1.1c-0.7-0.1-1.2-0.8-1.1-1.5c0.1-0.7,0.8-1.2,1.5-1.1C67.9,79.1,68.4,79.7,68.3,80.5z"/>
<path fill="#918C80" stroke="#231A18" stroke-width="0.5" d="M59.6,82.8c0,0,1-0.2,2.1-0.4c0.9-0.1,3.7,0.5,4.6,0.5
    c2.5,0,3.4,0.1,5.2-0.2c1.1-0.2,2.6-0.2,2.6-0.2l-0.7,3.4l-2.9,2.7l-4,0.9l-3.8-1.3l-2.8-3L59.6,82.8z"/>
<path fill="#918C80" stroke="#231A18" stroke-width="0.5" d="M74.4,81.7c0,0-4.4-3.7-8.6-3.4c-3.3,0.2-6.2,2.9-6.2,2.9l1.8-4
    l2.7-1.7l3.9-0.3l2.8,1l1.9,1.5L74.4,81.7z"/>
<path fill="#444035" d="M74.6,83.3c-0.6,4.2-4.6,7.1-8.9,6.4c-4.3-0.6-7.3-4.5-6.6-8.7c0.6-4.2,4.6-7.1,8.9-6.4
    C72.3,75.2,75.2,79.1,74.6,83.3z M67.9,75.7c-3.7-0.5-7.1,1.9-7.6,5.5c-0.5,3.6,2,7,5.7,7.5c3.7,0.5,7.1-1.9,7.6-5.5
    C74.1,79.6,71.6,76.2,67.9,75.7z"/>
<radialGradient id="SVGID_13_" cx="-345.3729" cy="278.7112" r="0.5152" fx="-344.8578" fy="278.7077" gradientTransform="matrix(1.314 0.1942 -0.1838 1.2209 570.9384 -193.3263)" gradientUnits="userSpaceOnUse">
    <stop  offset="0" style="stop-color:#FFFFFF"/>
    <stop  offset="1" style="stop-color:#FFFFFF;stop-opacity:0.21"/>
</radialGradient>
<path fill="url(#SVGID_13_)" d="M66.5,80c-0.1,0.3-0.4,0.6-0.8,0.5c-0.4-0.1-0.6-0.4-0.6-0.7c0.1-0.3,0.4-0.6,0.8-0.5
    C66.3,79.3,66.6,79.6,66.5,80z"/>
<radialGradient id="SVGID_14_" cx="67.2101" cy="73.1663" r="8.572" gradientUnits="userSpaceOnUse">
    <stop  offset="0" style="stop-color:#3D2D13"/>
    <stop  offset="1" style="stop-color:#391F14"/>
</radialGradient>
<path fill="url(#SVGID_14_)" stroke="#717677" stroke-width="0.5" d="M56.6,76.5c0,0-1.3-1.1-1-1.9c0.3-0.7,6-3.4,6-3.4l5.3-0.7
    l6.5-0.6c0,0,5.6,2.6,5.5,3.2c-0.1,0.6-4.3-0.3-5.2-0.3c-0.9,0-5.2,0.9-5.2,0.9s-5,1.1-6.6,1.9C60.3,76.2,56.6,76.5,56.6,76.5z"/>
<radialGradient id="SVGID_15_" cx="30.553" cy="74.8726" r="8.1519" gradientUnits="userSpaceOnUse">
    <stop  offset="0" style="stop-color:#3D2D13"/>
    <stop  offset="1" style="stop-color:#391F14"/>
</radialGradient>
<path fill="url(#SVGID_15_)" stroke="#717677" stroke-width="0.5" d="M41.8,76.8l-3.3-3.2c0,0-4.5-1.3-5.7-1.3c-1.3,0-8,0.3-8,0.3
    s-2.4,0.4-3,0.9c-0.6,0.4-2.7,1.9-2.3,2c0.4,0.1,3.9-0.1,4.7-0.3c0.9-0.1,3.3-0.3,4.2,0c0.9,0.3,9.1,1,9.1,1s1,0.7,2.2,1.1
    C40.6,77.8,41.8,76.8,41.8,76.8z"/>
<path d="M13.5,76l1.9,3.2l1.6,0.1c0,0,0.3-0.9,1.3-1.1c1-0.3,8.3-1.6,15.1-1.3c6.8,0.3,12.4,1.6,12.4,1.6l9.6-0.3
    c0,0,7.3-3,17.1-2.3c9.8,0.7,9.9,1.9,9.9,1.9l3,0.1l4.6-3.6l0.3,2.9l-4.9,3.6h-2.4c0,0-0.9,2.9-1.4,3.4c-0.6,0.6,0-5.3-0.6-5.7
    c-0.6-0.4-4.3-1.7-10.8-1.7c-6.5,0-13.5,1.7-14.4,2.4c-0.9,0.7-1.1,4-0.6,5.3c0.6,1.3,0.7,2.4,0,1.7c-0.7-0.7-1.9-6.6-1.9-6.6
    s-2.4,0.1-4.5,0.1c-2,0-2.9,0.6-2.9,0.6s0,4.3-0.6,5c-0.6,0.7-1-0.9-0.9-2.7c0.1-1.9-0.3-3.4-0.9-3.6c-0.6-0.1-6.6-1.1-10.9-1.1
    c-4.3,0-13.1,0-14.1,2c-1,2-0.3,5.9-0.3,5.9l-1.7-3.3l-2.4,0.4l-0.9-3.9L13.5,76z"/>
<radialGradient id="SVGID_16_" cx="50.1267" cy="39.0608" r="44.4151" gradientUnits="userSpaceOnUse">
    <stop  offset="0" style="stop-color:#3D2D13"/>
    <stop  offset="1" style="stop-color:#391F14"/>
</radialGradient>
<path fill="url(#SVGID_16_)" stroke="#717677" d="M90.2,77.2l4.3-4.5l2.9-19c0,0,2.3-8.3,2.3-10.6c0-2.3-6.6-15.2-6.6-15.2l-5.7-3.2
    c0,0-2.6-12.6-8.6-17.5c-6-4.9-12.1-4.3-12.1-4.3l5.2,7.8c0,0-8.9-7.5-17.2-9.2c-8.3-1.7-7.8-0.6-7.8-0.6s7.2,1.7,8.9,5.5
    c1.7,3.7,1.7,3.7,1.7,3.7s-6.5-8-23.9-5.5c-15.8,2.3-16.4,8.6-16.4,8.6s2-1.3,5.5-0.7c3.2,0.5,4.2,1.7,4.2,1.7s-7.2,1.2-11.6,2.4
    c-6,1.7-8,6.3-8,6.3s4.9-1.7,7.5,0.3c1,0.8,2.3,2.3,2.3,2.3s-3.2-1.4-8,2c-1.5,1-4,4.6-4,4.6s1.7-2.6,4.6-2c2.9,0.6,1.7,2.3,1.7,2.3
    s-8,4.9-8,5.7S0.5,49.5,0.5,49.5l2.9,3.7l7.2,23.3l3.7,1.1c0,0,0-15.8,0.9-18.1c0.9-2.3,8.6-13.8,8.6-13.8l12.6-4.6
    c0,0-4.5,3.3-3.3,9.9c0,0,1.6-2.6,6.8-6.8c3.5-2.8,5.5-2.7,5.5-2.7s-2.2,1.1-1.2,4.6c0.6,2.2,3,3,3,3s3.2-6.6,7.5-6.3
    c4.3,0.3,11.6-2.6,11.6-2.6l13.5,0.9c0,0,2,10.1,3.7,14.9c1.7,4.9,4.3,9.5,4.6,12.4C88.5,71.3,90.2,77.2,90.2,77.2z"/>
<linearGradient id="SVGID_17_" gradientUnits="userSpaceOnUse" x1="46.0456" y1="94.7139" x2="53.3523" y2="94.7139">
    <stop  offset="0" style="stop-color:#BFBFBF"/>
    <stop  offset="1" style="stop-color:#E6E6E6"/>
</linearGradient>
<rect x="46" y="86.8" fill="url(#SVGID_17_)" stroke="#909091" stroke-width="1.25" width="7.3" height="15.7"/>
<circle fill="#939393" stroke="#514E44" stroke-width="1.25" cx="49.7" cy="101.7" r="5.9"/>
<ellipse transform="matrix(0.9982 6.010957e-02 -6.010957e-02 0.9982 7.1483 -4.4076)" fill="none" stroke="#000000" cx="76.8" cy="116.6" rx="0.7" ry="0.8"/>
<ellipse transform="matrix(0.9982 6.011380e-02 -6.011380e-02 0.9982 7.0013 -1.4166)" fill="none" stroke="#000000" cx="27" cy="115.7" rx="0.7" ry="0.8"/>
<ellipse transform="matrix(0.9982 6.014462e-02 -6.014462e-02 0.9982 2.9637 -3.2419)" fill="none" stroke="#000000" cx="55.3" cy="47.6" rx="0.7" ry="0.8"/>
</svg>