<svg version="1.1"
     xmlns="http://www.w3.org/2000/svg" xmlns:xlink="http://www.w3.org/1999/xlink" xmlns:a="http://ns.adobe.com/AdobeSVGViewerExtensions/3.0/"
     x="0px" y="0px" width="137.6px" height="167.8px" viewBox="0 0 137.6 167.8" enable-background="new 0 0 137.6 167.8"
     xml:space="preserve">
<defs>
</defs>
<path fill="#332617" d="M27.1,159.7c0,0,23.8-8.3,37.8-11.3c29.9-6.6,44,4.8,44,4.8l-5-40.3l14.6-31.5l-1.5-23l-102.9,25l-1.5,18.8
    L27.1,159.7z"/>
<circle fill="#4F727F" stroke="#374F56" cx="73.8" cy="154.5" r="12.7"/>
<circle fill="#4F727F" stroke="#374F56" cx="70.5" cy="136.7" r="16.4"/>
<linearGradient id="SVGID_1_" gradientUnits="userSpaceOnUse" x1="20.2356" y1="121.5782" x2="91.8465" y2="121.5782">
    <stop  offset="0" style="stop-color:#BFBFBF"/>
    <stop  offset="1" style="stop-color:#E6E6E6"/>
</linearGradient>
<path fill="url(#SVGID_1_)" stroke="#A7A9AC" d="M20.2,101.6c0,0,1.2,17.7,8.1,25c4.9,5.1,3.8,14.2,20.7,15
    c16.9,0.8,21.5-8.1,21.5-8.1s16.1-0.8,19.2-8.4c3.1-7.7,1.9-12.7,1.9-12.7L20.2,101.6z"/>
<linearGradient id="SVGID_2_" gradientUnits="userSpaceOnUse" x1="18.9231" y1="71.868" x2="106.8284" y2="71.868">
    <stop  offset="0" style="stop-color:#BFBFBF"/>
    <stop  offset="1" style="stop-color:#E6E6E6"/>
</linearGradient>
<path fill="url(#SVGID_2_)" stroke="#A7A9AC" d="M21.4,45.6c0,0-2.3,37.2-2.3,44.9c0,7.7-2.7,17.7,13.8,24.4
    c16.5,6.7,52.4,9.6,59.5,3.6c10-8.4,16.5-52.6,13.8-64.5c-2.7-11.9-25.3-29.9-38-31.5c-12.7-1.5-41.8,0-44.5,10.4
    C21,43.2,21.4,45.6,21.4,45.6z"/>
<radialGradient id="SVGID_3_" cx="-37.1429" cy="232.3899" r="6.7173" gradientTransform="matrix(1.1489 0.1822 -0.172 1.0847 115.1292 -173.6289)" gradientUnits="userSpaceOnUse">
    <stop  offset="0" style="stop-color:#F7FFE7"/>
    <stop  offset="0.9755" style="stop-color:#EAF2CE"/>
</radialGradient>
<path fill="url(#SVGID_3_)" d="M24.8,70.5c-0.6,4,2.3,7.8,6.6,8.5c4.3,0.7,8.2-2,8.9-6.1c0.6-4-2.3-7.8-6.6-8.5
    C29.4,63.7,25.4,66.4,24.8,70.5z"/>
<radialGradient id="SVGID_4_" cx="-36.4706" cy="230.4803" r="3.9829" gradientTransform="matrix(1.1489 0.1822 -0.172 1.0847 115.1292 -173.6289)" gradientUnits="userSpaceOnUse">
    <stop  offset="0" style="stop-color:#98D6CF"/>
    <stop  offset="1" style="stop-color:#0D133D"/>
</radialGradient>
<path fill="url(#SVGID_4_)" stroke="#000000" stroke-width="0.2" d="M37.1,71c-0.3,2.1-2.2,3.5-4.2,3.2c-2-0.3-3.4-2.3-3-4.3
    c0.3-2.1,2.2-3.5,4.2-3.2C36.1,67,37.4,68.9,37.1,71z"/>
<path d="M35.1,70.3c-0.1,0.8-0.9,1.4-1.7,1.3c-0.8-0.1-1.4-0.9-1.2-1.7c0.1-0.8,0.9-1.4,1.7-1.3C34.7,68.7,35.2,69.5,35.1,70.3z"/>
<path fill="#918C80" stroke="#231A18" stroke-width="0.5" d="M24.4,70.4c0,0,0.9,1.2,1.5,1.8c0.6,0.6,3.2,1.8,5.3,1.9
    c4.2,0.2,8.8-2,8.8-2l-0.5,3.4l-2.9,3.2l-5.6,1.1l-2.3-0.7l-3.2-2.3l-1.4-4L24.4,70.4z"/>
<radialGradient id="SVGID_5_" cx="-37.1572" cy="252.8372" r="0.5258" fx="-36.6315" fy="252.8335" gradientTransform="matrix(1.1489 0.1822 -0.1947 1.2279 124.7256 -233.9246)" gradientUnits="userSpaceOnUse">
    <stop  offset="0" style="stop-color:#FFFFFF"/>
    <stop  offset="1" style="stop-color:#FFFFFF;stop-opacity:0.21"/>
</radialGradient>
<path fill="url(#SVGID_5_)" d="M33.4,69.8c-0.1,0.3-0.4,0.6-0.7,0.5c-0.3-0.1-0.6-0.4-0.5-0.7c0.1-0.3,0.4-0.6,0.7-0.5
    C33.2,69.2,33.4,69.5,33.4,69.8z"/>
<radialGradient id="SVGID_6_" cx="134.999" cy="172.9819" r="0.5268" fx="135.5257" fy="172.9782" gradientTransform="matrix(3.0667 0.4863 -0.4596 2.899 -297.5206 -498.3406)" gradientUnits="userSpaceOnUse">
    <stop  offset="0" style="stop-color:#FFFFFF"/>
    <stop  offset="1" style="stop-color:#FFFFFF;stop-opacity:0.21"/>
</radialGradient>
<path fill="url(#SVGID_6_)" d="M38.5,69c-0.1,0.8-1,1.3-1.8,1.2c-0.9-0.1-1.5-0.9-1.4-1.7c0.1-0.8,0.9-1.3,1.8-1.2
    C38,67.4,38.6,68.2,38.5,69z"/>
<path fill="#918C80" stroke="#231A18" stroke-width="0.5" d="M40.1,70c0,0-5.4-3-7.9-3c-4,0-6.9,1.8-6.9,1.8l1.5-2.9l2.9-1.8
    l4.2-0.3l2.9,1.3l2,1.8L40.1,70z"/>
<path fill="#EDE9E6" d="M40.8,73.2c-0.7,4.6-5.1,7.8-9.8,7c-4.7-0.7-7.8-5.1-7.1-9.7c0.7-4.6,5.1-7.8,9.8-7.1
    C38.3,64.2,41.5,68.5,40.8,73.2z M33.5,64.5c-4-0.6-7.8,2.1-8.4,6.1c-0.6,4,2.1,7.8,6.1,8.4c4,0.6,7.8-2.1,8.4-6.1
    C40.2,68.9,37.5,65.1,33.5,64.5z"/>
<radialGradient id="SVGID_7_" cx="24.6485" cy="364.6685" r="8.085" gradientTransform="matrix(1.1604 0.2787 -0.2756 1.134 142.8382 -345.2121)" gradientUnits="userSpaceOnUse">
    <stop  offset="0" style="stop-color:#F7FFE7"/>
    <stop  offset="0.9755" style="stop-color:#EAF2CE"/>
</radialGradient>
<path fill="url(#SVGID_7_)" d="M61.6,72.9c-1.2,5.1,2,10.2,7.2,11.4c5.2,1.2,10.4-1.9,11.6-6.9c1.2-5.1-2-10.2-7.2-11.4
    C68,64.8,62.8,67.9,61.6,72.9z"/>
<radialGradient id="SVGID_8_" cx="358.6343" cy="181.7687" r="0.6836" fx="359.318" fy="181.764" gradientTransform="matrix(6.2599 1.5039 -1.4569 5.9965 -1912.2076 -1555.1046)" gradientUnits="userSpaceOnUse">
    <stop  offset="0" style="stop-color:#FFFFFF"/>
    <stop  offset="1" style="stop-color:#FFFFFF;stop-opacity:0.21"/>
</radialGradient>
<path fill="url(#SVGID_8_)" d="M72,75c-0.5,2.2-2.9,3.5-5.2,2.9c-2.4-0.6-3.8-2.8-3.3-5c0.5-2.2,2.9-3.5,5.2-2.9
    C71.1,70.7,72.6,72.9,72,75z"/>
<radialGradient id="SVGID_9_" cx="15.3979" cy="351.6951" r="5.4002" gradientTransform="matrix(1.2916 0.3102 -0.2915 1.1997 153.9379 -354.5217)" gradientUnits="userSpaceOnUse">
    <stop  offset="0" style="stop-color:#98D6CF"/>
    <stop  offset="1" style="stop-color:#0D133D"/>
</radialGradient>
<path fill="url(#SVGID_9_)" stroke="#000000" stroke-width="0.2" d="M74.6,73.6c-0.5,2.2-2.7,3.6-4.9,3.1c-2.1-0.5-3.4-2.7-2.9-5
    c0.5-2.2,2.7-3.6,4.9-3.1C73.8,69.1,75.1,71.4,74.6,73.6z"/>
<path d="M72.4,73.1c-0.2,1-1.2,1.6-2.1,1.3c-0.9-0.2-1.5-1.2-1.3-2.2c0.2-1,1.2-1.6,2.1-1.3C72.1,71.2,72.7,72.2,72.4,73.1z"/>
<path fill="#918C80" stroke="#231A18" stroke-width="0.5" d="M60.6,74c0,0,1.2,0.4,2.6,0.9c1.3,0.5,3.2,1.1,4.4,1.3
    c3.4,0.7,6.3,0.7,8.9,0.7c1.5,0,3.6-0.1,3.6-0.1l-1.4,3.9l-4.1,3.3l-5.4,0.7l-4.9-2.2l-3.3-4.3L60.6,74z"/>
<path fill="#918C80" stroke="#231A18" stroke-width="0.5" d="M80.4,75.4c0,0-6.5-4.9-10.9-5.5c-5.2-0.6-8.7,2.9-8.7,2.9l2.9-5.1
    l3.8-1.9l5.2,0.1l3.6,1.6l2.3,2.2L80.4,75.4z"/>
<path fill="#EDE9E6" d="M80.5,77.5c-1.3,5.5-7,8.8-12.6,7.5c-5.6-1.3-9.1-6.9-7.7-12.3c1.3-5.5,7-8.8,12.6-7.5
    C78.4,66.5,81.9,72,80.5,77.5z M72.6,66.6c-4.8-1.2-9.6,1.7-10.8,6.4c-1.1,4.7,1.8,9.4,6.6,10.6c4.8,1.2,9.6-1.7,10.8-6.4
    C80.3,72.5,77.4,67.7,72.6,66.6z"/>
<radialGradient id="SVGID_10_" cx="13.9705" cy="351.8529" r="0.6853" fx="14.6557" fy="351.8481" gradientTransform="matrix(1.2916 0.3102 -0.2915 1.1997 153.9379 -354.5217)" gradientUnits="userSpaceOnUse">
    <stop  offset="0" style="stop-color:#FFFFFF"/>
    <stop  offset="1" style="stop-color:#FFFFFF;stop-opacity:0.21"/>
</radialGradient>
<path fill="url(#SVGID_10_)" d="M70.3,72.1c-0.1,0.4-0.6,0.7-1.1,0.6c-0.5-0.1-0.8-0.6-0.7-1c0.1-0.4,0.6-0.7,1.1-0.6
    C70.1,71.2,70.4,71.7,70.3,72.1z"/>
<path fill="#717677" d="M32.5,113.7l5.4-2.5c0,0,2.1,1.9,2.9,1.9s3.6-1,4.2-0.6c0.6,0.4,3.8,2.1,5.6,2.7c1.7,0.6,5,2.3,5.6,2.3
    c0.6,0,0.6-0.8,0.6-0.8v2.3c0,0-0.2-1-0.8-0.6c-0.6,0.4-2.1,1.9-6.5,3.1c-4.4,1.2-10.2,0.2-11.9-1c-1.7-1.2-4.6-5.8-4.6-5.8
    l-0.8,0.4l0.4-3.3V113.7z"/>
<path fill="#444035" d="M37.5,95.4c0,0,1.2,5.8,6.5,5.5c2.9-0.2,6.1-5.1,5.9-12.8c-0.2-7.1-8.8-7.6-10.8-4.6
    c-1.4,2.1-2.5,5.8-2.3,7.1C37.6,96.8,37.5,95.4,37.5,95.4z"/>
<path fill="#918C80" d="M48.6,91.4c0.4-5.8-1.2-8.7-6.5-8.5c-3.5,0.1-5.6,5.8-5.6,9.1c-0.1,4.6,2.5,8.2,5.1,8.7
    C45.5,101.3,48.2,97,48.6,91.4z"/>
<path fill="#444035" d="M39.6,89.9c0,0,2.9-0.3,4.6,0.5c1.6,0.8,3.4,3.4,2.7,5.8c-0.7,2.4-2.7,3.6-4.4,3.5c-1.9-0.1-2.9-0.2-2.9-0.2
    l-0.9-6.7L39.6,89.9z"/>
<path fill="#939393" stroke="#514E44" stroke-width="1.25" d="M45.1,95.3c-0.4,2.5-2.7,4.2-5.2,3.8c-2.5-0.4-4.3-2.7-3.9-5.2
    c0.4-2.5,2.7-4.2,5.2-3.8C43.7,90.5,45.4,92.8,45.1,95.3z"/>
<path fill="#4C3C26" stroke="#8C755A" stroke-width="0.5" d="M41.3,26.4c0,0-6.5,20.3-1.2,26.9c5.4,6.5,10,6.1,15,7.3
    c5,1.2-2.3-1.9-6.5-8.1c-4.2-6.1,6.1,1.9,10,3.5c3.8,1.5,15.7,5.8,15.7,5.8s-7.3-2.7-11.5-10c-4.2-7.3,0.8-5.8,0.8-5.8
    s5,12.3,18.4,16.9c13.4,4.6,24.2,4.2,24.6,5.8c0.4,1.5,2.7,16.1,2.7,16.1s-4.2,7.7-5,10.7c-0.8,3.1-10,33-9.2,41.1
    c0.8,8.1,8.4,15,12.3,16.5c3.8,1.5,10-0.4,10-0.4s-5-1.2-7.7-8.1c-2.7-6.9,0.4-5.4,0.4-5.4s1.9,3.5,5.8,5.4c3.8,1.9,10,0,10,0
    s-5.4,1.9-8.8-6.5c-3.5-8.4,6.9-21.5,7.3-24.2c0.4-2.7,13.8-26.1,12.7-30.7c-1.2-4.6,0.4-29.9,0.4-29.9l-10.7-26.5l-39.2-25
    L52.9,0.3L40.2,11.4l-12.3,4.2L12.6,43.2L9.9,75.9l-9.6,25l16.9,29.9c0,0-2.4,17.8-8.4,20c-4.5,1.6-7.7-0.4-7.7-0.4s7.3,10.7,15,5.8
    c4.8-3.1,5.4-9.6,5.4-9.6s3.5,4.6-0.8,8.8c-2.7,2.7-5.8,3.8-5.8,3.8s8.7,2.6,13.1,0c10.4-6.1,3.8-19.1,3.8-19.1s-6.9-14.3-9.5-22
    c-2.7-7.7-4.2-32.2-2.3-43.8c1.8-10.6,0-14.2,7.7-18c7.7-3.8,7.7-18,10.4-23C40.6,28.3,41.3,26.4,41.3,26.4z"/>
<path d="M107.5,75.4c0,0-13.8,0.3-14.3,0.3c-0.5,0-2.9,1.7-4.5,6c-1.5,4.4-3.6,6-7,7.3s-13.6,0.4-17.9-0.5
    c-4.4-0.9-8.3-2.2-10.7-4.5c-2.4-2.3-4.5-10.2-5-11.6c-0.5-1.4-3.5-1.4-4.1-0.9c-0.6,0.5-4.1,9.7-6.5,11.5
    c-2.4,1.8-6.1,1.5-11.6,1.3c-5.5-0.3-9.6-1.2-13.7-3.6c-4.1-2.4-5-9.1-5.2-10.4c-0.3-1.3-1.7-2.8-2.2-3.3c-0.5-0.5,0.1-6.3,0.1-6.3
    S5.4,60,6.3,60c0.9,0,2.2-0.3,7.4-1c5.2-0.8,15.5,1.4,18.3,2c2.8,0.6,5.2,1.4,6.9,2.4c1.7,1,3.5,3.6,3.5,3.6s6.5,0.4,7,0.4
    c0.5,0,0.6-0.8,2-2c1.4-1.3,2.7-1.9,4.7-2.3c2-0.4,19.3,0.3,23.4,0.3c4.1,0,4.9,1.7,6,2.2c1.2,0.5,6.4,3.1,7.2,3.2
    c0.8,0.1,15.5,1,15.5,1L107.5,75.4z M54.3,82.5c1.9,2.2,4.5,2.9,9.2,4.4c4.7,1.4,16.4,0.9,19.2,0c2.8-0.9,3.6-3.2,4.2-5.2
    c0.6-2,0.5-5.8,0.1-9.7c-0.4-4-1.3-4.4-4.2-5.8c-2.9-1.4-23.4-1.5-26.1-1.2c-2.7,0.4-5.5,3.3-5.6,5.9C50.7,78.3,52.4,80.4,54.3,82.5
    z M40.2,67.8c-1.2-2.1-3.1-4.6-11.1-5.9c-8.1-1.3-15.4-1.8-16.9-0.8c-1.5,1-3.5,5.6-2.9,9.6c0.5,4,1,6.7,3.3,8.2
    c2.3,1.5,5.1,3.5,13.2,3.8c8.1,0.4,9.5,0.5,11.5-2.3c2-2.8,3.1-5.4,3.5-8.2C41,70.3,40.8,69,40.2,67.8z"/>
<ellipse transform="matrix(0.9982 6.007453e-02 -6.007453e-02 0.9982 1.5487 -2.773)" fill="none" stroke="#000000" cx="46.9" cy="24.4" rx="0.7" ry="0.8"/>
<ellipse transform="matrix(0.9982 6.014943e-02 -6.014943e-02 0.9982 6.0759 -4.9331)" fill="none" stroke="#000000" cx="85" cy="98.5" rx="0.7" ry="0.8"/>
<ellipse transform="matrix(0.9982 6.007875e-02 -6.007875e-02 0.9982 8.5287 -4.4129)" fill="none" stroke="#000000" cx="77.6" cy="139.6" rx="0.7" ry="0.8"/>
</svg>