<svg version="1.1"
     xmlns="http://www.w3.org/2000/svg" xmlns:xlink="http://www.w3.org/1999/xlink" xmlns:a="http://ns.adobe.com/AdobeSVGViewerExtensions/3.0/"
     x="0px" y="0px" width="94.8px" height="161.4px" viewBox="0 0 94.8 161.4" enable-background="new 0 0 94.8 161.4"
     xml:space="preserve">
<defs>
</defs>
<linearGradient id="SVGID_1_" gradientUnits="userSpaceOnUse" x1="93.0187" y1="230.9348" x2="110.3303" y2="230.9348" gradientTransform="matrix(-0.9976 -6.960000e-02 -6.960000e-02 0.9976 155.0438 -77.8191)">
    <stop  offset="0" style="stop-color:#9C9C9C"/>
    <stop  offset="1" style="stop-color:#E6E6E6"/>
</linearGradient>
<path fill="url(#SVGID_1_)" stroke="#8A8C8E" stroke-width="0.75" d="M47.1,132.5l-2.8,25.7c0,0-2.5,3.5-7.7,2.8
    c-5.2-0.7-7.3-4.8-7.3-4.8l0.7-26.4l13.4,0.6L47.1,132.5z"/>
<path fill="#444035" d="M24.7,153.8l4.4-12.6c0,0,4,1.4,8.6,1.6c4.6,0.2,9-1.2,9-1.2s0.8,4.5,3.1,13.9c0,0-4.7,3-13.7,2.6
    C27.1,157.8,24.7,153.8,24.7,153.8z"/>
<linearGradient id="SVGID_2_" gradientUnits="userSpaceOnUse" x1="26.0429" y1="175.0116" x2="15.6816" y2="123.2316" gradientTransform="matrix(-0.9942 0.1075 0.1075 0.9942 46.8828 -30.1035)">
    <stop  offset="0" style="stop-color:#A19D95"/>
    <stop  offset="1" style="stop-color:#E8E6D6"/>
</linearGradient>
<path fill="url(#SVGID_2_)" stroke="#868687" d="M79.3,97.7c0,0,0.3,8.2-5,15.3c-6.2,8.1-12,11.4-15.9,15.3
    c-3.9,3.9-15.5,8.6-22.7,6.3c-7.2-2.3-13.8-8-16.3-10.8c-2.5-2.8-6-11.7-7.3-18.9c-1.2-7.2-1.5-25.6-1.5-25.6l32.4,19.4L79.3,97.7z"
    />
<path fill="#FFFFFF" stroke="#717677" stroke-width="2" d="M61.4,105.9c0,0-9.6,6.5-17.4,5.2c-9.1-1.5-16.9-10.2-16.9-10.2l19.5,0.1
    L61.4,105.9z"/>
<path fill="#444035" d="M91.3,75.5c0,0-0.1-2.4-1.3-2.6c-0.8-0.1-3.3,4.3-5.5,12.9c-2.5,9.3-2.3,13-1.7,13c1.8-0.1,7.2-8,8.5-12.7
    C92.6,81.4,91.3,75.5,91.3,75.5z"/>
<polygon fill="#939393" stroke="#514E44" stroke-width="1.25" points="91.6,82.6 84.1,80.7 80.9,83.8 81.7,85.9 90.1,88.2 "/>
<path fill="#918C80" stroke="#444035" d="M89.9,73.1l3.6,0.9c0,0,1.5,3.9-1,13.3c-2.6,9.3-6,12-6,12l-3.3-0.7c0,0,3.9-4.5,5.9-12
    C91.3,78,89.9,73.1,89.9,73.1z"/>
<linearGradient id="SVGID_3_" gradientUnits="userSpaceOnUse" x1="-11.7677" y1="96.1044" x2="71.038" y2="96.1044" gradientTransform="matrix(-0.9982 5.980000e-02 5.980000e-02 0.9982 71.5813 -35.9604)">
    <stop  offset="0" style="stop-color:#C8C3B5"/>
    <stop  offset="1" style="stop-color:#E6E7E5"/>
</linearGradient>
<path fill="url(#SVGID_3_)" stroke="#58595B" d="M82.1,101.1c0,0-18.1,7.1-37.2,4.8c-25-3-36.5-19.5-36.5-19.5S6.2,74.8,7.1,64.2
    C7.9,53.5,12,46,12,46l5.9-24.5l29.4-4.8l28.4,6.1l11.7,7.9l2.2,36.9L82.1,101.1z"/>
<path fill="#CC750D" stroke="#84420B" d="M86.1,81.3c0,0-1.2-20.7-1.5-25.9c-0.4-5.1,1.6-17.3-1.2-19.8c-2.8-2.4-12.8-4.8-12.8-4.8
    l-9,0.5l-8.9,2.7l-10.3-7.1L27.1,20c0,0-9.9,12.3-9.6,17c0.3,4.7-2.8,18.3-2.8,18.3L7.3,68.7l-0.7-12L10,41.8c0,0,0.6-19.2,2.2-20.9
    c1.6-1.7,13-12.3,13-12.3l14.3-5.2c0,0,27.3-5.1,29.2-1.7c1.9,3.3,13.9,9.1,17.6,12.7c3.7,3.7,7.9,16.3,7.9,16.3l-0.9,21.2
    l-1.6,16.5L86.1,81.3z"/>
<rect x="36" y="88.4" transform="matrix(-0.9879 -0.1551 0.1551 -0.9879 77.2606 187.5631)" fill="#444035" width="19.9" height="4.8"/>
<polygon fill="#514E44" stroke="#939393" stroke-width="0.75" points="48.9,96.5 44.2,95.8 41.8,92.4 42.5,87.9 45.8,85.2 50.6,86 
    53.1,89.6 52.4,94.2 "/>
<radialGradient id="SVGID_4_" cx="125.8667" cy="88.4933" r="4.1565" gradientTransform="matrix(-0.9879 -0.1551 -0.1551 0.9879 185.6482 22.9348)" gradientUnits="userSpaceOnUse">
    <stop  offset="0" style="stop-color:#E6E6E6"/>
    <stop  offset="1" style="stop-color:#808080"/>
</radialGradient>
<path fill="url(#SVGID_4_)" stroke="#58595B" stroke-width="0.75" d="M43.5,90.2c-0.4,2.3,1.2,4.4,3.5,4.8c2.3,0.4,4.4-1.2,4.8-3.5
    c0.4-2.3-1.2-4.4-3.5-4.7C46,86.4,43.8,87.9,43.5,90.2z"/>
<radialGradient id="SVGID_5_" cx="-2022.2893" cy="186.6984" r="7.1687" gradientTransform="matrix(1.139 0.2362 -0.223 1.0754 2374.7778 346.2256)" gradientUnits="userSpaceOnUse">
    <stop  offset="0" style="stop-color:#F7FFE7"/>
    <stop  offset="0.9755" style="stop-color:#EAF2CE"/>
</radialGradient>
<path fill="url(#SVGID_5_)" d="M21.6,67.6c-0.9,4.3,2.1,8.5,6.6,9.4c4.5,0.9,8.9-1.8,9.8-6c0.9-4.3-2.1-8.5-6.6-9.4
    C26.8,60.7,22.5,63.4,21.6,67.6z"/>
<linearGradient id="SVGID_6_" gradientUnits="userSpaceOnUse" x1="-2022.4343" y1="183.2091" x2="-2021.9044" y2="179.2718" gradientTransform="matrix(1.139 0.2362 -0.223 1.0754 2374.7778 346.2256)">
    <stop  offset="0" style="stop-color:#FFFFFF;stop-opacity:0.21"/>
    <stop  offset="1" style="stop-color:#E7FFF8;stop-opacity:0.9386"/>
</linearGradient>
<path fill="url(#SVGID_6_)" d="M21.9,65.8c0,0,5.9-1.4,10.2-0.5c4.3,0.8,5.8,2.7,5.8,2.7l-2.2-4l-3.4-2.4l-3-0.4l-4,0.8L21.9,65.8z"
    />
<radialGradient id="SVGID_7_" cx="-2021.9244" cy="184.8295" r="4.0397" gradientTransform="matrix(1.139 0.2362 -0.223 1.0754 2374.7778 346.2256)" gradientUnits="userSpaceOnUse">
    <stop  offset="0" style="stop-color:#8A5222"/>
    <stop  offset="1" style="stop-color:#000000"/>
</radialGradient>
<path fill="url(#SVGID_7_)" stroke="#000000" stroke-width="0.2" d="M34.1,68.9c-0.4,2.1-2.4,3.4-4.4,3c-2-0.4-3.3-2.5-2.9-4.5
    c0.4-2.1,2.4-3.4,4.4-3C33.2,64.7,34.5,66.8,34.1,68.9z"/>
<path d="M32.2,67.5c-0.2,1-1.2,1.7-2.2,1.4c-1-0.2-1.6-1.2-1.4-2.2c0.2-1,1.2-1.7,2.2-1.4C31.8,65.5,32.5,66.5,32.2,67.5z"/>
<path fill="#918C80" stroke="#231A18" stroke-width="0.5" d="M21.3,68.9c0,0,2.9,1.7,8.5,2.5c4.8,0.7,8.1-0.3,8.1-0.3l-0.8,2.6
    l-3.2,3.3l-6,0.9l-2.4-0.9l-3.3-2.6l-1.3-4.8L21.3,68.9z"/>
<radialGradient id="SVGID_8_" cx="-2022.0367" cy="185.0751" r="0.5911" fx="-2021.4457" fy="185.071" gradientTransform="matrix(1.139 0.2362 -0.223 1.0754 2374.7778 346.2256)" gradientUnits="userSpaceOnUse">
    <stop  offset="0" style="stop-color:#FFFFFF"/>
    <stop  offset="1" style="stop-color:#FFFFFF;stop-opacity:0.21"/>
</radialGradient>
<path fill="url(#SVGID_8_)" d="M31,67.8c-0.1,0.3-0.4,0.5-0.8,0.5c-0.4-0.1-0.6-0.4-0.5-0.7c0.1-0.3,0.4-0.6,0.8-0.5
    C30.9,67.1,31.1,67.4,31,67.8z"/>
<radialGradient id="SVGID_9_" cx="-1704.3944" cy="603.205" r="0.5326" fx="-1703.8618" fy="603.2012" gradientTransform="matrix(2.2844 0.4737 -0.5958 2.8742 4285.1357 -860.4821)" gradientUnits="userSpaceOnUse">
    <stop  offset="0" style="stop-color:#FFFFFF"/>
    <stop  offset="1" style="stop-color:#FFFFFF;stop-opacity:0.21"/>
</radialGradient>
<path fill="url(#SVGID_9_)" d="M33.4,66.1c-0.2,0.8-0.9,1.4-1.5,1.2c-0.7-0.1-1.1-0.9-0.9-1.7c0.2-0.8,0.8-1.4,1.5-1.2
    C33.1,64.5,33.6,65.3,33.4,66.1z"/>
<path fill="#918C80" stroke="#231A18" stroke-width="0.5" d="M38.2,70c0,0-2.9-4-5.5-4.4c-5.7-1-11.7,1.9-11.7,1.9l1.8-3.5l4.4-2.9
    l4.4-0.1l2.8,1.5l2.1,2L38.2,70z"/>
<path fill="#444035" d="M38.5,71.4c-1,4.9-5.8,8-10.8,7c-4.9-1-8.1-5.8-7.1-10.7c1-4.9,5.8-8,10.8-7C36.4,61.7,39.5,66.5,38.5,71.4z
     M31.2,61.7c-4.3-0.9-8.4,1.8-9.3,6.1C21,72,23.7,76.2,28,77.1c4.3,0.9,8.4-1.8,9.3-6.1C38.2,66.8,35.4,62.6,31.2,61.7z"/>
<polygon fill="#CC750D" stroke="#84420B" points="41.8,63.2 35.5,59.4 27,59.8 19.9,62.6 17.8,64.9 26,61.1 33.4,62.8 38.4,64 
    40.9,64.3 "/>
<radialGradient id="SVGID_10_" cx="-1997.2341" cy="224.0357" r="6.578" gradientTransform="matrix(1.1584 0.2867 -0.2835 1.132 2444.9871 394.0964)" gradientUnits="userSpaceOnUse">
    <stop  offset="0" style="stop-color:#F7FFE7"/>
    <stop  offset="0.9755" style="stop-color:#EAF2CE"/>
</radialGradient>
<path fill="url(#SVGID_10_)" d="M60.3,73.2c-1,4.1,1.6,8.3,5.8,9.3c4.2,1,8.5-1.4,9.5-5.6c1-4.1-1.5-8.3-5.8-9.3
    C65.5,66.6,61.3,69.1,60.3,73.2z"/>
<radialGradient id="SVGID_11_" cx="-1503.1968" cy="735.3669" r="0.556" fx="-1502.6407" fy="735.3631" gradientTransform="matrix(6.2494 1.547 -1.4982 5.9862 10561.2852 -2002.3141)" gradientUnits="userSpaceOnUse">
    <stop  offset="0" style="stop-color:#FFFFFF"/>
    <stop  offset="1" style="stop-color:#FFFFFF;stop-opacity:0.21"/>
</radialGradient>
<path fill="url(#SVGID_11_)" d="M68.8,75c-0.4,1.8-2.3,2.8-4.3,2.3c-1.9-0.5-3.1-2.3-2.7-4.1c0.4-1.8,2.3-2.8,4.3-2.3
    C68,71.4,69.2,73.2,68.8,75z"/>
<radialGradient id="SVGID_12_" cx="-1986.3188" cy="257.7068" r="4.1505" gradientTransform="matrix(1.2894 0.3191 -0.2999 1.1977 2706.7896 397.8594)" gradientUnits="userSpaceOnUse">
    <stop  offset="0" style="stop-color:#8A5222"/>
    <stop  offset="1" style="stop-color:#000000"/>
</radialGradient>
<path fill="url(#SVGID_12_)" stroke="#000000" stroke-width="0.2" d="M70.8,73.8c-0.4,1.7-2.1,2.8-3.7,2.4c-1.6-0.4-2.6-2.1-2.2-3.8
    c0.4-1.7,2.1-2.8,3.8-2.4C70.3,70.3,71.3,72.1,70.8,73.8z"/>
<path d="M69.5,72.6c-0.2,0.9-1.1,1.5-2,1.2c-0.9-0.2-1.4-1.1-1.2-2c0.2-0.9,1.1-1.5,2-1.2C69.2,70.8,69.8,71.7,69.5,72.6z"/>
<path fill="#918C80" stroke="#231A18" stroke-width="0.5" d="M60,74.1c0,0,1.1,0,2.5,0.5c1.2,0.4,2.6,1.2,5.5,1.6
    c3.9,0.5,7.3-0.8,7.3-0.8l-1.3,4.2l-3.4,2.6l-4.4,0.5L62.4,81l-2.7-3.5L60,74.1z"/>
<radialGradient id="SVGID_13_" cx="-1987.3502" cy="256.7179" r="0.6207" fx="-1986.7296" fy="256.7136" gradientTransform="matrix(1.2894 0.3191 -0.2999 1.1977 2706.7896 397.8594)" gradientUnits="userSpaceOnUse">
    <stop  offset="0" style="stop-color:#FFFFFF"/>
    <stop  offset="1" style="stop-color:#FFFFFF;stop-opacity:0.21"/>
</radialGradient>
<path fill="url(#SVGID_13_)" d="M68.1,71.3c-0.1,0.4-0.5,0.6-1,0.5c-0.4-0.1-0.7-0.5-0.6-0.9c0.1-0.4,0.5-0.6,1-0.5
    C67.9,70.5,68.2,70.9,68.1,71.3z"/>
<path fill="#918C80" stroke="#231A18" stroke-width="0.5" d="M75.8,75.5c0,0-1.6-4.1-9.1-5.1c-2.4-0.3-7,3.2-7,3.2l1.4-3.5l4-2.5
    l4.4,0.1l3.1,1.4l2,1.9L75.8,75.5z"/>
<path fill="#444035" d="M75.7,77c-1.1,4.4-5.7,7.1-10.3,6c-4.6-1.1-7.3-5.6-6.2-10.1c1.1-4.4,5.7-7.1,10.3-6
    C74,68.1,76.8,72.6,75.7,77z M69.2,68.1c-3.9-1-7.8,1.3-8.8,5.2c-1,3.8,1.4,7.7,5.3,8.7c3.9,1,7.8-1.3,8.8-5.2
    C75.5,72.9,73.1,69.1,69.2,68.1z"/>
<polygon fill="#CC750D" stroke="#84420B" points="58.6,64.9 58.8,67.5 65.2,67.2 70.6,66.8 76.9,69.2 80.4,72.4 81.5,70.2 
    74.3,64.9 71.3,63.1 59.8,64.3 "/>
<path fill="#444035" d="M0.7,84.4c0.7-0.2,3.6-4.2,3.9-13.1C5,61.7,4.5,57.4,3.9,57.6c-1.7,0.4-3.5,10.1-3.8,15
    C-0.2,77.5,0.2,84.6,0.7,84.4z"/>
<path fill="#918C80" stroke="#444035" d="M4.5,58.1l3.7,0.3c0,0,0.4,3.9-0.6,13.5c-1,9.6-2.1,12.5-2.1,12.5L1.4,84
    c0,0,1.7-4.9,2.4-12.7C4.6,62.6,4.5,58.1,4.5,58.1z"/>
<ellipse transform="matrix(-0.9928 0.1196 -0.1196 -0.9928 43.2037 194.7143)" fill="none" stroke="#000000" cx="15.8" cy="98.7" rx="0.6" ry="0.7"/>
<ellipse transform="matrix(-0.9928 0.1196 -0.1196 -0.9928 160.9988 71.5962)" fill="none" stroke="#000000" cx="78.4" cy="40.6" rx="0.6" ry="0.7"/>
<path fill="none" stroke="#000000" d="M38.4,9.1c0,0.4,0.4,0.7,0.7,0.6c0.3,0,0.6-0.4,0.5-0.8c0-0.4-0.4-0.7-0.7-0.6
    C38.6,8.3,38.3,8.7,38.4,9.1z"/>
</svg>