<svg version="1.1"
     xmlns="http://www.w3.org/2000/svg" xmlns:xlink="http://www.w3.org/1999/xlink" xmlns:a="http://ns.adobe.com/AdobeSVGViewerExtensions/3.0/"
     x="0px" y="0px" width="106.5px" height="138.2px" viewBox="0 0 106.5 138.2" enable-background="new 0 0 106.5 138.2"
     xml:space="preserve">
<defs>
</defs>
<linearGradient id="SVGID_1_" gradientUnits="userSpaceOnUse" x1="35.6432" y1="119.914" x2="78.8063" y2="119.914">
    <stop  offset="0" style="stop-color:#BFBFBF"/>
    <stop  offset="1" style="stop-color:#E6E6E6"/>
</linearGradient>
<path fill="url(#SVGID_1_)" stroke="#58595B" stroke-width="0.7285" d="M35.6,103.4l3.5,29.7c0,0,4,2.5,8.7,3.5
    c4.7,0.9,10.7,2.4,16.4,0.2c5.6-2.2,12.9-6.9,13.5-8.2c0.5-1.3,1.1-26.6,1.1-26.6L35.6,103.4z"/>
<path fill="#58595B" d="M73.5,107.8c0,0-6.7,5.3-13.3,5.2c-6.7-0.2-11.8-0.2-15.2-1.8c-3.3-1.7-5.7-3.8-6.5-4"/>
<path fill="#4F727F" stroke="#374F56" d="M99,76.9c0,0,6.3,0.6,5.5,7c-0.5,4.1-6.1,4.9-7.4,3.9C95.7,86.7,99,76.9,99,76.9z"/>
<path fill="#4F727F" stroke="#374F56" stroke-width="1.0887" d="M8.7,79.7c0,0-4.7,1.6-3.7,7c1.3,6.6,6.5,4.9,6.5,4.9L8.7,79.7z"/>
<path fill="#444035" d="M95.8,70.2c0,0,2.8,0,3.6,0c0.8,0,2.3,0.2,2.3,1c0,0.8-1.3,14.9-1.3,14.9l-1.4,9.5c0,0-1.5,1-3.1,0.8
    c-1.5-0.2-4.1-1.7-4.1-1.7L95.8,70.2z"/>
<path fill="#444035" d="M12.4,74.2c0,0-1.8-0.8-3.6-0.7s-2.7,2.2-2.7,2.2l3.4,13.3l3.5,11c0,0,0.9,0.3,3,0c1-0.2,3.3-1.7,3.3-1.7
    L12.4,74.2z"/>
<linearGradient id="SVGID_2_" gradientUnits="userSpaceOnUse" x1="15.7916" y1="78.2784" x2="95.0143" y2="78.2784">
    <stop  offset="0" style="stop-color:#BFBFBF"/>
    <stop  offset="1" style="stop-color:#E6E6E6"/>
</linearGradient>
<path fill="url(#SVGID_2_)" stroke="#58595B" stroke-width="0.7285" d="M15.8,34.7l1.1,51l2.2,8.7c0,0,0.7,12.9,1.5,14.6
    c0.7,1.6,4.7,14.6,11.8,19.3c7.1,4.7,6.4,4.7,7.5,5.3c1.1,0.5-4.7-21.7-2.4-27c0,0,11.3,1.8,20.9,2.2c9.7,0.4,15.7-1.3,17.3-2
    c0,0,1.6,18.8-0.5,24c0,0,6.7-3.3,13.1-12.7c6.4-9.5,4.2-18,4-21.1c-0.2-3.1,1.5-13.5,1.5-13.5l1.3-24l-5.6-28.4L75,22.9l-50.4,3.3
    L15.8,34.7z"/>
<radialGradient id="SVGID_3_" cx="53.2693" cy="47.9422" r="50.4273" gradientUnits="userSpaceOnUse">
    <stop  offset="0" style="stop-color:#3D2D13"/>
    <stop  offset="1" style="stop-color:#391F14"/>
</radialGradient>
<path fill="url(#SVGID_3_)" stroke="#717677" stroke-width="0.4977" d="M31.2,7.7c0,0-5.8-12.1-23.8,13.4c0,0-8.3,12.6-7,16.3
    C1.6,41,2.3,51.7,3.3,57.5c1,5.8,1,14.3,4.6,16.8c3.6,2.4,4.4-1.2,4.4,4.1c0,5.3,3.2,14.3,7,17.2c0,0,0.1-5.3-1.5-12.1
    c-1.6-6.7-0.4-19.9,1.3-22.4c1.6-2.5,2.6-3.3,2.6-4.6s-3.5-6-0.9-12.6c2.5-6.6,0.4-10.4,4.6-11.5c4.2-1.1,22,3.3,24,3.1
    c2-0.2,7.6-1.8,14.4-2.9c6.7-1.1,6.9-5.3,11.5-3.6c4.6,1.6,10,4.2,11.8,13.8c1.8,9.7-0.9,9.7,1.3,13.7c2.2,4,4.6,12.2,4.7,17.7
    c0.2,5.5-0.9,12-0.4,15.3c0,0,2.2-2.5,4-5.5c1.8-2.9-0.4-12.4,0-13.7c0,0,5.5,1.6,6.4-7.8c0.9-9.5,4-11.1,3.1-15.7
    c-0.9-4.6-9.3-18.8-9.5-21.7C96.5,22.4,91,8,76.1,4.5C61.1,1.1,60.6,2.1,55.7,1.6C50.8,1.1,38.1-3.4,31.2,7.7z"/>
<g>
    
        <radialGradient id="SVGID_4_" cx="-478.1938" cy="-33.5813" r="7.3257" gradientTransform="matrix(1.1611 6.970000e-02 -6.580000e-02 1.0963 591.155 141.1841)" gradientUnits="userSpaceOnUse">
        <stop  offset="0" style="stop-color:#F7FFE7"/>
        <stop  offset="0.9755" style="stop-color:#EAF2CE"/>
    </radialGradient>
    <path fill="url(#SVGID_4_)" d="M29.6,70.5c-0.3,4.4,3.3,8.3,8,8.5c4.7,0.3,8.7-3.1,9-7.5c0.3-4.4-3.3-8.3-8-8.5
        C33.9,62.7,29.9,66.1,29.6,70.5z"/>
    
        <linearGradient id="SVGID_5_" gradientUnits="userSpaceOnUse" x1="-478.341" y1="-37.1478" x2="-477.7993" y2="-41.1722" gradientTransform="matrix(1.1611 6.970000e-02 -6.580000e-02 1.0963 591.155 141.1841)">
        <stop  offset="0" style="stop-color:#FFFFFF;stop-opacity:0.21"/>
        <stop  offset="1" style="stop-color:#E7FFF8;stop-opacity:0.9386"/>
    </linearGradient>
    <path fill="url(#SVGID_5_)" d="M29.7,68.6c0,0,5.8-2.2,10.3-2.1c4.5,0.2,6.2,1.9,6.2,1.9l-2.8-3.7l-3.8-2l-3.1,0.1l-3.9,1.4
        L29.7,68.6z"/>
    
        <radialGradient id="SVGID_6_" cx="-478.4018" cy="-34.6264" r="4.3103" gradientTransform="matrix(1.1611 6.970000e-02 -6.580000e-02 1.0963 591.155 141.1841)" gradientUnits="userSpaceOnUse">
        <stop  offset="0" style="stop-color:#8A5222"/>
        <stop  offset="1" style="stop-color:#000000"/>
    </radialGradient>
    <path fill="url(#SVGID_6_)" stroke="#000000" stroke-width="0.2" d="M41.9,70.9c-0.1,2.3-2,4-4.2,3.9c-2.2-0.1-3.9-2.1-3.7-4.4
        c0.1-2.3,2-4,4.2-3.9C40.4,66.6,42,68.6,41.9,70.9z"/>
    <path d="M39.8,70.2c-0.1,0.9-0.8,1.6-1.7,1.5c-0.9-0.1-1.6-0.8-1.5-1.7c0.1-0.9,0.8-1.6,1.7-1.5C39.1,68.5,39.8,69.3,39.8,70.2z"/>
    
        <radialGradient id="SVGID_7_" cx="-477.8835" cy="-34.3342" r="0.6034" fx="-477.2802" fy="-34.3384" gradientTransform="matrix(1.1611 6.970000e-02 -6.580000e-02 1.0963 591.155 141.1841)" gradientUnits="userSpaceOnUse">
        <stop  offset="0" style="stop-color:#FFFFFF"/>
        <stop  offset="1" style="stop-color:#FFFFFF;stop-opacity:0.21"/>
    </radialGradient>
    <path fill="url(#SVGID_7_)" d="M39.2,70.3c0,0.4-0.4,0.6-0.7,0.6c-0.4,0-0.7-0.3-0.7-0.7c0-0.3,0.3-0.6,0.7-0.6
        C38.9,69.6,39.2,69.9,39.2,70.3z"/>
    
        <radialGradient id="SVGID_8_" cx="-1600.6801" cy="334.2037" r="0.5439" fx="-1600.1362" fy="334.1999" gradientTransform="matrix(2.3288 0.1397 -0.1757 2.93 3826.5083 -687.4256)" gradientUnits="userSpaceOnUse">
        <stop  offset="0" style="stop-color:#FFFFFF"/>
        <stop  offset="1" style="stop-color:#FFFFFF;stop-opacity:0.21"/>
    </radialGradient>
    <path fill="url(#SVGID_8_)" d="M41.3,68.2c-0.1,0.8-0.7,1.5-1.4,1.5c-0.7,0-1.2-0.8-1.2-1.6c0-0.8,0.7-1.5,1.4-1.5
        C40.8,66.6,41.4,67.4,41.3,68.2z"/>
    <g>
        <path fill="#918C80" stroke="#231A18" stroke-width="0.5251" d="M37.7,68.1c4.2-0.2,8.2,2.3,9.3,3.1c0-4.4-3.7-8.2-8.4-8.4
            c-4.9-0.3-9.2,3.2-9.4,7.9c0,0.4,0,0.8,0,1.1C30.3,71.1,33.2,68.3,37.7,68.1z"/>
        <path fill="#918C80" stroke="#231A18" stroke-width="0.5251" d="M37.6,72.1c-2.6,0.1-7.3-0.2-8.4-0.3c0.4,4.1,3.9,7.5,8.4,7.7
            c4.9,0.3,9.2-3.2,9.4-7.9c0-0.1,0-0.2,0-0.2C45,71.8,40.4,72,37.6,72.1z"/>
    </g>
    <path fill="#444035" d="M47.3,71.8c-0.3,5.1-4.7,9-9.8,8.7c-5.1-0.3-9-4.7-8.7-9.8c0.3-5.1,4.7-9,9.8-8.7
        C43.7,62.3,47.6,66.7,47.3,71.8z M38.4,63.1c-4.4-0.3-8.2,3.1-8.5,7.5c-0.3,4.4,3.1,8.2,7.5,8.5c4.4,0.3,8.2-3.1,8.5-7.5
        C46.3,67.2,42.9,63.4,38.4,63.1z"/>
</g>
<g>
    
        <radialGradient id="SVGID_9_" cx="-812.7371" cy="-336.1403" r="7.4369" gradientTransform="matrix(1.149 0.3226 -0.3185 1.1227 902.6714 711.1365)" gradientUnits="userSpaceOnUse">
        <stop  offset="0" style="stop-color:#F7FFE7"/>
        <stop  offset="0.9755" style="stop-color:#EAF2CE"/>
    </radialGradient>
    <path fill="url(#SVGID_9_)" d="M67.4,69.2c-1.3,4.6,1.5,9.4,6.2,10.7c4.7,1.3,9.6-1.3,10.9-5.9c1.3-4.6-1.5-9.4-6.2-10.7
        C73.5,61.9,68.7,64.6,67.4,69.2z"/>
    
        <radialGradient id="SVGID_10_" cx="-2366.1072" cy="386.8959" r="0.6287" fx="-2365.4785" fy="386.8916" gradientTransform="matrix(6.1983 1.7405 -1.6835 5.9368 15389.9014 1892.1042)" gradientUnits="userSpaceOnUse">
        <stop  offset="0" style="stop-color:#FFFFFF"/>
        <stop  offset="1" style="stop-color:#FFFFFF;stop-opacity:0.21"/>
    </radialGradient>
    <path fill="url(#SVGID_10_)" d="M76.4,71.7c-0.6,2-2.8,3.1-4.9,2.5c-2.2-0.6-3.4-2.7-2.9-4.7c0.6-2,2.8-3.1,4.9-2.5
        C75.7,67.7,77,69.7,76.4,71.7z"/>
    
        <radialGradient id="SVGID_11_" cx="-1056.3484" cy="-287.5034" r="5.5498" gradientTransform="matrix(1.2788 0.3591 -0.3369 1.1878 1330.1299 791.0367)" gradientUnits="userSpaceOnUse">
        <stop  offset="0" style="stop-color:#8A5222"/>
        <stop  offset="1" style="stop-color:#000000"/>
    </radialGradient>
    <path fill="url(#SVGID_11_)" stroke="#000000" stroke-width="0.2" d="M79.4,71.8c-0.6,2.3-2.9,3.6-5.1,3c-2.2-0.6-3.4-3-2.8-5.2
        c0.7-2.3,2.9-3.6,5.1-3C78.8,67.2,80.1,69.5,79.4,71.8z"/>
    <path d="M76.7,70.6c-0.2,0.8-1.1,1.3-1.9,1.1c-0.8-0.2-1.3-1.1-1.1-1.9c0.2-0.8,1.1-1.3,1.9-1.1C76.5,68.9,76.9,69.8,76.7,70.6z"/>
    
        <radialGradient id="SVGID_12_" cx="-1056.4066" cy="-288.0669" r="0.703" fx="-1055.7036" fy="-288.0718" gradientTransform="matrix(1.2788 0.3591 -0.3369 1.1878 1330.1299 791.0367)" gradientUnits="userSpaceOnUse">
        <stop  offset="0" style="stop-color:#FFFFFF"/>
        <stop  offset="1" style="stop-color:#FFFFFF;stop-opacity:0.21"/>
    </radialGradient>
    <path fill="url(#SVGID_12_)" d="M77.1,69.7c-0.1,0.4-0.6,0.7-1.1,0.5c-0.5-0.1-0.8-0.6-0.7-1.1c0.1-0.4,0.6-0.7,1.1-0.6
        C76.9,68.8,77.2,69.3,77.1,69.7z"/>
    <g>
        <path fill="#918C80" stroke="#231A18" stroke-width="0.4767" d="M75.2,72.7c-2.4,0-4.4-0.1-8.1-0.9c0.2,3.4,2.6,6.5,6.2,7.5
            c4.5,1.3,9.2-1.3,10.4-5.7c0.2-0.7,0.3-1.5,0.3-2.2C83,71.7,77.4,72.7,75.2,72.7z"/>
        <path fill="#918C80" stroke="#231A18" stroke-width="0.4767" d="M75,68.1c3.9,0.2,8.2,2.8,9,3.3c0-3.6-2.5-6.9-6.2-7.9
            c-4.5-1.3-9.2,1.3-10.4,5.7c-0.2,0.9-0.3,1.8-0.3,2.6C67.6,71.2,71,67.9,75,68.1z"/>
    </g>
    <path fill="#444035" d="M84.6,74c-1.4,5-6.7,7.9-11.8,6.4c-5.1-1.4-8.1-6.6-6.7-11.6c1.4-5,6.7-7.9,11.8-6.4
        C83.1,63.8,86.1,69,84.6,74z M77.7,63.7c-4.4-1.2-8.9,1.2-10.1,5.5c-1.2,4.3,1.4,8.7,5.7,10c4.4,1.2,8.9-1.2,10.1-5.5
        C84.6,69.4,82.1,64.9,77.7,63.7z"/>
</g>
<radialGradient id="SVGID_13_" cx="76.7693" cy="63.152" r="8.1069" gradientUnits="userSpaceOnUse">
    <stop  offset="0" style="stop-color:#3D2D13"/>
    <stop  offset="1" style="stop-color:#391F14"/>
</radialGradient>
<path fill="url(#SVGID_13_)" stroke="#717677" stroke-width="0.4977" d="M65.5,63.8c0,0,1,1.7,2.4,1c1.5-0.7,2.4-1,6.8-1
    c4.4,0,9,0.2,10.2,0.2c1.2,0,3.2-1.2,3.2-1.2s0.5-1.2-1.5-1.5c-1.9-0.2-7,0.2-9.7,0C74.2,61.2,69.8,61.6,65.5,63.8z"/>
<radialGradient id="SVGID_14_" cx="35.8553" cy="62.3219" r="8.7407" gradientUnits="userSpaceOnUse">
    <stop  offset="0" style="stop-color:#3D2D13"/>
    <stop  offset="1" style="stop-color:#391F14"/>
</radialGradient>
<path fill="url(#SVGID_14_)" stroke="#717677" stroke-width="0.4977" d="M48,64.6c0,0-4.6-3.2-10.9-4.4c-6.3-1.2-12.4,1.2-12.9,1.9
    c-0.5,0.7-0.7,2.7,0.2,2.7c1,0,7-1.9,9.2-1.9c2.2,0,9.5,1.9,10.9,1.9C46,64.8,48,64.6,48,64.6z"/>
<path fill="#444035" stroke="#444035" d="M66.2,95.9c0.1-1.7,0.1-2.4,0.2-3.8c0-0.1,0.1-0.5-1.1-0.8c-2.3-0.6-6.2-1.2-9.6-1.3
    c-4.2-0.2-7.3,0.1-9,0.5c-0.6,0.1-0.7,0.4-0.7,1.1c-0.1,1.3-0.1,2.1-0.2,4c0,0.2,0.1,1.5,1,1.4c2.2-0.1,5.1-0.4,8.4-0.2
    c3.3,0.2,7,0.8,8.7,1.1C65.5,98.1,66.1,97.3,66.2,95.9z"/>
<path fill="#939393" stroke="#514E44" stroke-width="0.9897" d="M67.2,94.9c0.1-1.7,0.1-2.4,0.2-3.8c0-0.1,0.1-0.5-1.1-0.8
    c-2.3-0.6-6.2-1.2-9.6-1.3c-4.2-0.2-7.3,0.1-9,0.5c-0.6,0.1-0.7,0.4-0.7,1.1c-0.1,1.3-0.1,2.1-0.2,4c0,0.2,0.1,1.5,1,1.4
    c2.2-0.1,5.1-0.4,8.4-0.2c3.3,0.2,7,0.8,8.7,1.1C66.5,97.1,67.1,96.3,67.2,94.9z"/>
<path fill="#444035" d="M55.4,87.7c0,0-2.3,1.7-2.9,3.4c-0.6,1.7-0.1,4.7,2,5.9c2.1,1.2,4.3,0.8,5.4-0.5c1.3-1.4,1.9-2.1,1.9-2.1
    L58,89.1L55.4,87.7z"/>
<ellipse transform="matrix(-0.6265 0.7794 -0.7794 -0.6265 165.6392 103.8924)" fill="#939393" stroke="#514E44" stroke-width="1.25" cx="57.9" cy="91.6" rx="4.5" ry="4.4"/>
<ellipse transform="matrix(0.9927 0.1204 -0.1204 0.9927 12.7703 -8.6235)" fill="none" stroke="#000000" stroke-width="0.9834" cx="77.7" cy="101.3" rx="0.6" ry="0.7"/>
<ellipse transform="matrix(0.9927 0.1204 -0.1204 0.9927 5.1762 -8.9616)" fill="none" stroke="#000000" stroke-width="0.9834" cx="76.7" cy="38.3" rx="0.6" ry="0.7"/>
<ellipse transform="matrix(0.9927 0.1204 -0.1204 0.9927 1.9075 -2.8741)" fill="none" stroke="#000000" stroke-width="0.9834" cx="24.7" cy="14.3" rx="0.6" ry="0.7"/>
<ellipse transform="matrix(0.9927 0.1204 -0.1204 0.9927 12.5705 -3.3175)" fill="none" stroke="#000000" stroke-width="0.9834" cx="33.7" cy="102.3" rx="0.6" ry="0.7"/>
</svg>