<svg version="1.1"
     xmlns="http://www.w3.org/2000/svg" xmlns:xlink="http://www.w3.org/1999/xlink" xmlns:a="http://ns.adobe.com/AdobeSVGViewerExtensions/3.0/"
     x="0px" y="0px" width="105.7px" height="156.4px" viewBox="0 0 105.7 156.4" enable-background="new 0 0 105.7 156.4"
     xml:space="preserve">
<defs>
</defs>
<linearGradient id="SVGID_1_" gradientUnits="userSpaceOnUse" x1="38.6282" y1="148.1364" x2="71.973" y2="148.1364">
    <stop  offset="0" style="stop-color:#BFBFBF"/>
    <stop  offset="1" style="stop-color:#E6E6E6"/>
</linearGradient>
<path fill="url(#SVGID_1_)" stroke="#A7A9AC" stroke-width="0.75" d="M43.1,140.2c0,0-2.7,2.7-3.8,5c-1,2.3-1.1,6.9,0.5,8.5
    c1.5,1.5,9.1,2.3,17.2,2.3c7.7,0,14.1-0.7,14.4-2.1c0.6-2.4,0.8-3.9,0.3-6.8c-0.4-2.4-6.2-5.1-7.7-5.6
    C62.5,141,43.1,140.2,43.1,140.2z"/>
<path fill="#444035" d="M37.5,134.7c0,0-1,4.7,0.1,7.8c1,3.1,2.1,3.4,4.8,3.8c6.2,0.9,22.1,0.5,25.5-0.1c3.4-0.7,3.8-1.7,4.4-3.7
    c0.6-2.1,0.3-8.3-1-9.8c-1.3-1.5-20.1,4.3-20.1,4.3L37.5,134.7z"/>
<linearGradient id="SVGID_2_" gradientUnits="userSpaceOnUse" x1="51.432" y1="107.4554" x2="51.432" y2="128.4835">
    <stop  offset="0" style="stop-color:#BFBFBF"/>
    <stop  offset="1" style="stop-color:#E6E6E6"/>
</linearGradient>
<path fill="url(#SVGID_2_)" stroke="#939598" d="M14.6,97.3c0,0,2.5,19,13,32.2c8.3,10.4,29.6,5.5,41.3,2.8
    c11.8-2.7,12.2-8.6,15.2-18.5c2.9-9.9,4.2-23.1,4.2-23.1l-29.7,6.7L14.6,97.3z"/>
<polygon fill="#FFFFFF" points="35.3,111.8 30.3,104.8 34.8,101.5 57.9,103.3 73.9,99.8 72.6,107 61.6,118 "/>
<path fill="#444035" d="M6.4,69.5c0,0-2.3-1.4-3-0.2c-0.7,1.2-1.2,8.7-0.5,13.9c0.7,5.2,1.8,7,2.9,7.8C6.8,92,8,92.7,8.9,91.6
    S7.7,70.8,7.7,70.8L6.4,69.5z"/>
<linearGradient id="SVGID_3_" gradientUnits="userSpaceOnUse" x1="50.2318" y1="33.9992" x2="50.2318" y2="99.1579">
    <stop  offset="0" style="stop-color:#BFBFBF"/>
    <stop  offset="1" style="stop-color:#E6E6E6"/>
</linearGradient>
<path fill="url(#SVGID_3_)" stroke="#A7A9AC" d="M94.2,53.5c0,0-1.3,34.2-3.5,37.7c-2.1,3.5-2.7,5.6-11.8,9.1
    c-9.1,3.5-16.3,7-28.6,7.2c-12.3,0.3-33.2-4.5-38-8.3c-4.8-3.7-5.9-16.6-5.9-23.5c0-7-0.3-30.5-0.3-30.5l7.2-19.5L45.8,15L83,16
    L94.2,53.5z"/>
<linearGradient id="SVGID_4_" gradientUnits="userSpaceOnUse" x1="52.0233" y1="165.5395" x2="52.0233" y2="123.9695">
    <stop  offset="0" style="stop-color:#BFBFBF"/>
    <stop  offset="1" style="stop-color:#E6E6E6"/>
</linearGradient>
<path fill="url(#SVGID_4_)" stroke="#A7A9AC" d="M31,106.8c0,0,3.4,22.1,4.8,25.6c1.6,3.7,4.5,5.5,5.6,5.7c3.1,0.6,6.3,1,14.6,0.6
    c5.8-0.3,8.4-0.8,12.4-2.8c3.3-1.7,4.6-25.3,4.6-28.2c0-2.9,0-2.9,0-2.9s-8,6.4-19,7.2C41.7,112.8,31,106.8,31,106.8z"/>
<radialGradient id="SVGID_5_" cx="-12.4548" cy="91.5565" r="6.3386" gradientTransform="matrix(1.1914 6.990000e-02 -7.150000e-02 1.1648 90.9771 -33.9676)" gradientUnits="userSpaceOnUse">
    <stop  offset="0" style="stop-color:#F7FFE7"/>
    <stop  offset="0.9755" style="stop-color:#EAF2CE"/>
</radialGradient>
<path fill="url(#SVGID_5_)" d="M62,71.4c-0.2,4.1,2.9,7.6,7.1,7.8c4.2,0.2,7.8-2.9,8-6.9c0.3-4.1-2.9-7.6-7.1-7.8
    C65.9,64.2,62.3,67.3,62,71.4z"/>
<radialGradient id="SVGID_6_" cx="-43.0397" cy="92.56" r="6.4954" gradientTransform="matrix(1.1611 6.970000e-02 -6.580000e-02 1.0963 87.7912 -24.6294)" gradientUnits="userSpaceOnUse">
    <stop  offset="0" style="stop-color:#F7FFE7"/>
    <stop  offset="0.9755" style="stop-color:#EAF2CE"/>
</radialGradient>
<path fill="url(#SVGID_6_)" d="M24.2,73.4c-0.2,3.9,2.9,7.3,7.1,7.6c4.2,0.2,7.7-2.7,8-6.7c0.2-3.9-3-7.3-7.1-7.6
    C28,66.5,24.4,69.5,24.2,73.4z"/>
<linearGradient id="SVGID_7_" gradientUnits="userSpaceOnUse" x1="-43.1698" y1="89.3988" x2="-42.6896" y2="85.831" gradientTransform="matrix(1.1611 6.970000e-02 -6.580000e-02 1.0963 87.7912 -24.6294)">
    <stop  offset="0" style="stop-color:#FFFFFF;stop-opacity:0.21"/>
    <stop  offset="1" style="stop-color:#E7FFF8;stop-opacity:0.9386"/>
</linearGradient>
<path fill="url(#SVGID_7_)" d="M24.2,71.7c0,0,5.1-2,9.1-1.8c4,0.2,5.5,1.7,5.5,1.7l-2.5-3.3L33,66.5l-2.7,0.1l-3.5,1.2L24.2,71.7z"
    />
<radialGradient id="SVGID_8_" cx="-43.2304" cy="90.5457" r="3.6291" gradientTransform="matrix(1.1611 6.970000e-02 -6.580000e-02 1.0963 87.7912 -24.6294)" gradientUnits="userSpaceOnUse">
    <stop  offset="0" style="stop-color:#8A5222"/>
    <stop  offset="1" style="stop-color:#000000"/>
</radialGradient>
<path fill="url(#SVGID_8_)" stroke="#000000" stroke-width="0.2" d="M34.9,72.4c-0.1,1.9-1.7,3.4-3.6,3.3c-1.8-0.1-3.3-1.8-3.1-3.7
    c0.1-1.9,1.7-3.4,3.6-3.3C33.7,68.9,35.1,70.5,34.9,72.4z"/>
<ellipse transform="matrix(0.9982 6.041078e-02 -6.041078e-02 0.9982 4.4257 -1.775)" cx="31.6" cy="72.3" rx="1.5" ry="1.5"/>
<path fill="#918C80" stroke="#231A18" stroke-width="0.5" d="M24,75.1c0,0,5.7-0.9,8.8-0.8c0.7,0,6.5,0,6.5,0l-0.4,2.4l-2.5,3.3
    l-5.3,1.6l-2.2-0.5l-3.3-1.9l-1.7-3.8L24,75.1z"/>
<radialGradient id="SVGID_9_" cx="-42.8382" cy="90.0272" r="0.5085" fx="-42.3298" fy="90.0237" gradientTransform="matrix(1.1611 6.970000e-02 -6.580000e-02 1.0963 87.7912 -24.6294)" gradientUnits="userSpaceOnUse">
    <stop  offset="0" style="stop-color:#FFFFFF"/>
    <stop  offset="1" style="stop-color:#FFFFFF;stop-opacity:0.21"/>
</radialGradient>
<path fill="url(#SVGID_9_)" d="M32.7,71.1c0,0.3-0.3,0.5-0.6,0.5c-0.3,0-0.6-0.3-0.6-0.6c0-0.3,0.3-0.5,0.6-0.5
    C32.5,70.5,32.7,70.8,32.7,71.1z"/>
<radialGradient id="SVGID_10_" cx="97.9831" cy="120.3313" r="0.5091" fx="98.4922" fy="120.3277" gradientTransform="matrix(2.3288 0.1397 -0.1757 2.93 -172.5097 -296.2958)" gradientUnits="userSpaceOnUse">
    <stop  offset="0" style="stop-color:#FFFFFF"/>
    <stop  offset="1" style="stop-color:#FFFFFF;stop-opacity:0.21"/>
</radialGradient>
<path fill="url(#SVGID_10_)" d="M35.6,70c0,0.8-0.6,1.4-1.3,1.4c-0.7,0-1.1-0.7-1.1-1.5c0-0.8,0.6-1.4,1.3-1.4
    C35.2,68.5,35.7,69.2,35.6,70z"/>
<radialGradient id="SVGID_11_" cx="189.095" cy="129.9856" r="0.5359" fx="189.6308" fy="129.9819" gradientTransform="matrix(6.427 0.3773 -0.3774 6.1593 -1099.0747 -800.5002)" gradientUnits="userSpaceOnUse">
    <stop  offset="0" style="stop-color:#FFFFFF"/>
    <stop  offset="1" style="stop-color:#FFFFFF;stop-opacity:0.21"/>
</radialGradient>
<path fill="url(#SVGID_11_)" d="M70.4,71.5c-0.1,1.7-1.7,3.1-3.6,3c-1.9-0.1-3.3-1.6-3.2-3.4c0.1-1.7,1.7-3.1,3.6-3
    C69.1,68.3,70.5,69.8,70.4,71.5z"/>
<radialGradient id="SVGID_12_" cx="-37.7423" cy="93.9676" r="4.2333" gradientTransform="matrix(1.326 7.780000e-02 -7.560000e-02 1.2323 126.1142 -43.1757)" gradientUnits="userSpaceOnUse">
    <stop  offset="0" style="stop-color:#8A5222"/>
    <stop  offset="1" style="stop-color:#000000"/>
</radialGradient>
<path fill="url(#SVGID_12_)" stroke="#000000" stroke-width="0.2" d="M71.7,70.3c-0.1,1.8-1.6,3.2-3.3,3.1c-1.7-0.1-3-1.6-2.9-3.4
    c0.1-1.8,1.6-3.2,3.3-3.1C70.5,67,71.8,68.5,71.7,70.3z"/>
<path d="M69.8,70.4c0,0.8-0.7,1.4-1.5,1.3c-0.8,0-1.3-0.7-1.3-1.5c0-0.8,0.7-1.4,1.5-1.3C69.3,68.9,69.8,69.6,69.8,70.4z"/>
<path fill="#918C80" stroke="#231A18" stroke-width="0.5" d="M61.9,73.3c0,0,2.7-0.5,5.1-0.7c2.2-0.2,9.8,0.8,9.8,0.8L76.2,75
    l-2.7,3.1l-4,1.3l-4.1-1l-3.2-2.8L61.9,73.3z"/>
<path fill="#918C80" stroke="#231A18" stroke-width="0.5" d="M76,68.3c0,0-5.2-0.9-7.6-1.1c-3.8-0.4-6.3,1.4-6.3,1.4L63,67l2.7-2
    l4-0.7l3,0.8l2.1,1.4L76,68.3z"/>
<path fill="#918C80" stroke="#231A18" stroke-width="0.5" d="M38.3,70.3c0,0-4.9-1.4-7.3-0.9C27.7,70,24.1,72,24.1,72l1.6-3.1l2.7-2
    l4-0.7l2.9,1l2.1,1.5L38.3,70.3z"/>
<path fill="#444035" d="M77.3,72.3c-0.3,4.4-4.1,7.8-8.7,7.5c-4.5-0.3-7.9-4.1-7.7-8.5c0.3-4.4,4.1-7.8,8.7-7.5
    C74.2,64.1,77.6,67.9,77.3,72.3z M69.7,64.9c-3.9-0.2-7.2,2.7-7.4,6.4c-0.2,3.8,2.7,7,6.6,7.3c3.9,0.2,7.2-2.7,7.4-6.4
    C76.5,68.4,73.5,65.2,69.7,64.9z"/>
<radialGradient id="SVGID_13_" cx="-37.7514" cy="94.429" r="0.5364" fx="-37.215" fy="94.4252" gradientTransform="matrix(1.326 7.780000e-02 -7.560000e-02 1.2323 126.1142 -43.1757)" gradientUnits="userSpaceOnUse">
    <stop  offset="0" style="stop-color:#FFFFFF"/>
    <stop  offset="1" style="stop-color:#FFFFFF;stop-opacity:0.21"/>
</radialGradient>
<path fill="url(#SVGID_13_)" d="M69.6,70.3c0,0.3-0.4,0.6-0.7,0.6c-0.4,0-0.7-0.3-0.7-0.7c0-0.3,0.4-0.6,0.7-0.6
    C69.3,69.6,69.6,69.9,69.6,70.3z"/>
<radialGradient id="SVGID_14_" cx="26.7596" cy="62.7037" r="9.4663" gradientUnits="userSpaceOnUse">
    <stop  offset="0" style="stop-color:#3D2D13"/>
    <stop  offset="1" style="stop-color:#391F14"/>
</radialGradient>
<path fill="url(#SVGID_14_)" stroke="#717677" stroke-width="0.75" d="M18.6,68.8c0,0-1.1-4,0-4.8c1.1-0.8,1.5-1.1,3.1-0.8
    c1.6,0.3,9.5-1.1,10.3-0.9c0.8,0.1,5.8,0.8,6.4,0c0.7-0.8,0-2,0-3.1c0-1.1-0.5-0.7-1.6-0.5c-1.1,0.1-4.5,1.5-5.2,0.3
    c-0.7-1.2-9.2-1.2-9.9-1.9c-0.7-0.7-4.4-0.7-5.5,1.1c-1.1,1.7-1.9,6.7-0.9,7.6C16.2,66.7,18.6,68.8,18.6,68.8z"/>
<radialGradient id="SVGID_15_" cx="72.7181" cy="57.5788" r="9.7272" gradientUnits="userSpaceOnUse">
    <stop  offset="0" style="stop-color:#3D2D13"/>
    <stop  offset="1" style="stop-color:#391F14"/>
</radialGradient>
<path fill="url(#SVGID_15_)" stroke="#717677" stroke-width="0.75" d="M59.6,59c-0.1,0.8-0.3,1.6,3.1,1.9c3.3,0.3,8.6,0.3,10.4-0.5
    c1.9-0.8,6.8-2,8.2-1.5c1.3,0.5,1.3,2.4,2.7,2.7c1.3,0.3,0.9,0.3,1.6-1.1c0.7-1.3-0.1-3.7-0.8-4.8c-0.7-1.1-0.1-2.7-3.2-2.1
    c-3.1,0.5-7.6,3.7-9.4,3.7C70.5,57.3,59.9,57.3,59.6,59z"/>
<radialGradient id="SVGID_16_" cx="79.6919" cy="87.3979" r="7.4373" gradientUnits="userSpaceOnUse">
    <stop  offset="0" style="stop-color:#E3D7DD"/>
    <stop  offset="1" style="stop-color:#E6E6E6"/>
</radialGradient>
<path fill="url(#SVGID_16_)" stroke="#D1D3D4" stroke-width="0.5" d="M79.7,79.5c0,0-7.1,0.4-7,8.2c0.2,7.8,7,7.7,8.4,7.5
    c1.4-0.2,6.1-1.8,5.5-8C86.1,81,80.9,79.5,79.7,79.5z"/>
<radialGradient id="SVGID_17_" cx="21.3883" cy="89.5578" r="7.0086" gradientUnits="userSpaceOnUse">
    <stop  offset="0" style="stop-color:#E3D7DD"/>
    <stop  offset="1" style="stop-color:#E6E6E6"/>
</radialGradient>
<path fill="url(#SVGID_17_)" stroke="#D1D3D4" stroke-width="0.5" d="M20.3,81.6c4.8-0.4,7.3,6.1,7,9.1c-0.4,3-0.7,6.8-5,6.8
    c-4.3,0-7.3-5-6.8-9.3C16.1,83.9,18,81.8,20.3,81.6z"/>
<radialGradient id="SVGID_18_" cx="52.8383" cy="37.2558" r="48.2338" fx="99.9836" fy="27.0667" gradientTransform="matrix(1 0 0 0.6535 0 12.9081)" gradientUnits="userSpaceOnUse">
    <stop  offset="0" style="stop-color:#3D2D13"/>
    <stop  offset="1" style="stop-color:#391F14"/>
</radialGradient>
<path fill="url(#SVGID_18_)" stroke="#717677" d="M98.7,67.7c0,0,3.7-4.5,4-8c0.3-3.5,0.3-6.7,1.1-9.6c0.8-2.9,2.2-12.6,0.8-16.1
    c-1.3-3.5-2-8.1-8.9-17.3C88.2,6.5,82,1.4,71,1.7c-8.1,0.2-10.6,2.7-11.4,1.9c-0.8-0.8-14.4-3.7-22.4-2.9c-8,0.8-23.8,4.3-31.5,17.9
    C-2.1,32.2,1,35.7,1.6,44c0.5,8.3-0.5,12.8-0.2,15.7c0.3,2.9,4.5,12.8,5.3,14.2c0.8,1.3,1.9-7.5,2.9-13.4c1.1-5.9,4.3-14.4,4-16.8
    c-0.3-2.4,1.1-8,2.1-6.7c1.1,1.3-0.3,5.8,1.8,6.1c2.1,0.3,11.3,2.2,15.3-2.6c4-4.8,8.8-9.4,8.8-7.2c0,2.1,1,4.8-0.6,6.1
    c-1.6,1.3-4,3.5-4,3.5s3.7,1.1,5-0.8c1.3-1.9,2.9-3.9,5-5.8c2.1-1.9,5.6-5.8,12-8.2c6.4-2.4,7.2-2.8,16.6-1.3
    C83.5,28,87.5,38.6,88.8,45c1.3,6.4,3.5,25.7,4.8,27.5C94.9,74.4,98.7,67.7,98.7,67.7z"/>
<path fill="#444035" d="M100.4,61.3c0,0-1.9-1.2-4.6-1.2c-2.7,0-4.6,0.1-4.6,0.1s-1.4,2.8-1.7,4.9c-0.4,2.4-0.6,6.2-0.4,9.8
    c0.2,5.2,1.1,10.4,2.6,11.5c1,0.8,7.7,0.5,8.5-0.8c0.8-1.2-2.3-5.3-2.3-5.3l-0.4-13.5l2.3-4.3L100.4,61.3z"/>
<path fill="#918C80" d="M100.4,61.3c-1-0.2-5.2,3.5-4.6,13.2c0.5,9.7,2.9,11.2,3.9,11.2c2.1,0,2.6-5.9,2.4-7.8
    C101.9,75.9,102.6,61.7,100.4,61.3z"/>
<path fill="#444035" d="M104,66.7c0,0-0.4-0.4-1.6-0.4c-1.2,0-2.1,0-2.5,0.3c-0.4,0.3-1.5,2.5-1.3,7.3c0.2,4.5,1.8,6.9,3.3,6.9
    c1.5,0,2.6-3.3,2.8-4.1c1.8-7.3-1.1-4.2-1.1-4.2L104,66.7z"/>
<path fill="#918C80" d="M101.4,72c0,2.5,0.4,5.9,2.4,5.9c1.2,0,1.8-4,1.7-6.1c-0.2-2.1-0.8-5.1-1.6-5.2
    C102.3,66.6,101.4,69.6,101.4,72z"/>
<path fill="#444035" d="M39.8,74.5c-0.3,4.5-4.2,8-8.7,7.7c-4.5-0.3-8-4.2-7.7-8.7c0.3-4.5,4.2-8,8.7-7.7
    C36.7,66.1,40.1,70,39.8,74.5z M32,66.8c-3.9-0.2-7.3,2.7-7.5,6.7c-0.2,3.9,2.8,7.3,6.7,7.5c3.9,0.2,7.3-2.7,7.5-6.7
    C38.9,70.4,35.9,67.1,32,66.8z"/>
<linearGradient id="SVGID_19_" gradientUnits="userSpaceOnUse" x1="65.0564" y1="122.7485" x2="79.9828" y2="116.5635" gradientTransform="matrix(0.9973 7.300000e-02 -7.300000e-02 0.9973 -7.9829 -43.706)">
    <stop  offset="0" style="stop-color:#BFBFBF"/>
    <stop  offset="1" style="stop-color:#E6E6E6"/>
</linearGradient>
<polygon fill="url(#SVGID_19_)" points="51.3,65.9 48.9,66.9 44.2,93.4 51.7,98.5 59.3,96.1 60.4,94 "/>
<path fill="#939393" d="M52,67.2c0,0,0.1-2.3-1.3-2.3c-1.4,0-2.9,2-5.6,9c-2.7,7-4.2,19.1-4,20c0.2,0.9-0.2,2.9,2.3,4.4
    c2.5,1.6,6.3,3.9,11.4,2c5.1-1.9,5.7-6.3,5.7-6.3s0.7,1.7-2.8,2.3c-3.5,0.6-7.7,0.8-8.8-1.3c-1.2-2.1,0.1-19.2,0.3-21.9
    c0.1-2.7,1.2-6.3,1.7-5.9C51.2,67.6,52,67.2,52,67.2z"/>
<ellipse transform="matrix(0.9982 5.987502e-02 -5.987502e-02 0.9982 6.7595 -1.8461)" fill="none" stroke="#000000" cx="34.2" cy="111.9" rx="0.7" ry="0.8"/>
<ellipse transform="matrix(0.9982 5.987502e-02 -5.987502e-02 0.9982 6.7854 -4.0427)" fill="none" stroke="#000000" cx="70.9" cy="111.2" rx="0.7" ry="0.8"/>
<ellipse transform="matrix(0.9982 5.987502e-02 -5.987502e-02 0.9982 5.0961 -4.6697)" fill="none" stroke="#000000" cx="80.5" cy="82.7" rx="0.7" ry="0.8"/>
<ellipse transform="matrix(0.9982 5.987502e-02 -5.987502e-02 0.9982 5.6609 -4.5159)" fill="none" stroke="#000000" cx="78.2" cy="92.2" rx="0.7" ry="0.8"/>
<ellipse transform="matrix(0.9982 5.987900e-02 -5.987900e-02 0.9982 5.6426 -1.3154)" fill="none" stroke="#000000" cx="24.8" cy="93.5" rx="0.7" ry="0.8"/>
<ellipse transform="matrix(0.9982 5.987502e-02 -5.987502e-02 0.9982 5.1538 -0.9254)" fill="none" stroke="#000000" cx="18" cy="85.5" rx="0.7" ry="0.8"/>
<path fill="#717677" d="M30.8,106.3c0,0-0.7,0.7,0.6,1.2c3.2,1.6,11.6,6.5,21.7,6.4c13.6-0.1,20.4-9.4,20.4-9.4s0.1-0.7-0.7-0.2
    c-4.4,2.9-11.7,7.3-20.9,7.2C40.2,111.4,30.8,106.3,30.8,106.3z"/>
</svg>