<svg xmlns="http://www.w3.org/2000/svg" width="101.5" height="162.5" viewBox="0 0 101.5 162.5">
  <linearGradient id="a" gradientUnits="userSpaceOnUse" x1="45.65" y1="145.961" x2="59.847" y2="145.961">
    <stop offset="0" stop-color="#9C9C9C"/>
    <stop offset="1" stop-color="#E6E6E6"/>
  </linearGradient>
  <path fill="url(#a)" stroke="#8A8C8E" stroke-width=".75" d="M45.7 131.8l.8 26.9s1.9 3.8 6.2 3.5c4.3-.3 6.3-4.5 6.3-4.5l1-27.5-11-.3-3.3 1.9z"/>
  <linearGradient id="b" gradientUnits="userSpaceOnUse" x1="56.013" y1="125.089" x2="56.013" y2="78.251">
    <stop offset="0" stop-color="#BFBFBF"/>
    <stop offset="1" stop-color="#E6E6E6"/>
  </linearGradient>
  <path fill="url(#b)" stroke="#A7A9AC" d="M15.5 64.3l.3 16.7 8.8 21.6 21.3 21.1 35.6.5L93 100.7s-.3-11 1.3-13.3c1.7-2.3 1.2-11.9-2.1-16.6-1.3-2 4.3-5.5 4.3-16s-.3-17.6-.3-17.6l-7.5-10.5-3.3-7.8-27.8-5.8-24.3 1.3S17 25.4 16.5 27.2c-.5 1.7-1 37.1-1 37.1z"/>
  <radialGradient id="c" cx="45.35" cy="86.192" r="7.135" gradientTransform="matrix(1.191 .07 -.071 1.165 34.428 -31.485)" gradientUnits="userSpaceOnUse">
    <stop offset="0" stop-color="#F7FFE7"/>
    <stop offset=".976" stop-color="#EAF2CE"/>
  </radialGradient>
  <path fill="url(#c)" d="M73.8 71.6c-.3 4.6 3.3 8.5 8 8.8 4.7.3 8.7-3.2 9-7.8.3-4.6-3.3-8.5-8-8.8-4.7-.3-8.7 3.2-9 7.8z"/>
  <radialGradient id="d" cx="11.243" cy="90.856" r="7.995" gradientTransform="matrix(1.161 .07 -.066 1.096 39.513 -30.398)" gradientUnits="userSpaceOnUse">
    <stop offset="0" stop-color="#F7FFE7"/>
    <stop offset=".976" stop-color="#EAF2CE"/>
  </radialGradient>
  <path fill="url(#d)" d="M37.3 69.4c-.3 4.8 3.6 9 8.8 9.3 5.1.3 9.5-3.4 9.8-8.2.3-4.8-3.6-9-8.8-9.3-5.1-.3-9.5 3.4-9.8 8.2z"/>
  <linearGradient id="e" gradientUnits="userSpaceOnUse" x1="11.083" y1="86.967" x2="11.674" y2="82.576" gradientTransform="matrix(1.161 .07 -.066 1.096 39.513 -30.398)">
    <stop offset="0" stop-color="#FFF" stop-opacity=".21"/>
    <stop offset="1" stop-color="#E7FFF8" stop-opacity=".939"/>
  </linearGradient>
  <path fill="url(#e)" d="M37.4 67.3s6.3-2.5 11.2-2.3c4.9.2 6.8 2.1 6.8 2.1l-3-4.1-4.1-2.2-3.5.2-4.3 1.5-3.1 4.8z"/>
  <radialGradient id="f" cx="9.456" cy="88.93" r="4.231" gradientTransform="matrix(1.161 .07 -.066 1.096 39.513 -30.398)" gradientUnits="userSpaceOnUse">
    <stop offset="0" stop-color="#8A5222"/>
    <stop offset="1"/>
  </radialGradient>
  <path fill="url(#f)" stroke="#000" stroke-width=".2" d="M48.5 68.7c-.1 2.2-2 3.9-4.1 3.8-2.2-.1-3.8-2-3.7-4.3.1-2.2 2-3.9 4.1-3.8 2.2.2 3.8 2.1 3.7 4.3z"/>
  <path d="M46.2 68.7c-.1.9-.9 1.7-1.8 1.6-.9-.1-1.6-.9-1.6-1.8.1-.9.9-1.7 1.8-1.6 1 0 1.7.8 1.6 1.8z"/>
  <path fill="#918C80" stroke="#231A18" stroke-width=".5" d="M37 70.2s3.6-.7 7.5-.6c.9 0 11 1.3 11 1.3l-.1 2.7-3 4.1-6.5 1.9-2.8-.6-4.1-2.4-2.1-5.8.1-.6z"/>
  <radialGradient id="g" cx="9.913" cy="88.326" r=".592" fx="10.506" fy="88.322" gradientTransform="matrix(1.161 .07 -.066 1.096 39.513 -30.398)" gradientUnits="userSpaceOnUse">
    <stop offset="0" stop-color="#FFF"/>
    <stop offset="1" stop-color="#FFF" stop-opacity=".21"/>
  </radialGradient>
  <path fill="url(#g)" d="M45.9 67.1c0 .3-.3.6-.7.6-.4 0-.7-.3-.6-.7 0-.3.3-.6.7-.6.3.1.6.4.6.7z"/>
  <radialGradient id="h" cx="249.247" cy="43.276" r=".594" fx="249.841" fy="43.272" gradientTransform="matrix(2.329 .14 -.176 2.93 -526.246 -97.373)" gradientUnits="userSpaceOnUse">
    <stop offset="0" stop-color="#FFF"/>
    <stop offset="1" stop-color="#FFF" stop-opacity=".21"/>
  </radialGradient>
  <path fill="url(#h)" d="M47.9 64.3c-.1.9-.7 1.6-1.5 1.6s-1.3-.8-1.3-1.8c.1-.9.7-1.6 1.5-1.6.8.1 1.4.8 1.3 1.8z"/>
  <radialGradient id="i" cx="403.568" cy="30.707" r=".603" fx="404.171" fy="30.703" gradientTransform="matrix(6.427 .377 -.377 6.159 -2502.559 -269.701)" gradientUnits="userSpaceOnUse">
    <stop offset="0" stop-color="#FFF"/>
    <stop offset="1" stop-color="#FFF" stop-opacity=".21"/>
  </radialGradient>
  <path fill="url(#i)" d="M83.2 71.8c-.1 2-1.9 3.5-4.1 3.3-2.1-.1-3.8-1.8-3.6-3.8.1-2 1.9-3.5 4.1-3.3 2.1.1 3.8 1.8 3.6 3.8z"/>
  <radialGradient id="j" cx="39.576" cy="82.592" r="4.766" gradientTransform="matrix(1.326 .078 -.076 1.232 35.393 -34.49)" gradientUnits="userSpaceOnUse">
    <stop offset="0" stop-color="#8A5222"/>
    <stop offset="1"/>
  </radialGradient>
  <path fill="url(#j)" stroke="#000" stroke-width=".2" d="M84.7 71.1c-.1 2-1.8 3.6-3.7 3.5-1.9-.1-3.4-1.9-3.3-3.9.1-2 1.8-3.6 3.7-3.5 1.9.1 3.4 1.9 3.3 3.9z"/>
  <path d="M82.9 70.3c0 .8-.8 1.3-1.6 1.3-.9-.1-1.5-.7-1.5-1.5s.8-1.3 1.6-1.3c.9.1 1.6.8 1.5 1.5z"/>
  <path fill="#918C80" stroke="#231A18" stroke-width=".5" d="M73.2 72.2s5.4-.6 8.1-.8c2.5-.2 9.1.5 9.1.5l-.6 3.7-3.1 3.5-4.5 1.4-4.6-1.1-3.6-3.2-.8-4z"/>
  <radialGradient id="k" cx="40.103" cy="81.719" r=".604" fx="40.707" fy="81.715" gradientTransform="matrix(1.326 .078 -.076 1.232 35.393 -34.49)" gradientUnits="userSpaceOnUse">
    <stop offset="0" stop-color="#FFF"/>
    <stop offset="1" stop-color="#FFF" stop-opacity=".21"/>
  </radialGradient>
  <path fill="url(#k)" d="M83.1 69.4c0 .4-.4.7-.8.7s-.8-.4-.8-.8.4-.7.8-.7c.5 0 .9.4.8.8z"/>
  <path fill="#918C80" stroke="#231A18" stroke-width=".5" d="M89.8 69.8s-2.3-3.6-9.4-3.2c-2.4.1-5.6 2.4-5.6 2.4l.8-2.7 2.8-2.1 4.2-.7 3.1.8 2.2 1.5 1.9 4zM55.1 68.2s-3-2.7-5.8-3C42.2 64.2 38 67 38 67l.8-2 4.1-3.7 4.6-.8 3.2 1.2 2.5 1.7 1.9 4.8z"/>
  <path fill="#444035" d="M56.6 70.8c-.3 5.6-5.1 9.8-10.7 9.5-5.6-.3-9.9-5.1-9.5-10.7.3-5.6 5.1-9.8 10.7-9.5 5.6.4 9.8 5.1 9.5 10.7zm-9.7-9.4c-4.8-.3-9 3.4-9.3 8.2-.3 4.8 3.4 9 8.2 9.2 4.8.3 9-3.4 9.3-8.2.3-4.8-3.3-8.9-8.2-9.2zM91 72.6c-.3 5-4.7 8.7-9.7 8.4-5.1-.3-8.9-4.6-8.6-9.5.3-5 4.7-8.7 9.7-8.4 5 .3 8.9 4.5 8.6 9.5zm-8.6-8.2c-4.4-.3-8.1 3-8.4 7.2-.3 4.3 3.1 7.9 7.4 8.2 4.4.3 8.1-3 8.4-7.2.2-4.3-3.1-8-7.4-8.2z"/>
  <path d="M11.2 64.1L32.1 66s.2-1.4 2.3-2.4c2.4-1.1 14.2-1.9 21.5.6 7.3 2.5 4.4 1.7 5.4 1.8 1 .1 5.6-.2 7 .1 1.4.3 2.5.8 2.9.4.4-.4 10.2-1.6 14.6-1.4 4.4.3 6.9-.1 8.4.9 1.8 1.1 2.2 2.4 2.6 2.4.4 0 3.4-.2 3.3.9-.1.6-2.5.1-2.9.6-.4.5-1 4.4-3.3 5.8-2.3 1.4-5.3 3.5-16.7 2.8-4-.3-7.3-4.4-7.5-6.9s.5-4.4.5-4.4-1.8-.5-4.6-.4c-2.7.1-4 .4-4 .4s.9 1.8-1.3 4.6c-2 2.6-3.7 4.7-5.5 4.7-1.8 0-9.7 1-16.7-.6-4.3-1-5.5-5.2-5.9-6.5-.4-1.4-.3-2-.3-2L11 65.2l.2-1.1zm21.6 4.8c.3 1.2 1.7 4.8 5 6.1 3.3 1.3 15.5 1.9 17.9.2 3.1-2.2 5.8-6 5.5-7.6-.4-1.6-5.2-2.8-9.4-3.6-4.2-.8-10.3-.8-14.1-.5-4.3.4-4.5 2.8-4.5 2.8s-.7 1.2-.4 2.6zm38.7-1.5c-.9.7-1.3 4.2.1 6.4 1.3 2.2 3.1 3.5 4.9 3.9 1.8.4 10.4.9 16.5-2.2 3.1-1.6 3.3-5.3 3.3-5.9 0-.6-1.9-3.6-4.4-3.7-2.4-.1-7.1-.2-11.5.2-4.5.3-8.1.7-8.9 1.3z"/>
  <path fill="#939393" stroke="#514E44" stroke-width="1.25" d="M55 87.6l1 1.4s2.7-2.9 7.5-2.8c4.8.1 7.5 3.3 7.5 3.3l.9-.6s-3-4.6-8.8-4.6-8.1 3.3-8.1 3.3z"/>
  <path d="M15.3 73.5l13.3 24.7 8.5 7.3-.3-5.8s18.9-7.4 19.9-7.3c1 .1 4.9 2.5 7.3 2.5 2.4 0 5.8-.3 5.8-.3l1 3.7-21.1 2.7-8 1.3-2.7 12.3s-20.2-14.2-20.1-14.5-3.9-27-3.9-27l.3.4zM94.2 100.2l.3-5-1.1-1.4s.3 3.4-5.6 8.1c-1.9 1.5-2.8 3.1-2.8 3.1l-3.7-5.4.4-.6s-3 .6-6.2-.6c-2.8-1-5.2-2.8-5.2-2.8L68.9 98s10.6 6.2 10.7 6.5c.1.4 5.8 9.6 5.8 9.6l8.8-13.9zM42.3 113.1s3.7 3.3 7.4 4c3.7.7 5.5 1 5.5 1l1.5-5.3c.5-1 1.2 0 4.6.5 4.5.7 6.9 0 6.9 0l-3.3 7.2-12.7 2.7-9.7-3.7-.2-6.4zM67.3 120.2s8.2-3 10.2-4.5 2.7-1.7 2.7-1.7l-2 5.5-13.4 7.9 2.5-7.2z"/>
  <path fill="#4F727F" stroke="#374F56" d="M15 73.1s.3.7.2 2.2S26.4 100 26.4 100s11.6 8 11.5 7.5c0-.5-.7-6.9-.7-6.9l20.6-6.4s3.2 2.2 5.3 2.2c2.2 0 6.9-1.5 6.9-1.5s3.8 3.7 4.8 4.5c1 .8 6.5.2 6.5.2s2.7 7.7 3.3 7.7c.7 0 6.9-7.4 8.7-9.7 1.8-2.3 0-3.8 0-3.8s1 .5 1.5 1.5-.8 15.5-2.2 19.9c-1.3 4.3-15.7 23.1-17.2 23.7-1.5.7-15.7 1.2-20.4.5-4.7-.7-19.7-8.7-22.9-10-3.2-1.3-16.5-18.2-17.4-22.4-.7-4.1-.7-32.7-.7-32.7l1-1.2zm28.4 30.6s0 11 .3 11.7c.3.7 10.9 5.3 12.2 5 1.3-.3 1.8-6.5 1.8-6.5s1.5.7 5.3.5c3.9-.1 5-.7 5-.7l-.2 9.2s7.7-4.3 9.5-6.4c1.8-2 1.2-10.7 1.2-10.7s-6-.5-9.9-1.8c-3.8-1.3-5.3-3.5-5.3-3.5s-10.2 4.5-12.7 4.7c-2.3.2-7.2-1.5-7.2-1.5zM85.1 20.6s-1.7-1.3-5.7-1c-.8.1-2.9 2.3-5.4 2.9-2 .4-4.2-.8-6.6-.3-4.1.9-8.4 1.7-11.4 1.9-4.3.3-2-2.3-4.7-2.8-7-1.3-14.4-.7-15.4-2.3-1-1.7-2.3-1.7-2.3-1.7s-10 6.4-10.4 8c-.3 1.7.3 12 .3 17.4 0 5.3 0 6.4-3.3 9-3.3 2.7-2 11.4-3 14.4s-2 6.3-2.3 4.7c-.3-1.7-2-6-3.7-6.7-1.7-.7-3.9-3.2-3.9-9.6 0-6.4-1-24.3 2.4-30.3 1.1-1.9 3.9-5.3 7.8-8.9 1-.9 1-3 2.1-3.9.8-.6 2.8-.2 3.6-.8.6-.5.4-2.1 1.1-2.6.8-.5 2.4.2 3.2-.3 7.4-4.6 16.2-8 25.1-7.1 19.7 2 28.5 7.9 30.2 10.6 1.7 2.7 6.7 10.4 5.7 11.7-1 1.3 6.1 2.2 8.9 8.1 1.8 3.7 2.1 14 2.7 16.9.1.6 1.2 2.8 1 3.8-.1.6-1.5.1-1.7.8-1 3.4-2.5 7.2-2.5 7.2s-1.3-13.4-2-17c-.7-3.7-2-7-3.7-9.4s-4.7-9-4.7-10.4-1.4-2.3-1.4-2.3z"/>
  <path fill="#444035" d="M4.5 82.6s1.9 4.3 4.4 4.3c2.5 0 4.1.1 5-.7.7-.7 3.4-6.3 3-16-.4-9-4.8-8.5-7.8-8.5S5 63 4.6 64.6c-3.7 14.7 2.2 8.5 2.2 8.5l-2.3 9.5z"/>
  <path fill="#918C80" d="M11 74.2c0-5-.7-11.9-4.9-11.9-2.3 0-3.7 8.1-3.3 12.2.4 4.1 1.7 10.2 3.2 10.3 3.3.4 5-5.8 5-10.6z"/>
  <path fill="#444035" d="M1 78.7s1.1 2.5 2.5 2.5 2.4.1 2.9-.4c.4-.4 2-3.7 1.7-9.3-.2-5.2-2.8-4.9-4.5-4.9s-2.4.7-2.6 1.7c-2.1 8.5 1.3 4.9 1.3 4.9L1 78.7z"/>
  <path fill="#918C80" d="M4.8 73.8c0-2.9-.4-6.9-2.8-6.9-1.3 0-2.1 4.7-1.9 7 .2 2.4 1 5.9 1.8 6 1.8.3 2.9-3.3 2.9-6.1z"/>
  <ellipse transform="matrix(.998 .06 -.06 .998 8.628 -2.784)" fill="none" stroke="#000" cx="50.3" cy="141.1" rx=".7" ry=".8"/>
  <ellipse transform="matrix(.998 .06 -.06 .998 5.444 -.85)" fill="none" stroke="#000" cx="16.9" cy="90.5" rx=".7" ry=".8"/>
  <ellipse transform="matrix(.998 .06 -.06 .998 7.307 -3.524)" fill="none" stroke="#000" cx="61.9" cy="119" rx=".7" ry=".8"/>
</svg>