<svg version="1.1"
     xmlns="http://www.w3.org/2000/svg" xmlns:xlink="http://www.w3.org/1999/xlink" xmlns:a="http://ns.adobe.com/AdobeSVGViewerExtensions/3.0/"
     x="0px" y="0px" width="112.3px" height="148.1px" viewBox="0 0 112.3 148.1" enable-background="new 0 0 112.3 148.1"
     xml:space="preserve">
<defs>
</defs>
<linearGradient id="SVGID_1_" gradientUnits="userSpaceOnUse" x1="37.8487" y1="132.4589" x2="62.9649" y2="132.4589">
    <stop  offset="0" style="stop-color:#9C9C9C"/>
    <stop  offset="1" style="stop-color:#E6E6E6"/>
</linearGradient>
<path fill="url(#SVGID_1_)" stroke="#8A8C8E" stroke-width="0.75" d="M37.8,119.1l1.4,25.3c0,0,3.3,3.6,10.9,3.3
    c7.6-0.3,11.1-4.2,11.1-4.2l1.7-25.9l-19.5-0.3L37.8,119.1z"/>
<radialGradient id="SVGID_2_" cx="-57.0327" cy="85.6472" r="34.7666" gradientTransform="matrix(-1 0 0 1 29.9356 0)" gradientUnits="userSpaceOnUse">
    <stop  offset="0" style="stop-color:#3D2D13"/>
    <stop  offset="1" style="stop-color:#391F14"/>
</radialGradient>
<path fill="url(#SVGID_2_)" stroke="#717677" d="M85.7,43.2c0,0-3.2,47.3,8.2,64.1c11.4,16.8,15.9,3.2,17.3,2.3
    c1.4-0.9,1.3,9-8.6,15c-13.9,8.3-34.1,1.4-38.6-18.2c-4.5-19.6,0.9-59.6,2.3-59.6C67.5,46.9,85.7,43.2,85.7,43.2z"/>
<linearGradient id="SVGID_3_" gradientUnits="userSpaceOnUse" x1="501.1695" y1="78.335" x2="501.1695" y2="119.4649" gradientTransform="matrix(-0.9994 3.470000e-02 3.470000e-02 0.9994 549.5875 -9.2824)">
    <stop  offset="0" style="stop-color:#BFBFBF"/>
    <stop  offset="1" style="stop-color:#E6E6E6"/>
</linearGradient>
<path fill="url(#SVGID_3_)" stroke="#939598" d="M89,85.6c0,0-1.4,11.8-13.7,28.7c-2.8,3.8-11.4,12-15.6,14.2
    c-5,2.6-12.5,3.1-18.3,0.6c-2.5-1.1-23.8-21.4-25.9-28.3C13.4,93.9,14.2,89,14.2,89l43.9,0.1L89,85.6z"/>
<path fill="#FFFFFF" stroke="#717677" stroke-width="4" d="M64.2,102.5C62.8,105,63,108,59,110c-2.2,1.1-14.7,1.3-17.6,0.2
    c-2.9-1.1-3.9-5.8-3.9-5.8L64.2,102.5z"/>
<linearGradient id="SVGID_4_" gradientUnits="userSpaceOnUse" x1="500.4584" y1="10.3937" x2="500.4584" y2="93.341" gradientTransform="matrix(-0.9994 3.470000e-02 3.470000e-02 0.9994 549.5875 -9.2822)">
    <stop  offset="0" style="stop-color:#BFBFBF"/>
    <stop  offset="1" style="stop-color:#E6E6E6"/>
</linearGradient>
<path fill="url(#SVGID_4_)" stroke="#A7A9AC" d="M90.5,92c-1.5,2.2-18.1,15.4-40.4,15.1c-22.3-0.3-36.4-11.3-37.3-13.3
    c-0.9-2-3-17.5-1.5-41.5c1.4-24,16.4-40.1,27.2-42.7c10.8-2.6,34.2,9.3,39.4,12.2C81.6,24,91.3,41,92.1,59.1
    C93,77.2,91.7,90.3,90.5,92z"/>
<radialGradient id="SVGID_5_" cx="-292.3439" cy="86.81" r="7.1653" gradientTransform="matrix(1.154 0.1455 -0.1373 1.0897 383.7572 18.7041)" gradientUnits="userSpaceOnUse">
    <stop  offset="0" style="stop-color:#F7FFE7"/>
    <stop  offset="0.9755" style="stop-color:#EAF2CE"/>
</radialGradient>
<path fill="url(#SVGID_5_)" d="M26.2,69.7c-0.5,4.3,2.7,8.3,7.3,8.8c4.6,0.6,8.7-2.5,9.3-6.8c0.5-4.3-2.7-8.3-7.3-8.9
    C30.9,62.4,26.7,65.4,26.2,69.7z"/>
<radialGradient id="SVGID_6_" cx="-292.1103" cy="84.4995" r="3.5126" gradientTransform="matrix(1.154 0.1455 -0.1373 1.0897 383.7572 18.7041)" gradientUnits="userSpaceOnUse">
    <stop  offset="0" style="stop-color:#98D6CF"/>
    <stop  offset="1" style="stop-color:#0D133D"/>
</radialGradient>
<path fill="url(#SVGID_6_)" stroke="#000000" stroke-width="0.2" d="M38.2,69.3c-0.2,1.8-1.9,3.2-3.6,2.9c-1.8-0.2-3-1.9-2.8-3.7
    c0.2-1.8,1.9-3.2,3.6-2.9C37.2,65.8,38.4,67.4,38.2,69.3z"/>
<path d="M36.4,69c-0.1,0.8-0.8,1.3-1.6,1.2c-0.8-0.1-1.3-0.8-1.2-1.6c0.1-0.8,0.8-1.3,1.6-1.2C36,67.5,36.5,68.2,36.4,69z"/>
<path fill="#918C80" stroke="#231A18" stroke-width="0.5" d="M25.8,70.4c0,0,4.5,1.1,9.2,1c4.1-0.1,7.9-0.3,7.9-0.3l-0.7,3.5l-3,3.5
    l-5.9,1.3l-2.4-0.7l-3.5-2.4L25.7,72L25.8,70.4z"/>
<radialGradient id="SVGID_7_" cx="-291.6615" cy="83.9109" r="0.4922" fx="-291.1693" fy="83.9075" gradientTransform="matrix(1.154 0.1455 -0.1373 1.0897 383.7572 18.7041)" gradientUnits="userSpaceOnUse">
    <stop  offset="0" style="stop-color:#FFFFFF"/>
    <stop  offset="1" style="stop-color:#FFFFFF;stop-opacity:0.21"/>
</radialGradient>
<path fill="url(#SVGID_7_)" d="M36.2,67.8c0,0.3-0.3,0.5-0.6,0.4c-0.3,0-0.5-0.3-0.5-0.6c0-0.3,0.3-0.5,0.6-0.4
    C36,67.2,36.2,67.5,36.2,67.8z"/>
<radialGradient id="SVGID_8_" cx="-545.7946" cy="365.5201" r="0.4926" fx="-545.3021" fy="365.5167" gradientTransform="matrix(2.3147 0.2916 -0.3668 2.9122 1435.3704 -838.0996)" gradientUnits="userSpaceOnUse">
    <stop  offset="0" style="stop-color:#FFFFFF"/>
    <stop  offset="1" style="stop-color:#FFFFFF;stop-opacity:0.21"/>
</radialGradient>
<path fill="url(#SVGID_8_)" d="M39,67.3c-0.1,0.8-0.7,1.3-1.3,1.2c-0.6-0.1-1.1-0.8-1-1.5c0.1-0.8,0.7-1.3,1.3-1.2
    C38.7,65.9,39.1,66.5,39,67.3z"/>
<path fill="#918C80" stroke="#231A18" stroke-width="0.5" d="M42.9,70c0,0-1.3-2.4-3.5-3.2c-1.4-0.5-3.5-0.7-6.4-0.4
    c-6.5,0.6-7.5,3.8-7.5,3.8l1.3-3.5l3.6-3.6l5.2-0.7l3.1,1.3l2.2,1.8L42.9,70z"/>
<path fill="#EDE9E6" d="M43.4,72.1c-0.6,5-5.2,8.5-10.2,7.8c-5-0.6-8.5-5.2-7.9-10.1c0.6-5,5.2-8.5,10.2-7.8
    C40.5,62.6,44,67.1,43.4,72.1z M35.3,63.1c-4.3-0.5-8.2,2.5-8.8,6.8c-0.5,4.3,2.5,8.2,6.8,8.7c4.3,0.5,8.2-2.5,8.8-6.8
    C42.6,67.5,39.6,63.6,35.3,63.1z"/>
<radialGradient id="SVGID_9_" cx="-305.5441" cy="126.1642" r="7.1282" gradientTransform="matrix(1.1777 0.1927 -0.1915 1.1512 455.6216 -14.9285)" gradientUnits="userSpaceOnUse">
    <stop  offset="0" style="stop-color:#F7FFE7"/>
    <stop  offset="0.9755" style="stop-color:#EAF2CE"/>
</radialGradient>
<path fill="url(#SVGID_9_)" d="M63.2,70.1c-0.8,4.5,2.4,8.8,7,9.6c4.6,0.8,9-2.3,9.8-6.8c0.8-4.5-2.4-8.8-7-9.6
    C68.4,62.5,64,65.5,63.2,70.1z"/>
<radialGradient id="SVGID_10_" cx="-709.2696" cy="456.2919" r="0.6026" fx="-708.6671" fy="456.2877" gradientTransform="matrix(6.3536 1.0396 -1.0121 6.0874 5037.1943 -1969.5024)" gradientUnits="userSpaceOnUse">
    <stop  offset="0" style="stop-color:#FFFFFF"/>
    <stop  offset="1" style="stop-color:#FFFFFF;stop-opacity:0.21"/>
</radialGradient>
<path fill="url(#SVGID_10_)" d="M72.6,71.2c-0.3,1.9-2.3,3.2-4.4,2.9c-2.1-0.3-3.6-2.2-3.2-4.1c0.3-1.9,2.3-3.2,4.4-2.9
    C71.5,67.4,72.9,69.3,72.6,71.2z"/>
<radialGradient id="SVGID_11_" cx="-407.1693" cy="149.1534" r="4.7603" gradientTransform="matrix(1.3109 0.2144 -0.2026 1.2179 634.7079 -25.0065)" gradientUnits="userSpaceOnUse">
    <stop  offset="0" style="stop-color:#98D6CF"/>
    <stop  offset="1" style="stop-color:#0D133D"/>
</radialGradient>
<path fill="url(#SVGID_11_)" stroke="#000000" stroke-width="0.2" d="M73.7,70.4c-0.3,2-2.2,3.4-4.1,3.1c-1.9-0.3-3.2-2.2-2.9-4.2
    c0.3-2,2.2-3.4,4.1-3.1C72.7,66.5,74,68.4,73.7,70.4z"/>
<path d="M71.8,69.9c-0.1,0.9-0.9,1.4-1.8,1.3c-0.8-0.1-1.4-0.9-1.3-1.8c0.1-0.9,0.9-1.4,1.8-1.3C71.4,68.3,72,69.1,71.8,69.9z"/>
<path fill="#918C80" stroke="#231A18" stroke-width="0.5" d="M62.9,72.6c0,0,1.3-0.8,2.1-0.8c2,0.1,4.1,0.4,7.2,0.5
    c6,0.2,7.5-1,7.5-1l-1,4.4l-3.4,3.1l-4.7,1l-4.4-1.6L63,74.7L62.9,72.6z"/>
<path fill="#918C80" stroke="#231A18" stroke-width="0.5" d="M79.9,70.5c0,0-1.6-1.5-6.9-2.9c-3.6-0.9-5.8,0.1-7.6,1.2
    c-1.4,0.8-2.8,2-2.8,2l1.2-4.1l4.2-3.1l4.6-0.3l3.3,1.2l2.2,1.8L79.9,70.5z"/>
<path fill="#EDE9E6" d="M80.2,72.8c-0.8,4.9-5.5,8.2-10.6,7.4c-5-0.8-8.4-5.5-7.6-10.4c0.8-4.9,5.5-8.2,10.6-7.4
    C77.6,63.3,81,68,80.2,72.8z M72.5,63.8c-4.3-0.7-8.4,2.1-9.1,6.3c-0.7,4.2,2.2,8.2,6.5,8.9c4.3,0.7,8.4-2.1,9.1-6.3
    C79.7,68.4,76.8,64.5,72.5,63.8z"/>
<radialGradient id="SVGID_12_" cx="-407.0155" cy="149.4108" r="0.6036" fx="-406.4119" fy="149.4066" gradientTransform="matrix(1.3109 0.2144 -0.2026 1.2179 634.7079 -25.0065)" gradientUnits="userSpaceOnUse">
    <stop  offset="0" style="stop-color:#FFFFFF"/>
    <stop  offset="1" style="stop-color:#FFFFFF;stop-opacity:0.21"/>
</radialGradient>
<path fill="url(#SVGID_12_)" d="M71.6,69.8c-0.1,0.4-0.5,0.6-0.9,0.6c-0.4-0.1-0.7-0.4-0.7-0.8c0.1-0.4,0.5-0.6,0.9-0.6
    C71.4,69,71.7,69.4,71.6,69.8z"/>
<radialGradient id="SVGID_13_" cx="519.7375" cy="51.1263" r="9.2439" gradientTransform="matrix(-0.9994 3.470000e-02 3.470000e-02 0.9994 549.5875 -9.2822)" gradientUnits="userSpaceOnUse">
    <stop  offset="0" style="stop-color:#3D2D13"/>
    <stop  offset="1" style="stop-color:#391F14"/>
</radialGradient>
<path fill="url(#SVGID_13_)" stroke="#717677" d="M44.4,59.2c-0.6-0.5-2.3-1.7-5.8-1.7c-3.6,0-14,0.9-16,1.5c-2,0.6-2.6,1.6-3.2,2.3
    c-0.7,0.7,0.3,1.2,2,1c1.6-0.2,4.2-0.7,6.7-1.6c2.4-0.9,8.2-1.7,11.8-1.6c3.6,0,4.2,1.2,4.8,0.8C45.2,59.5,44.4,59.2,44.4,59.2z"/>
<radialGradient id="SVGID_14_" cx="478.739" cy="51.9562" r="8.4407" gradientTransform="matrix(-0.9994 3.470000e-02 3.470000e-02 0.9994 549.5875 -9.2822)" gradientUnits="userSpaceOnUse">
    <stop  offset="0" style="stop-color:#3D2D13"/>
    <stop  offset="1" style="stop-color:#391F14"/>
</radialGradient>
<path fill="url(#SVGID_14_)" stroke="#717677" d="M63.1,58.3c-1.4,0.5-2.3,1.5-1.6,1.6c0.7,0.1,0.6,0.1,3.3-0.1
    c2.7-0.2,4.1,0,7.8,0.1c3.7,0.1,8,0.1,9.5,1c1.5,0.9,3.8-0.1,1.6-1.3c-2.2-1.2-4.5-2.2-6-2.4c-1.5-0.2-5.2,0.6-6.7,0.6
    c-1.5,0.1-5-1.3-6.5-0.5C63.1,58.3,63.1,58.3,63.1,58.3z"/>
<path fill="#444035" d="M55.5,84.6c0,0-4.3-0.9-6.9,0c-2.6,1-5.6,4.5-4.9,8.2c0.7,3.6,3.4,5.8,6,5.9c2.9,0.1,4.4,0.1,4.4,0.1
    l2.4-9.7L55.5,84.6z"/>
<ellipse transform="matrix(-0.9994 3.468286e-02 -3.468286e-02 -0.9994 110.0703 181.1587)" fill="#939393" stroke="#514E44" stroke-width="1.25" cx="53.5" cy="91.5" rx="6.9" ry="6.8"/>
<radialGradient id="SVGID_15_" cx="47.4224" cy="39.2023" r="43.0092" gradientUnits="userSpaceOnUse">
    <stop  offset="0" style="stop-color:#3D2D13"/>
    <stop  offset="1" style="stop-color:#391F14"/>
</radialGradient>
<path fill="url(#SVGID_15_)" stroke="#717677" d="M41.2,26.9c2.7-0.6,9.1-3.6,12.1-2.1c3,1.5,17,6.4,20.3,7.3
    c3.3,0.9,12.1,8.2,12.7,11.2c0.6,3,2.7,15.2,3.9,18.8c1.2,3.6,0.6,13.3,1.5,12.7c0.9-0.6,2.1-8.5,2.4-9.7c0.3-1.2-0.3-21.5-2.1-24.9
    c-1.8-3.3-3-15.2-5.2-17.6c-2.1-2.4-7-10-10-12.4c-3-2.4,0.3-4.2-10.3-6.4C56.1,1.7,54.9-0.1,51.2,1.1c-3.6,1.2-5.2,0.3-7-0.3
    c-1.8-0.6-6.4-0.3-9.7,1.5C31.2,4.1,27.3,6.8,24.2,9c-3,2.1-3.9,1.2-5.8,5.5c-1.8,4.2-6.4,10.6-7.9,12.7c-1.5,2.1-4.5,6.1-4.5,8.5
    s1.8,5.8,0.6,6.7c-1.2,0.9-2.1,3-2.1,5.8c0,2.7-0.9,0.9-3,3c-2.1,2.1-0.3,6.4,0,9.4c0.3,3,3.6,4.2,3,6.4c-0.6,2.1,1.9,4.6,3.3,6.7
    c1.4,2,3.4,4.4,3.4,4.4S10,61.4,11.8,58.7c1.8-2.7,4.5-5.2,4.8-9.1c0.3-3.9,1.2-12.4,3-15.8c1.8-3.3,13.6-6.4,15.2-6.4
    C36.4,27.5,41.2,26.9,41.2,26.9z"/>
<ellipse transform="matrix(0.9982 5.988750e-02 -5.988750e-02 0.9982 5.6672 -4.8656)" fill="none" stroke="#000000" cx="84" cy="92.1" rx="0.6" ry="0.7"/>
<ellipse transform="matrix(0.9982 5.988750e-02 -5.988750e-02 0.9982 5.7083 -0.9554)" fill="none" stroke="#000000" cx="18.8" cy="94.8" rx="0.6" ry="0.7"/>
</svg>