<svg version="1.1"
     xmlns="http://www.w3.org/2000/svg" xmlns:xlink="http://www.w3.org/1999/xlink" xmlns:a="http://ns.adobe.com/AdobeSVGViewerExtensions/3.0/"
     x="0px" y="0px" width="94px" height="149.2px" viewBox="0 0 94 149.2" enable-background="new 0 0 94 149.2" xml:space="preserve"
    >
<defs>
</defs>
<linearGradient id="SVGID_1_" gradientUnits="userSpaceOnUse" x1="30.2989" y1="144.1617" x2="62.8867" y2="144.1617">
    <stop  offset="0" style="stop-color:#BFBFBF"/>
    <stop  offset="1" style="stop-color:#E6E6E6"/>
</linearGradient>
<path fill="url(#SVGID_1_)" stroke="#A7A9AC" stroke-width="0.75" d="M47.4,148.8c8.4,0.2,15.4-0.3,15.5-3.3c0.1-2.9-3.9-6-18.2-6
    c-14.3,0-14.3,1.8-14.4,4.8C30.2,147.2,35.7,148.5,47.4,148.8z"/>
<linearGradient id="SVGID_2_" gradientUnits="userSpaceOnUse" x1="53.0751" y1="227.1136" x2="87.5149" y2="227.1136" gradientTransform="matrix(0.9989 4.770000e-02 -4.770000e-02 0.9989 -13.2054 -92.7664)">
    <stop  offset="0" style="stop-color:#9C9C9C"/>
    <stop  offset="1" style="stop-color:#E6E6E6"/>
</linearGradient>
<path fill="url(#SVGID_2_)" stroke="#8A8C8E" stroke-width="0.75" d="M45.6,141.8c10.2,0.5,17.7-1.4,17.8-3.9
    c0.1-2.6-5.7-4.3-17.7-4.9c-12.1-0.6-16.6,2.9-16.7,5.1C28.8,140.3,37.6,141.4,45.6,141.8z"/>
<linearGradient id="SVGID_3_" gradientUnits="userSpaceOnUse" x1="28.4514" y1="130.8557" x2="64.2465" y2="130.8557">
    <stop  offset="0" style="stop-color:#BFBFBF"/>
    <stop  offset="1" style="stop-color:#E6E6E6"/>
</linearGradient>
<path fill="url(#SVGID_3_)" stroke="#A7A9AC" stroke-width="0.75" d="M46.2,135.6c11.6-0.2,17.9,0.2,18.1-3.4c0.2-3.5-8.1-6-18-6.1
    c-9.8-0.1-18,2-17.8,5.1C28.7,134.4,36,135.8,46.2,135.6z"/>
<linearGradient id="SVGID_4_" gradientUnits="userSpaceOnUse" x1="50.7314" y1="213.315" x2="92.1309" y2="213.315" gradientTransform="matrix(0.9989 4.770000e-02 -4.770000e-02 0.9989 -13.2054 -92.7664)">
    <stop  offset="0" style="stop-color:#9C9C9C"/>
    <stop  offset="1" style="stop-color:#E6E6E6"/>
</linearGradient>
<path fill="url(#SVGID_4_)" stroke="#8A8C8E" stroke-width="0.75" d="M46.5,128.7c8.4,0.4,22,1,22.2-3.7c0.2-4.8-7.8-6.2-21.3-6.2
    c-13.6,0.1-19.9,2-20.1,5.6C27,128.1,39.5,128.4,46.5,128.7z"/>
<linearGradient id="SVGID_5_" gradientUnits="userSpaceOnUse" x1="26.9604" y1="116.3694" x2="69.1406" y2="116.3694">
    <stop  offset="0" style="stop-color:#BFBFBF"/>
    <stop  offset="1" style="stop-color:#E6E6E6"/>
</linearGradient>
<path fill="url(#SVGID_5_)" stroke="#A7A9AC" stroke-width="0.75" d="M48.5,110.8c0,0-20.4-2.1-21.5,4.5c-1,6.6,12.5,6.5,21.7,6.9
    c9.1,0.4,20.3-2,20.4-5.6C69.3,112.9,61.7,111.8,48.5,110.8z"/>
<polygon fill="#444035" points="13,78.4 11.3,78.3 10.2,80.2 10.6,83.7 11.8,85.3 15.4,85.3 11.2,89.6 6.1,85.7 6.3,73.4 10.4,74 
    "/>
<linearGradient id="SVGID_6_" gradientUnits="userSpaceOnUse" x1="54.7994" y1="99.0592" x2="54.7994" y2="134.9124">
    <stop  offset="0" style="stop-color:#C8C3B5"/>
    <stop  offset="1" style="stop-color:#E8E6D6"/>
</linearGradient>
<path fill="url(#SVGID_6_)" stroke="#868687" d="M20.1,92.1c0,0,4.8,17.4,15.3,25.8c10.5,8.5,23.8,10.7,30.6,10.5
    c6.9-0.2,13.3-7.8,19.2-24.2c5.9-16.5,3.9-18.3,3.9-18.3L20.1,92.1z"/>
<path fill="#FFFFFF" stroke="#717677" stroke-width="4" d="M48.5,101.5c0,0,7.5,4.5,8.4,4.9c4.8,1.8,6.3,2.4,12.9,0.4
    c3.8-1.2,9.6-9.8,9.6-9.8L48.5,101.5z"/>
<linearGradient id="SVGID_7_" gradientUnits="userSpaceOnUse" x1="51.0142" y1="30.2563" x2="51.0142" y2="103.4948">
    <stop  offset="0" style="stop-color:#C8C3B5"/>
    <stop  offset="1" style="stop-color:#E8E6D6"/>
</linearGradient>
<path fill="url(#SVGID_7_)" stroke="#58595B" d="M8.7,44.8c0,0-0.7,11.7,0.7,20.8c1.4,9.1,8.7,27,8.7,27s12,11.2,44.1,9.1
    C80,100.5,91,90.5,91,90.5s3.9-6.6,2.1-11c-1.8-4.3-5.9-11-6.2-18.3c-0.2-7.3,3.7-14.6,3.2-17.4c-0.5-2.7-5.7-18.1-13.5-23.1
    c-7.8-5-41.4-3.2-45.7-0.5C26.5,23,8.7,44.8,8.7,44.8z"/>
<radialGradient id="SVGID_8_" cx="167.0125" cy="67.365" r="6.1832" gradientTransform="matrix(1.1914 6.990000e-02 -7.150000e-02 1.1648 -116.7799 -24.5175)" gradientUnits="userSpaceOnUse">
    <stop  offset="0" style="stop-color:#F7FFE7"/>
    <stop  offset="0.9755" style="stop-color:#EAF2CE"/>
</radialGradient>
<path fill="url(#SVGID_8_)" d="M70,65.2c-0.2,4,2.9,7.4,6.9,7.6c4.1,0.2,7.6-2.8,7.8-6.8c0.2-4-2.9-7.4-6.9-7.6
    C73.8,58.2,70.3,61.2,70,65.2z"/>
<radialGradient id="SVGID_9_" cx="121.4672" cy="95.0173" r="6.9585" gradientTransform="matrix(1.1611 6.970000e-02 -6.580000e-02 1.0963 -89.5876 -45.61)" gradientUnits="userSpaceOnUse">
    <stop  offset="0" style="stop-color:#F7FFE7"/>
    <stop  offset="0.9755" style="stop-color:#EAF2CE"/>
</radialGradient>
<path fill="url(#SVGID_9_)" d="M37.1,66.5c-0.3,4.2,3.2,7.8,7.6,8.1c4.5,0.3,8.3-2.9,8.5-7.1c0.3-4.2-3.2-7.8-7.6-8.1
    C41.2,59.1,37.4,62.3,37.1,66.5z"/>
<radialGradient id="SVGID_10_" cx="121.0381" cy="93.4151" r="4.0947" gradientTransform="matrix(1.1611 6.970000e-02 -6.580000e-02 1.0963 -89.5876 -45.61)" gradientUnits="userSpaceOnUse">
    <stop  offset="0" style="stop-color:#8A5222"/>
    <stop  offset="1" style="stop-color:#000000"/>
</radialGradient>
<path fill="url(#SVGID_10_)" stroke="#000000" stroke-width="0.2" d="M48.5,66.2c-0.1,2.2-1.9,3.8-4,3.7c-2.1-0.1-3.7-2-3.5-4.1
    c0.1-2.2,1.9-3.8,4-3.7C47.1,62.2,48.7,64,48.5,66.2z"/>
<ellipse transform="matrix(0.9982 6.047068e-02 -6.047068e-02 0.9982 4.0502 -2.6114)" cx="45.2" cy="65.6" rx="1.8" ry="1.8"/>
<path fill="#918C80" stroke="#231A18" stroke-width="0.5" d="M36.8,68.6c0,0-0.2,0.9,5.3,0.9c2.9,0,5.9-1.3,8.5-1.3
    c1.5,0,2.5,0,2.5,0l-0.2,2l-2.7,3.6l-5.6,1.7l-2.4-0.5l-3.6-2.1l-1.9-4.4L36.8,68.6z"/>
<radialGradient id="SVGID_11_" cx="121.4812" cy="92.8287" r="0.5732" fx="122.0544" fy="92.8247" gradientTransform="matrix(1.1611 6.970000e-02 -6.580000e-02 1.0963 -89.5876 -45.61)" gradientUnits="userSpaceOnUse">
    <stop  offset="0" style="stop-color:#FFFFFF"/>
    <stop  offset="1" style="stop-color:#FFFFFF;stop-opacity:0.21"/>
</radialGradient>
<path fill="url(#SVGID_11_)" d="M46,64.6c0,0.3-0.3,0.6-0.7,0.6c-0.4,0-0.6-0.3-0.6-0.6c0-0.3,0.3-0.6,0.7-0.6
    C45.7,64,46,64.3,46,64.6z"/>
<radialGradient id="SVGID_12_" cx="640.0443" cy="-158.6013" r="0.5166" fx="640.5608" fy="-158.6049" gradientTransform="matrix(2.3288 0.1397 -0.1757 2.93 -1471.543 437.9581)" gradientUnits="userSpaceOnUse">
    <stop  offset="0" style="stop-color:#FFFFFF"/>
    <stop  offset="1" style="stop-color:#FFFFFF;stop-opacity:0.21"/>
</radialGradient>
<path fill="url(#SVGID_12_)" d="M48,62.7c0,0.8-0.6,1.4-1.3,1.4c-0.7,0-1.2-0.7-1.1-1.5c0-0.8,0.6-1.4,1.3-1.4
    C47.5,61.2,48,61.9,48,62.7z"/>
<radialGradient id="SVGID_13_" cx="970.6017" cy="-236.9904" r="0.5227" fx="971.1244" fy="-236.994" gradientTransform="matrix(6.427 0.3773 -0.3774 6.1593 -6252.4668 1158.778)" gradientUnits="userSpaceOnUse">
    <stop  offset="0" style="stop-color:#FFFFFF"/>
    <stop  offset="1" style="stop-color:#FFFFFF;stop-opacity:0.21"/>
</radialGradient>
<path fill="url(#SVGID_13_)" d="M78.2,65.4c-0.1,1.7-1.7,3-3.5,2.9c-1.9-0.1-3.3-1.6-3.2-3.3c0.1-1.7,1.7-3,3.5-2.9
    C76.9,62.2,78.3,63.7,78.2,65.4z"/>
<radialGradient id="SVGID_14_" cx="216.4874" cy="46.6351" r="4.614" gradientTransform="matrix(1.326 7.780000e-02 -7.560000e-02 1.2323 -207.1058 -10.8142)" gradientUnits="userSpaceOnUse">
    <stop  offset="0" style="stop-color:#8A5222"/>
    <stop  offset="1" style="stop-color:#000000"/>
</radialGradient>
<path fill="url(#SVGID_14_)" stroke="#000000" stroke-width="0.2" d="M79.4,64.2c-0.1,2-1.7,3.5-3.6,3.4c-1.9-0.1-3.3-1.8-3.2-3.8
    c0.1-2,1.7-3.5,3.6-3.4C78.1,60.6,79.5,62.2,79.4,64.2z"/>
<path d="M77.9,64.1c-0.1,1-0.9,1.7-1.8,1.6c-1-0.1-1.7-0.9-1.6-1.9c0.1-1,0.9-1.7,1.8-1.6C77.2,62.3,78,63.2,77.9,64.1z"/>
<path fill="#918C80" stroke="#231A18" stroke-width="0.5" d="M69.7,66.4c0,0,1-0.2,2.3-0.2c1.2,0,3,0.5,5.4,0.4
    c3.7-0.2,6.9-0.7,6.9-0.7l-0.5,2.8l-2.7,3L77.3,73l-4-1l-3.1-2.8L69.7,66.4z"/>
<radialGradient id="SVGID_15_" cx="217.2655" cy="47.0237" r="0.5847" fx="217.8502" fy="47.0196" gradientTransform="matrix(1.326 7.780000e-02 -7.560000e-02 1.2323 -207.1058 -10.8142)" gradientUnits="userSpaceOnUse">
    <stop  offset="0" style="stop-color:#FFFFFF"/>
    <stop  offset="1" style="stop-color:#FFFFFF;stop-opacity:0.21"/>
</radialGradient>
<path fill="url(#SVGID_15_)" d="M78.2,64.1c0,0.4-0.4,0.7-0.8,0.6c-0.4,0-0.8-0.4-0.7-0.7c0-0.4,0.4-0.7,0.8-0.6
    C77.9,63.3,78.2,63.7,78.2,64.1z"/>
<path fill="#918C80" stroke="#231A18" stroke-width="0.5" d="M84.7,66.4c0,0-3.1-5.4-10.1-5c-2.3,0.1-4.6,2.5-4.6,2.5l0.8-2.7
    l2.7-2.1l4.1-0.7l3.1,0.8l3,2.8L84.7,66.4z"/>
<path fill="#918C80" stroke="#231A18" stroke-width="0.5" d="M52.9,65.8c0,0-2.4-2.8-4.9-3.1c-6.5-0.8-11.3,6.5-11.3,6.5l0.3-4.7
    l3.6-4.6l5.3-1.2l2.9,1.1l2.3,1.6L52.9,65.8z"/>
<path fill="#444035" d="M53.9,67.7c-0.3,4.8-4.5,8.5-9.3,8.3c-4.9-0.3-8.6-4.5-8.3-9.3c0.3-4.8,4.5-8.5,9.3-8.3
    C50.5,58.7,54.2,62.9,53.9,67.7z M45.5,59.5c-4.2-0.3-7.8,2.9-8.1,7.1c-0.2,4.2,3,7.8,7.2,8c4.2,0.3,7.8-2.9,8.1-7.1
    C52.9,63.4,49.7,59.8,45.5,59.5z"/>
<path fill="#444035" d="M84.9,66.1c-0.3,4.3-4,7.6-8.4,7.3c-4.4-0.3-7.8-4-7.5-8.3c0.3-4.3,4-7.6,8.4-7.3
    C81.8,58.1,85.2,61.8,84.9,66.1z M77.4,58.9c-3.8-0.2-7,2.6-7.2,6.3c-0.2,3.7,2.7,6.9,6.4,7.1c3.8,0.2,7-2.6,7.2-6.3
    C84.1,62.3,81.2,59.1,77.4,58.9z"/>
<radialGradient id="SVGID_16_" cx="46.0191" cy="38.6717" r="41.5083" gradientUnits="userSpaceOnUse">
    <stop  offset="0" style="stop-color:#4D4D4F"/>
    <stop  offset="1" style="stop-color:#231F20"/>
</radialGradient>
<path fill="url(#SVGID_16_)" stroke="#231F20" stroke-width="2" d="M88.8,49.8c0,0,0.9-4.9-0.6-8.8c-1.5-4-9-10.1-10.4-12
    c-1.4-2-1.4-2.9-2.1-3c-0.8-0.2-7.6-2.4-8.8-2.6c-1.2-0.2,0.6,1.1-0.2,1.7c-0.8,0.6-5.5,2.6-12.6,6.6c-7.2,4-9.3,4.6-9.8,4.6
    c-0.5,0-4.3-1.4-6.7,0.5c-2.4,1.8-1.5-2,0.8-3.4c2.3-1.4,2.3-0.6,2.3-0.6S32,34.2,27.6,39c-4.4,4.7-4.3,9.8-6.1,11.4
    c-1.8,1.7-6.7,11.3-7,12.8c-0.3,1.5-0.3,5.5-1.8,6.7c-1.5,1.2,0.2,5.8-0.3,6.4c-0.5,0.6-2.7-6.2-3.5-7.3c-0.8-1.1-3.5-0.5-5.2-3.7
    C2,62.1,1.1,51.2,1.2,49.5c0.2-1.7,0.5-6.2,0.6-7.8c0.2-1.5,0.5-4.4-0.2-5.3c-0.6-0.9-1.1-2.9-0.2-3.8c0.9-0.9,2.9-2,3.4-3.5
    c0.5-1.5,2-5.6,2.1-7.2c0.2-1.5,0.6-2.7,1.7-3.5c1.1-0.8,3-2.7,4.3-3.8c1.2-1.1,0.6-2.1,1.5-3c0.9-0.9,2.6-2.1,4.7-2
    c2.1,0.2,4.4-0.8,5-1.5c0.6-0.8,6.4-3.7,7.6-3.8c1.2-0.2,6.2,0.6,6.7,0.2C39,3.9,44.3,0.7,44.9,1c0.6,0.3,2.6,1.1,3.7,0.9
    c1.1-0.2,3.8-0.2,4.6,0.3c0.8,0.5,2.6,1.5,4.3,1.5c1.7,0,4.7,0,6.6,1.2c1.8,1.2,5.3,2.7,5.5,3.2c0.2,0.5,0.9,1.1,1.5,1.5
    c0.6,0.5,5,2.4,5,3c0,0.6,3.4,5.3,5,6.7c1.7,1.4,3.5,2.7,3.5,3.5c0,0.8,1.7,4.6,3.2,5.6c1.5,1.1,1.8,2,1.7,3.7
    c-0.2,1.7,2,10.4,1.5,11.9c-0.5,1.5-2.3,6.2-2.3,6.2"/>
<radialGradient id="SVGID_17_" cx="43.4528" cy="57.8957" r="9.0001" gradientUnits="userSpaceOnUse">
    <stop  offset="0" style="stop-color:#4D4D4F"/>
    <stop  offset="1" style="stop-color:#231F20"/>
</radialGradient>
<path fill="url(#SVGID_17_)" stroke="#231F20" stroke-width="0.75" d="M55.4,55.3c-1.3-1.8-2.6-1.6-5.5-1.1
    c-4.5,0.8-8.5-0.6-9.7-0.4c-1.2,0.2-1.4-0.6-4.1,1.5c-2.7,2.1-4.8,6.7-4.8,6.7s5.2-5.9,7.7-6.3c4.9-0.8,6.3,1.8,8.2,1.5
    c1.9-0.4,4.4-0.3,5.2-0.9C53.3,55.8,56,56.1,55.4,55.3z"/>
<radialGradient id="SVGID_18_" cx="78.5185" cy="54.0991" r="5.3674" gradientUnits="userSpaceOnUse">
    <stop  offset="0" style="stop-color:#4D4D4F"/>
    <stop  offset="1" style="stop-color:#231F20"/>
</radialGradient>
<path fill="url(#SVGID_18_)" stroke="#231F20" stroke-width="0.75" d="M71.3,55.4c0,0,2.1-2.9,4-3.5c1.9-0.6,7.1,0.2,7.7,0.2
    c0.6,0,2.7,3.3,2.7,3.8c0,0.6-1.6-2.2-4.9-2.5c-3.3-0.4-3.8,2.9-6.5,2.9C71.7,56.3,71.3,57.1,71.3,55.4z"/>
<linearGradient id="SVGID_19_" gradientUnits="userSpaceOnUse" x1="3643.603" y1="-326.2611" x2="3659.6226" y2="-332.899" gradientTransform="matrix(-0.9797 0.2003 0.2003 0.9797 3700.0002 -332.5035)">
    <stop  offset="0" style="stop-color:#C8C3B5"/>
    <stop  offset="1" style="stop-color:#E8E6D6"/>
</linearGradient>
<polygon fill="url(#SVGID_19_)" points="60.9,59.9 63.6,60.6 72.3,88.1 65,94.5 56.6,93.1 55.2,91 "/>
<path fill="#939393" d="M59.6,63.7c0,0,3.1-1.2,3.4,1.1c0.2,2.4,2.4,19.7,0,22.6c-2.4,2.9-7.5,2.3-8,3.2c-0.5,0.9,3.9,5.5,10,4.3
    c6.1-1.2,9.3-1.9,7.5-10.3c-1.8-8.4-10.4-27.7-11.1-26.5C60.6,59.4,59.6,63.7,59.6,63.7z"/>
<polygon fill="#605D55" points="12.2,94.9 13.6,95 16.2,94.9 20.8,87.8 19.9,84.8 14.7,86.4 "/>
<polygon fill="#7A7873" points="16.3,87.3 20.8,87.8 21.3,77 18.5,75.1 13.5,77.9 "/>
<polygon fill="#605D55" points="15.2,77 21.3,77 15.3,67.1 12.2,67.6 9.8,70.2 "/>
<polygon fill="#444035" points="5.2,70.7 5.4,69.3 8.2,67.3 15.3,67.1 9.4,69.8 "/>
<path fill="#918C80" d="M11.3,69l4.7,7.8l0.3,10.5L13.6,95l-4.5,0.1l-4.5-7.2l-0.8-11l1.6-7.6L11.3,69z M9,76.8l-1.1,2.4l0.3,5.2
    l1.8,2.8l2,0.1l1.5-3.7L12.8,79l-2.2-2.4L9,76.8z"/>
<ellipse transform="matrix(0.9982 5.994167e-02 -5.994167e-02 0.9982 6.1299 -1.4691)" fill="none" stroke="#000000" cx="27.6" cy="101.4" rx="0.7" ry="0.8"/>
<ellipse transform="matrix(0.9982 5.994171e-02 -5.994171e-02 0.9982 1.8362 -4.3377)" fill="none" stroke="#000000" cx="73.2" cy="28.4" rx="0.7" ry="0.8"/>
<ellipse transform="matrix(0.9982 5.987900e-02 -5.987900e-02 0.9982 7.9432 -1.9508)" fill="none" stroke="#000000" cx="36.5" cy="131.6" rx="0.7" ry="0.8"/>
<ellipse transform="matrix(0.9982 5.994171e-02 -5.994171e-02 0.9982 7.6001 -3.8149)" fill="none" stroke="#000000" cx="67.4" cy="124.8" rx="0.7" ry="0.8"/>
</svg>