<svg version="1.1"
     xmlns="http://www.w3.org/2000/svg" xmlns:xlink="http://www.w3.org/1999/xlink" xmlns:a="http://ns.adobe.com/AdobeSVGViewerExtensions/3.0/"
     x="0px" y="0px" width="110.1px" height="164.2px" viewBox="0 0 110.1 164.2" enable-background="new 0 0 110.1 164.2"
     xml:space="preserve">
<defs>
</defs>
<path fill="#939393" d="M91.7,57.9c0,0,7.6,1,7.6,4.5c0,2.2-5.1,10-5.1,10l-4-6.3L91.7,57.9z"/>
<path fill="#939393" d="M18.2,56.2c0,0-7.5,2.5-7.2,5.9c0.3,3.4,6.3,9.1,6.3,9.1L18.2,56.2z"/>
<linearGradient id="SVGID_1_" gradientUnits="userSpaceOnUse" x1="55.1614" y1="76.3727" x2="55.1614" y2="33.4837">
    <stop  offset="0" style="stop-color:#BFBFBF"/>
    <stop  offset="1" style="stop-color:#E6E6E6"/>
</linearGradient>
<path fill="url(#SVGID_1_)" stroke="#909091" stroke-width="1.25" d="M14.7,70.4c0,0-1.4-35,4.4-43.6c5.8-8.5,15-12.2,28.8-13.2
    s24.4-0.2,30,1.2c5.6,1.4,11.2,5.4,14.5,18.1c3.3,12.7,4.5,27.5,2.8,38.2C93.3,81.7,48.8,83,48.3,83C47.8,83,14.7,70.4,14.7,70.4z"
    />
<radialGradient id="SVGID_2_" cx="37.9548" cy="-300.9171" r="6.7037" gradientTransform="matrix(1.1902 -8.850000e-02 8.340000e-02 1.164 54.7068 423.9471)" gradientUnits="userSpaceOnUse">
    <stop  offset="0" style="stop-color:#F7FFE7"/>
    <stop  offset="0.9755" style="stop-color:#EAF2CE"/>
</radialGradient>
<path fill="url(#SVGID_2_)" d="M66.8,70.9c0.3,4.3,4.1,7.5,8.5,7.2c4.4-0.3,7.7-4.1,7.4-8.4c-0.3-4.3-4.1-7.5-8.5-7.2
    C69.8,62.8,66.5,66.6,66.8,70.9z"/>
<radialGradient id="SVGID_3_" cx="498.3108" cy="-292.4404" r="0.5668" fx="498.8776" fy="-292.4443" gradientTransform="matrix(6.4203 -0.4774 0.4419 6.155 -2997.8655 2108.1646)" gradientUnits="userSpaceOnUse">
    <stop  offset="0" style="stop-color:#FFFFFF"/>
    <stop  offset="1" style="stop-color:#FFFFFF;stop-opacity:0.21"/>
</radialGradient>
<path fill="url(#SVGID_3_)" d="M75.6,69.9c0.1,1.8-1.4,3.5-3.4,3.6c-2,0.1-3.7-1.2-3.9-3.1c-0.1-1.8,1.4-3.5,3.4-3.6
    C73.8,66.7,75.5,68.1,75.6,69.9z"/>
<radialGradient id="SVGID_4_" cx="45.8835" cy="-301.6668" r="4.4771" gradientTransform="matrix(1.3246 -9.850000e-02 8.830000e-02 1.2315 40.6031 443.2517)" gradientUnits="userSpaceOnUse">
    <stop  offset="0" style="stop-color:#8A5222"/>
    <stop  offset="1" style="stop-color:#000000"/>
</radialGradient>
<path fill="url(#SVGID_4_)" stroke="#000000" stroke-width="0.2" d="M77.7,67.5c0.1,1.9-1.2,3.6-3,3.7c-1.8,0.1-3.4-1.3-3.5-3.2
    c-0.1-1.9,1.2-3.6,3-3.7C75.9,64.2,77.5,65.6,77.7,67.5z"/>
<path d="M75.7,67.4c0.1,0.8-0.6,1.5-1.4,1.5c-0.8,0.1-1.5-0.5-1.6-1.3c-0.1-0.8,0.5-1.5,1.4-1.5C74.9,66,75.6,66.6,75.7,67.4z"/>
<radialGradient id="SVGID_5_" cx="46.1638" cy="-302.0911" r="0.567" fx="46.7308" fy="-302.0951" gradientTransform="matrix(1.3246 -9.850000e-02 8.830000e-02 1.2315 40.6031 443.2517)" gradientUnits="userSpaceOnUse">
    <stop  offset="0" style="stop-color:#FFFFFF"/>
    <stop  offset="1" style="stop-color:#FFFFFF;stop-opacity:0.21"/>
</radialGradient>
<path fill="url(#SVGID_5_)" d="M75.8,66.6c0,0.4-0.3,0.7-0.7,0.7c-0.4,0-0.8-0.2-0.8-0.6c0-0.4,0.3-0.7,0.7-0.7
    C75.4,66,75.8,66.2,75.8,66.6z"/>
<path fill="#918C80" stroke="#231A18" stroke-width="0.5" d="M82.2,68.9c0,0-4.6-3.6-9.1-3c-2.7,0.4-6.4,3.3-6.4,3.3l1.2-3.5
    l2.3-2.3l3.8-1.2l3,0.3l3.7,2.3L82.2,68.9z"/>
<path fill="#444035" d="M83,69.7c0.3,4.7-3.3,8.7-8,9.1c-4.8,0.4-8.9-3.1-9.2-7.8c-0.3-4.7,3.3-8.7,8-9.1
    C78.5,61.6,82.6,65.1,83,69.7z M73.9,63.1c-4.1,0.3-7.2,3.8-6.9,7.8c0.3,4,3.8,7,7.9,6.7c4.1-0.3,7.2-3.8,6.9-7.8
    C81.5,65.8,78,62.8,73.9,63.1z"/>
<radialGradient id="SVGID_6_" cx="35.9973" cy="71.6154" r="6.8441" gradientTransform="matrix(1.1611 6.970000e-02 -6.580000e-02 1.0963 0.2348 -8.9324)" gradientUnits="userSpaceOnUse">
    <stop  offset="0" style="stop-color:#F7FFE7"/>
    <stop  offset="0.9755" style="stop-color:#EAF2CE"/>
</radialGradient>
<path fill="url(#SVGID_6_)" d="M29.4,71.6c-0.2,4.1,3.1,7.7,7.5,8c4.4,0.3,8.1-2.9,8.4-7c0.2-4.1-3.1-7.7-7.5-8
    C33.4,64.3,29.6,67.5,29.4,71.6z"/>
<linearGradient id="SVGID_7_" gradientUnits="userSpaceOnUse" x1="35.8598" y1="68.2857" x2="36.3658" y2="64.5266" gradientTransform="matrix(1.1611 6.970000e-02 -6.580000e-02 1.0963 0.2348 -8.9324)">
    <stop  offset="0" style="stop-color:#FFFFFF;stop-opacity:0.21"/>
    <stop  offset="1" style="stop-color:#E7FFF8;stop-opacity:0.9386"/>
</linearGradient>
<path fill="url(#SVGID_7_)" d="M29.4,69.8c0,0,5.4-2.1,9.6-1.9c4.2,0.2,5.8,1.8,5.8,1.8l-2.6-3.5l-3.5-1.8l-2.9,0.1l-3.7,1.3
    L29.4,69.8z"/>
<radialGradient id="SVGID_8_" cx="35.7662" cy="68.0684" r="3.6217" gradientTransform="matrix(1.1611 6.970000e-02 -6.580000e-02 1.0963 0.2348 -8.9324)" gradientUnits="userSpaceOnUse">
    <stop  offset="0" style="stop-color:#8A5222"/>
    <stop  offset="1" style="stop-color:#000000"/>
</radialGradient>
<path fill="url(#SVGID_8_)" stroke="#000000" stroke-width="0.2" d="M40.6,69c-0.1,1.9-1.7,3.4-3.5,3.3c-1.8-0.1-3.2-1.7-3.1-3.7
    c0.1-1.9,1.7-3.4,3.5-3.3C39.3,65.5,40.7,67.1,40.6,69z"/>
<path d="M38.6,68.4c0,0.8-0.7,1.4-1.5,1.4c-0.8,0-1.4-0.7-1.4-1.5c0.1-0.8,0.7-1.4,1.5-1.4C38.1,66.9,38.7,67.6,38.6,68.4z"/>
<radialGradient id="SVGID_9_" cx="36.1107" cy="67.0801" r="0.5075" fx="36.6182" fy="67.0766" gradientTransform="matrix(1.1611 6.970000e-02 -6.580000e-02 1.0963 0.2348 -8.9324)" gradientUnits="userSpaceOnUse">
    <stop  offset="0" style="stop-color:#FFFFFF"/>
    <stop  offset="1" style="stop-color:#FFFFFF;stop-opacity:0.21"/>
</radialGradient>
<path fill="url(#SVGID_9_)" d="M38.3,67.1c0,0.3-0.3,0.5-0.6,0.5c-0.3,0-0.6-0.3-0.6-0.6c0-0.3,0.3-0.5,0.6-0.5
    C38.1,66.6,38.3,66.8,38.3,67.1z"/>
<radialGradient id="SVGID_10_" cx="322.2561" cy="-156.4314" r="0.5082" fx="322.7643" fy="-156.4349" gradientTransform="matrix(2.3288 0.1397 -0.1757 2.93 -737.0864 481.065)" gradientUnits="userSpaceOnUse">
    <stop  offset="0" style="stop-color:#FFFFFF"/>
    <stop  offset="1" style="stop-color:#FFFFFF;stop-opacity:0.21"/>
</radialGradient>
<path fill="url(#SVGID_10_)" d="M42,67.8c0,0.8-0.6,1.4-1.3,1.4c-0.7,0-1.1-0.7-1.1-1.5c0-0.8,0.6-1.4,1.3-1.4
    C41.5,66.3,42,67,42,67.8z"/>
<path fill="#918C80" stroke="#231A18" stroke-width="0.5" d="M44.5,68.7c0,0-3.2-1.5-5.6-1.8c-6.1-0.8-9.7,3.3-9.7,3.3l1.2-2.7
    l3.8-2.9l3.9-0.7l2.7,1l2.1,1.5L44.5,68.7z"/>
<path fill="#444035" d="M45.9,72.8c-0.3,4.8-4.4,8.4-9.2,8.1c-4.8-0.3-8.4-4.4-8.2-9.2c0.3-4.8,4.4-8.4,9.2-8.1
    C42.5,63.9,46.2,68,45.9,72.8z M37.6,64.7c-4.1-0.2-7.7,2.9-7.9,7c-0.2,4.1,2.9,7.7,7,7.9c4.1,0.2,7.7-2.9,7.9-7
    C44.9,68.5,41.7,65,37.6,64.7z"/>
<path fill="#444035" d="M106.4,60c0,0-2.6-3-3.8-2.9c-0.4,0-2.5,6.8-2.6,13.9c-0.2,7.6,1.4,14.8,2.8,15.1c1.4,0.3,5.4-12.3,5.4-12.3
    L106.4,60z"/>
<path fill="#444035" d="M36.7,122l-13.7,29.9c0,0,3.1,12.5,32.5,12.3c29.4-0.2,31-12.3,31-12.3l-16.3-32.2L36.7,122z"/>
<path fill="#444035" d="M5.5,60.2c0,0,0.8-2.5,2.3-2.3c0.9,0.1,2.5,5.3,2.6,14.7c0.1,10.3-1.2,14-1.9,13.9c-2-0.5-6-10.1-6.2-15.3
    C2.1,65.9,5.5,60.2,5.5,60.2z"/>
<polygon fill="#939393" stroke="#514E44" stroke-width="1.25" points="2.9,67.5 12.3,67.5 15.1,71.5 13.5,73.5 3.1,73.6 "/>
<polygon fill="#939393" stroke="#514E44" stroke-width="1.25" points="96.8,68.2 107.7,68.2 108.2,73.8 96.7,73.6 "/>
<path fill="#918C80" stroke="#444035" d="M103.2,57.3c0,0,0.9-0.1,2.3,0.1c0.9,0.2,1.9,0.5,1.9,0.5s2.3,6.2,2.2,12.7
    c-0.1,10-2.5,14.8-2.5,14.8s-0.8,0.3-1.8,0.4c-0.9,0.1-2,0-2,0s1.9-5.1,2-14.9C105.5,62,103.2,57.3,103.2,57.3z"/>
<path fill="#918C80" stroke="#444035" d="M7.7,58.1H3.2c0,0-3,3.6-2.7,13.9C0.7,82.3,3.9,86,3.9,86L8,86.1c0,0-3.2-5.6-3.3-14
    C4.6,62.8,7.7,58.1,7.7,58.1z"/>
<radialGradient id="SVGID_11_" cx="140.8754" cy="136.6416" r="55.2526" gradientTransform="matrix(0.9973 7.330000e-02 -7.330000e-02 0.9973 -77.4668 -86.9883)" gradientUnits="userSpaceOnUse">
    <stop  offset="0" style="stop-color:#3D2D13"/>
    <stop  offset="1" style="stop-color:#391F14"/>
</radialGradient>
<path fill="url(#SVGID_11_)" stroke="#717677" d="M31,118.5c0,0-11.1-21.6-11.8-25.6c-0.7-4-0.3-9.6-1.8-11.9
    c-1.5-2.3-2.2-7.3-1.6-11.4c0.5-4.1,2.8-7.9,3-10.1c0.2-2.2-3.1-20.8-0.6-24.8c2.5-4,5.1-12.6,10.3-13.5c5.2-0.8,14.4,1.5,17.8,1.3
    c3.5-0.2,8.8-3.5,11.7-1.8c2.8,1.7,7.7,2.8,10.6,3c2.9,0.2,6.9,0.3,8-2.4c1.2-2.6,3.7-0.2,5.9,3.4c2.2,3.6,6.5,8.8,7.8,14.6
    c1.3,5.7,1.9,18.1,2.6,21.5c0.7,3.5,2.9,10.3,1.8,18.3c-1.1,8-2.8,11.5-3.1,14.9c-0.3,3.4-2,8.1-4.5,12.1c-2.5,4-4.1,9.8-5.4,10.7
    c-1.3,0.9,1.4,0.4,4.6-2.9c3.2-3.2,5.4-7.3,7.8-12.6c2.3-5.2,2.5-13.8,3.3-18.4c0.8-4.6,1.7-13.1,0.6-15.4c-1.1-2.3,0.8-3.7,0.5-5.7
    c-0.3-2,5.4-7.4,4.2-11.4c-1.2-4-1.1-5,0.3-7.3c1.4-2.4,1.6-1.6,0.8-3.9c-0.8-2.3,0,0.5,0.7-2.9c0.7-3.4-1.3-5.5-3.8-8.9
    c-2.5-3.4-4.7-9.7-8.3-10.9c-3.6-1.2-4.6-1.3-4.4-3.8c0.2-2.4-4.4-4.2-5.2-6.3c-0.8-2-7.6-6.5-9.9-5.9c-2.3,0.6-6.6,2.7-8.5,1.6
    c-1.9-1.1-7.7-2.8-12-0.9c-4.3,1.9-6.8,2.4-9.1,3.5c-2.3,1.1-5.5,4.3-7.1,2.9c-1.6-1.3-6.2-6.1-9.8-3.7c-3.6,2.4-5,8-7.1,9.8
    c-2.1,1.8-2.1,1.6-3.7,3.9c-1.6,2.3-7.1,3.4-8.5,6S4.6,35.4,5.3,38.6c0.7,3.2,1.4,7.5,0.9,10.6c-0.5,3.2,1.5,6,4,8.9
    c2.5,2.9,1.4,10.3,1.4,13.2c0,2.9,0.4,8.1,1.2,11.3c0.7,3.2,2.7,17.2,6.1,23.7c3,5.8,4.4,7.9,6.5,9.3C27.7,117,31,118.5,31,118.5z"
    />
<linearGradient id="SVGID_12_" gradientUnits="userSpaceOnUse" x1="55.0894" y1="71.5073" x2="55.0894" y2="122.6673">
    <stop  offset="0" style="stop-color:#BFBFBF"/>
    <stop  offset="1" style="stop-color:#E6E6E6"/>
</linearGradient>
<path fill="url(#SVGID_12_)" stroke="#939598" d="M11.2,61.7c0,0-2.2,12.4,49,10.7C99.9,71.1,99,62.1,99,62.1s-4.4,41.1-16.7,54.8
    c-9.4,10.5-13.7,12.2-28.3,11.9c-14.6-0.3-25.8-6.1-34.7-28.1C10.4,78.7,11.2,61.7,11.2,61.7z"/>
<linearGradient id="SVGID_13_" gradientUnits="userSpaceOnUse" x1="37.1044" y1="116.962" x2="72.4278" y2="116.962">
    <stop  offset="0" style="stop-color:#BFBFBF"/>
    <stop  offset="1" style="stop-color:#E6E6E6"/>
</linearGradient>
<path fill="url(#SVGID_13_)" stroke="#A39D9D" stroke-width="1.5" d="M37.5,101.2c0,0-0.4,5.7-0.4,13.4c0,7.7-0.5,11.8,1.6,13.7
    c1.8,1.6,6.8,3.6,13.8,4.2c0.8,0.1,1.6-2.1,2.4-2.1c0.6,0,2.4,2.3,3,2.3c9.1-0.1,13.8-1.9,14.1-5.9c0.3-4,0.3-6.8,0.2-11.7
    c-0.2-5.4-0.8-13.9-0.8-13.9s-6,2.5-16.5,2.5S37.5,101.2,37.5,101.2z"/>
<rect x="41.5" y="83.4" fill="#444035" width="27.3" height="5.6"/>
<polygon fill="#514E44" stroke="#939393" stroke-width="0.75" points="52.6,92.3 58.3,92.4 61.7,88.9 61.7,83.5 58.4,79.7 
    52.6,79.8 49.1,83.5 49.1,89.1 "/>
<radialGradient id="SVGID_14_" cx="55.2583" cy="85.9813" r="4.895" gradientUnits="userSpaceOnUse">
    <stop  offset="0" style="stop-color:#E6E6E6"/>
    <stop  offset="1" style="stop-color:#808080"/>
</radialGradient>
<circle fill="url(#SVGID_14_)" stroke="#58595B" stroke-width="0.75" cx="55.3" cy="86" r="4.9"/>
<radialGradient id="SVGID_15_" cx="180.6415" cy="166.1341" r="19.7897" gradientTransform="matrix(0.9973 7.330000e-02 -7.330000e-02 0.9973 -77.4668 -86.9883)" gradientUnits="userSpaceOnUse">
    <stop  offset="0" style="stop-color:#3D2D13"/>
    <stop  offset="1" style="stop-color:#391F14"/>
</radialGradient>
<path fill="url(#SVGID_15_)" stroke="#717677" d="M94.4,68.3c1,3.4,1.5,2.7,0.4,10.7c-1.1,8-2.8,11.5-3.1,14.9
    c-0.3,3.4-2,8.1-4.5,12.1c-2.5,4-4.8,11-6.1,11.9c-1.3,0.9,2.2-0.9,5.4-4.1c3.2-3.2,5.4-7.3,7.8-12.6c2.3-5.2,3.1-11.4,3.9-16
    c0.8-4.6,3-20.9,0.8-19.6C97.8,66.4,94.3,68,94.4,68.3z"/>
<radialGradient id="SVGID_16_" cx="110.5819" cy="171.5609" r="20.1604" gradientTransform="matrix(0.9973 7.330000e-02 -7.330000e-02 0.9973 -77.4668 -86.9883)" gradientUnits="userSpaceOnUse">
    <stop  offset="0" style="stop-color:#3D2D13"/>
    <stop  offset="1" style="stop-color:#391F14"/>
</radialGradient>
<path fill="url(#SVGID_16_)" stroke="#717677" d="M30.4,118.9c0,0-11.1-21.6-11.8-25.6c-0.7-4-0.3-9.6-1.8-11.9
    c-1.5-2.3-2.2-8.3-1.7-12.4c0,0-5-4.1-5-3.3c0,1.5,0.6,3,0.7,7.5c0,2.9,0.7,6.6,1.4,9.9c0.7,3.2,2.7,17.2,6.1,23.7
    c3,5.8,4.4,7.9,6.5,9.3C27,117.4,30.4,118.9,30.4,118.9z"/>
<radialGradient id="SVGID_17_" cx="75.0766" cy="57.601" r="7.4523" gradientUnits="userSpaceOnUse">
    <stop  offset="0" style="stop-color:#3D2D13"/>
    <stop  offset="1" style="stop-color:#391F14"/>
</radialGradient>
<path fill="url(#SVGID_17_)" stroke="#717677" stroke-width="0.5" d="M64.9,58.6c-0.2-1.4,3.5-4.5,6.2-3.7c2.7,0.8,8.2,1.4,9,1
    c0.8-0.4,4.1,0.2,4.9,0.8c0.8,0.6-1.8,2.5-3.5,2.7c-1.6,0.2-4.6,1.4-8,1c-3.4-0.4-5.7-0.6-6.8-0.4C65.8,60.2,65.2,59.8,64.9,58.6z"
    />
<radialGradient id="SVGID_18_" cx="36.4038" cy="60.0571" r="8.5628" gradientUnits="userSpaceOnUse">
    <stop  offset="0" style="stop-color:#3D2D13"/>
    <stop  offset="1" style="stop-color:#391F14"/>
</radialGradient>
<path fill="url(#SVGID_18_)" stroke="#717677" stroke-width="0.5" d="M48.1,60.8c0,0-2.1-2.3-3.3-2.9c-1.2-0.6-5.5-0.2-8,0
    c-2.5,0.2-6.6-1.4-8.4-0.8c-1.8,0.6-3.5,2.1-3.7,3.3c-0.2,1.2,0.8,3.1,2.1,2.7c1.2-0.4,4.9-1.2,6.8-1.2c1.8,0,6.6,0.2,8.8-0.2
    C44.6,61.2,47.5,61.8,48.1,60.8z"/>
<ellipse transform="matrix(-0.9982 6.014878e-02 -6.014878e-02 -0.9982 87.7741 213.4253)" fill="none" stroke="#000000" cx="40.7" cy="108" rx="0.7" ry="0.8"/>
<ellipse transform="matrix(-0.9982 6.007881e-02 -6.007881e-02 -0.9982 141.5223 211.1503)" fill="none" stroke="#000000" cx="67.6" cy="107.7" rx="0.7" ry="0.8"/>
<ellipse transform="matrix(-0.9982 6.014473e-02 -6.014473e-02 -0.9982 157.5112 54.8176)" fill="none" stroke="#000000" cx="77.9" cy="29.8" rx="0.7" ry="0.8"/>
<ellipse transform="matrix(-0.9982 6.007881e-02 -6.007881e-02 -0.9982 44.6239 147.5549)" fill="none" stroke="#000000" cx="20.1" cy="74.4" rx="0.7" ry="0.8"/>
</svg>