<svg version="1.1"
     xmlns="http://www.w3.org/2000/svg" xmlns:xlink="http://www.w3.org/1999/xlink" xmlns:a="http://ns.adobe.com/AdobeSVGViewerExtensions/3.0/"
     x="0px" y="0px" width="110.3px" height="164.6px" viewBox="0 0 110.3 164.6" enable-background="new 0 0 110.3 164.6"
     xml:space="preserve">
<defs>
</defs>
<linearGradient id="SVGID_1_" gradientUnits="userSpaceOnUse" x1="40.9803" y1="155.6732" x2="73.5276" y2="155.6732">
    <stop  offset="0" style="stop-color:#BFBFBF"/>
    <stop  offset="1" style="stop-color:#E6E6E6"/>
</linearGradient>
<path fill="url(#SVGID_1_)" stroke="#8A8C8E" stroke-width="0.75" d="M45.6,147.1c0,0-4.1,2.2-4.4,4.1c-0.3,1.8-0.6,6.8,0.9,8.6
    c1.5,1.9,6.7,4.2,16.2,4.4c6.3,0.1,13.6-1.8,14.6-4.2c1-2.4,0.5-5.9,0.4-7.2c-0.2-2.7-3.3-3.4-3.3-3.4L45.6,147.1z"/>
<linearGradient id="SVGID_2_" gradientUnits="userSpaceOnUse" x1="45.6698" y1="145.8213" x2="68.6685" y2="145.8213">
    <stop  offset="0" style="stop-color:#BFBFBF"/>
    <stop  offset="1" style="stop-color:#E6E6E6"/>
</linearGradient>
<path fill="url(#SVGID_2_)" stroke="#A7A9AC" stroke-width="0.75" d="M48.8,140.4c0,0-1.9,1.9-2.6,3.5c-0.7,1.6-0.7,4.8,0.3,5.8
    c1.1,1.1,6.3,1.6,11.8,1.6c5.3,0,9.7-0.5,10-1.5c0.4-1.7,0.5-2.7,0.2-4.7c-0.3-1.7-4.3-3.5-5.3-3.8
    C62.1,140.9,48.8,140.4,48.8,140.4z"/>
<linearGradient id="SVGID_3_" gradientUnits="userSpaceOnUse" x1="56.8046" y1="136.7739" x2="56.5218" y2="150.733">
    <stop  offset="0" style="stop-color:#9C9C9C"/>
    <stop  offset="1" style="stop-color:#E6E6E6"/>
</linearGradient>
<path fill="url(#SVGID_3_)" stroke="#8A8C8E" stroke-width="0.75" d="M39.5,132.3c0,0-1,4.7,0.1,7.8c1,3,2.7,3.4,5.4,4.2
    c2.6,0.8,6.7,1.3,11.5,1.3c5.7,0,9.7-0.3,11.9-1.1c3.3-1.2,5.4-2.4,6-4.4c0.6-2.1,0.3-8.3-1-9.8c-1.3-1.5-20.1,4.3-20.1,4.3
    L39.5,132.3z"/>
<path fill="#444035" d="M13.2,67.9c0,0,0.8,0.6,0.8,2.2c0,1.3-1,2-1,2l-7.2,0.3l-0.3-4.4L13.2,67.9z"/>
<path fill="#444035" d="M104,67.9c0,0,0.8,0.6,0.8,2.2c0,1.3-1,2-1,2l-7.2,0.3l-0.3-4.4L104,67.9z"/>
<linearGradient id="SVGID_4_" gradientUnits="userSpaceOnUse" x1="55.1733" y1="117.7107" x2="55.1733" y2="35.6618">
    <stop  offset="0" style="stop-color:#BFBFBF"/>
    <stop  offset="1" style="stop-color:#E6E6E6"/>
</linearGradient>
<polygon fill="url(#SVGID_4_)" stroke="#A7A9AC" points="96.2,53.8 95.4,92.3 69.1,127.8 31.7,119.5 17,95.3 14.1,41.4 26.8,28.2 
    68.6,12.9 83.2,15.2 "/>
<radialGradient id="SVGID_5_" cx="-45.7085" cy="112.3429" r="7.192" gradientTransform="matrix(1.1584 0.1054 -9.940000e-02 1.0938 99.8134 -52.9816)" gradientUnits="userSpaceOnUse">
    <stop  offset="0" style="stop-color:#F7FFE7"/>
    <stop  offset="0.9755" style="stop-color:#EAF2CE"/>
</radialGradient>
<path fill="url(#SVGID_5_)" d="M27.4,64.3c-0.4,4.3,3,8.2,7.6,8.6c4.6,0.4,8.7-2.8,9-7.1c0.4-4.3-3-8.2-7.6-8.6
    C31.8,56.8,27.8,60,27.4,64.3z"/>
<radialGradient id="SVGID_6_" cx="-45.8108" cy="110.2058" r="4.0187" gradientTransform="matrix(1.1584 0.1054 -9.940000e-02 1.0938 99.8134 -52.9816)" gradientUnits="userSpaceOnUse">
    <stop  offset="0" style="stop-color:#98D6CF"/>
    <stop  offset="1" style="stop-color:#0D133D"/>
</radialGradient>
<path fill="url(#SVGID_6_)" stroke="#000000" stroke-width="0.2" d="M39.4,63.8c-0.2,2.1-2,3.7-4,3.5c-2-0.2-3.5-2.1-3.3-4.2
    c0.2-2.1,2-3.7,4-3.5C38.1,59.8,39.6,61.6,39.4,63.8z"/>
<path d="M37.4,63.2c-0.1,0.9-0.9,1.6-1.7,1.5c-0.9-0.1-1.5-0.9-1.5-1.8c0.1-0.9,0.9-1.5,1.7-1.5C36.9,61.5,37.5,62.3,37.4,63.2z"/>
<path fill="#918C80" stroke="#231A18" stroke-width="0.5" d="M27.1,65c0,0,4,0.6,7.5,0.6c2.1,0,5-0.8,6.6-0.9
    c1.5-0.1,2.9,0.3,2.9,0.3l-0.6,3.5l-2.9,3.6l-5.9,1.6l-2.5-0.6l-3.6-2.3L27,66.6L27.1,65z"/>
<radialGradient id="SVGID_7_" cx="-45.3774" cy="109.6323" r="0.5629" fx="-44.8145" fy="109.6284" gradientTransform="matrix(1.1584 0.1054 -9.940000e-02 1.0938 99.8134 -52.9816)" gradientUnits="userSpaceOnUse">
    <stop  offset="0" style="stop-color:#FFFFFF"/>
    <stop  offset="1" style="stop-color:#FFFFFF;stop-opacity:0.21"/>
</radialGradient>
<path fill="url(#SVGID_7_)" d="M37,62.2c0,0.3-0.3,0.6-0.7,0.5c-0.4,0-0.6-0.3-0.6-0.6c0-0.3,0.3-0.6,0.7-0.5
    C36.7,61.6,37,61.9,37,62.2z"/>
<radialGradient id="SVGID_8_" cx="187.717" cy="-21.3869" r="0.5637" fx="188.2807" fy="-21.3908" gradientTransform="matrix(2.3234 0.2112 -0.2656 2.9232 -402.7718 83.8663)" gradientUnits="userSpaceOnUse">
    <stop  offset="0" style="stop-color:#FFFFFF"/>
    <stop  offset="1" style="stop-color:#FFFFFF;stop-opacity:0.21"/>
</radialGradient>
<path fill="url(#SVGID_8_)" d="M40.3,61c-0.1,0.9-0.7,1.5-1.4,1.5c-0.7-0.1-1.2-0.8-1.2-1.7c0.1-0.9,0.7-1.5,1.4-1.5
    C39.8,59.4,40.4,60.2,40.3,61z"/>
<path fill="#918C80" stroke="#231A18" stroke-width="0.5" d="M44.1,65c0,0-3-3.7-7.8-4.1c-3.7-0.3-9.5,4.2-9.5,4.2l1.6-4.7l3.7-3.3
    l4.5-0.6l3.2,1.2l2.3,1.7L44.1,65z"/>
<path fill="#444035" d="M44.7,66.1c-0.5,5-4.9,8.7-9.9,8.2c-5-0.5-8.7-4.9-8.3-9.9c0.5-5,4.9-8.7,9.9-8.2
    C41.4,56.7,45.1,61.1,44.7,66.1z M36.2,57.3c-4.3-0.4-8.2,2.8-8.6,7.1c-0.4,4.3,2.8,8.1,7.2,8.5c4.3,0.4,8.2-2.8,8.6-7.1
    C43.8,61.6,40.6,57.7,36.2,57.3z"/>
<radialGradient id="SVGID_9_" cx="-10.2976" cy="147.0141" r="7.1376" gradientTransform="matrix(1.1837 0.1517 -0.1515 1.1571 106.0006 -106.1725)" gradientUnits="userSpaceOnUse">
    <stop  offset="0" style="stop-color:#F7FFE7"/>
    <stop  offset="0.9755" style="stop-color:#EAF2CE"/>
</radialGradient>
<path fill="url(#SVGID_9_)" d="M63.1,61.3c-0.6,4.6,2.7,8.7,7.4,9.3c4.7,0.6,8.9-2.6,9.5-7.2c0.6-4.6-2.7-8.7-7.4-9.3
    C68,53.5,63.7,56.7,63.1,61.3z"/>
<radialGradient id="SVGID_10_" cx="336.8386" cy="-53.0695" r="0.6034" fx="337.442" fy="-53.0737" gradientTransform="matrix(6.3858 0.8187 -0.8004 6.1188 -2124.6025 110.7579)" gradientUnits="userSpaceOnUse">
    <stop  offset="0" style="stop-color:#FFFFFF"/>
    <stop  offset="1" style="stop-color:#FFFFFF;stop-opacity:0.21"/>
</radialGradient>
<path fill="url(#SVGID_10_)" d="M72.5,62.1c-0.3,2-2.2,3.3-4.3,3.1c-2.1-0.3-3.6-2.1-3.4-4c0.3-2,2.2-3.3,4.3-3
    C71.2,58.4,72.8,60.2,72.5,62.1z"/>
<radialGradient id="SVGID_11_" cx="-17.1942" cy="133.1645" r="4.7668" gradientTransform="matrix(1.3175 0.1688 -0.1602 1.2242 116.2097 -100.0767)" gradientUnits="userSpaceOnUse">
    <stop  offset="0" style="stop-color:#98D6CF"/>
    <stop  offset="1" style="stop-color:#0D133D"/>
</radialGradient>
<path fill="url(#SVGID_11_)" stroke="#000000" stroke-width="0.2" d="M75.2,61c-0.3,2-2,3.4-4,3.2c-1.9-0.2-3.3-2.1-3-4.1
    c0.3-2,2-3.4,4-3.2C74.1,57.1,75.5,59,75.2,61z"/>
<path d="M73.4,60.4c-0.1,0.9-0.9,1.5-1.7,1.4c-0.8-0.1-1.4-0.9-1.3-1.8c0.1-0.9,0.9-1.5,1.7-1.4C72.9,58.8,73.5,59.6,73.4,60.4z"/>
<path fill="#918C80" stroke="#231A18" stroke-width="0.5" d="M62.8,63.8c0,0,1.5-1,2.3-1c2,0,4.7,0,6.6,0c1.2,0,4.2-1.1,5.5-1.2
    c1.4-0.1,2.5,0,2.5,0l-1,4.7l-3.3,3.3l-4.6,1.1l-4.5-1.4L63,66L62.8,63.8z"/>
<path fill="#918C80" stroke="#231A18" stroke-width="0.5" d="M80,62.9c0,0-1.8-4.6-7.6-4.8c-2.5-0.1-4.7,1-6.5,2.2
    c-1.3,0.9-3.5,3.3-3.5,3.3l1.2-5.6l4.1-3.2l4.5-0.4l3.3,1.1l3.1,2.8L80,62.9z"/>
<path fill="#444035" d="M80.2,63.5c-0.6,4.9-5.3,8.4-10.3,7.8c-5-0.6-8.6-5.2-8-10.1c0.6-4.9,5.3-8.4,10.3-7.8
    C77.3,54,80.8,58.6,80.2,63.5z M72.1,54.7c-4.3-0.6-8.3,2.4-8.8,6.7c-0.6,4.2,2.5,8.1,6.8,8.7c4.3,0.6,8.3-2.4,8.8-6.7
    C79.5,59.1,76.5,55.2,72.1,54.7z"/>
<radialGradient id="SVGID_12_" cx="-17.0077" cy="133.2769" r="0.604" fx="-16.4037" fy="133.2726" gradientTransform="matrix(1.3175 0.1688 -0.1602 1.2242 116.2097 -100.0767)" gradientUnits="userSpaceOnUse">
    <stop  offset="0" style="stop-color:#FFFFFF"/>
    <stop  offset="1" style="stop-color:#FFFFFF;stop-opacity:0.21"/>
</radialGradient>
<path fill="url(#SVGID_12_)" d="M73.2,60.3c-0.1,0.4-0.5,0.7-0.9,0.6c-0.4-0.1-0.8-0.4-0.7-0.8c0.1-0.4,0.4-0.7,0.9-0.6
    C72.9,59.5,73.3,59.9,73.2,60.3z"/>
<polygon fill="#4F727F" stroke="#374F56" points="43.5,53.5 26.8,53.2 20.6,60.9 21.6,61.4 27.7,56.9 42.8,57.2 "/>
<polygon fill="#4F727F" stroke="#374F56" points="62.3,50.9 62.3,54.7 69,54.3 71.5,52.4 79,52.1 86,55.8 86.6,55.1 78.7,49.6 
    72.9,49.6 70.3,49 "/>
<polygon fill="none" stroke="#000000" points="36.1,97.4 36.2,124.3 74.9,126.8 76.3,94 57.6,101.6 "/>
<rect x="42.6" y="80.3" fill="#444035" width="9.8" height="8.1"/>
<rect x="57.5" y="80.3" fill="#444035" width="9.8" height="8.1"/>
<rect x="47.1" y="77.6" fill="#939393" stroke="#514E44" stroke-width="1.25" width="14.8" height="12.9"/>
<path fill="#4F727F" stroke="#374F56" d="M77.5,17c0,0-16,1.9-28.4,5.1c-12.4,3.2-28,17.1-28,17.1s-2.9,5.8-4.3,10.9
    c-1.4,5.2-4.8,18.8-4.8,18.8S11,65,10.4,59.8c-0.3-2.5-2.6-3.5-2.6-5.5c0-5.2-2.2-10.1-0.4-18.5C9.1,27.5,17.9,11.7,21,10
    c3.2-1.7,8.4-2.8,9.8-3.6c1.4-0.9,3.2-3.4,5.5-4c2.3-0.6,6.6-1.2,9.8-1.2c3.2,0,5.2,1.2,6.6,0.9c1.4-0.3,3.2-2.3,8.1-1.2
    C65.7,2,74.3,2.6,74.3,2.6L81.9,8c0,0,10.6-0.9,16.6,18.9c4.6,15.1,2.8,20.7,2.8,20.7l-2.1,17.7c0,0-2-9.7-4-12.3
    c-2-2.6-6.6-7.3-6.6-7.3l0.2-5.8l-8-14l-0.9-5.8L77.5,17z"/>
<path fill="#4F727F" stroke="#374F56" d="M60.6,23.7c0,0-7.7,9.9-10.5,9.9c-2.9,0-7.7,0.6-10.2,1.9c-2.6,1.3-1,5.4-8.3,5.4
    c-7.3,0-10.5-4.5-10.8-2.2c-0.3,2.2-7.3-2.6-1.6-8.9c5.7-6.4,18.8-14.7,29.3-15.6C59,13.2,60.6,23.7,60.6,23.7z"/>
<path fill="#4F727F" stroke="#374F56" d="M77,15.3c0,0,2.2,5.4-5.1,7.3c-7.3,1.9-16.9-5.4-27.7-4.8c-10.8,0.6-22.6,4.8-22.6,4.8
    s7-10.2,20.7-10.2c2.2,0,7-6.1,19.1-4.1C73.5,10.2,77,15.3,77,15.3z"/>
<ellipse transform="matrix(-0.9982 6.023398e-02 -6.023398e-02 -0.9982 143.7572 30.3408)" fill="none" stroke="#000000" cx="71.4" cy="17.3" rx="0.7" ry="0.8"/>
<ellipse transform="matrix(-0.9982 5.995648e-02 -5.995648e-02 -0.9982 46.7796 63.9684)" fill="none" stroke="#000000" cx="22.4" cy="32.7" rx="0.7" ry="0.8"/>
<path d="M14.7,61.4l3.2,22.2l13.2,17.8l-0.4-2.2l0.6-3.7l4.3-2.6l6.4,0.4l3.6-1.4l7.1,2.2l-14.2,2.1l-3.4,2.1l-0.9,11.8l-11.8-3.2
    c0,0-7.5-23.4-7.5-24.3c0-0.9-1.7-17.9-1.7-17.9L14.7,61.4z"/>
<path fill="#FFFFFF" stroke="#717677" stroke-width="4" d="M38.4,97.8c0,0,9.7,7.6,19.9,5.8c10.3-1.8,15.4-9.6,15.4-9.6
    s-15.6,2.5-17.5,2.5c-1.9,0-2.1-0.2-3.1,0.2C52.1,97,38.4,97.8,38.4,97.8z"/>
<polygon fill="#4F727F" stroke="#374F56" points="54.5,92.1 45.9,92.3 42.6,94.6 36.1,94.2 32.5,96.3 32.1,100.2 33,106.3 
    16.3,84.2 14.2,56.7 11.4,66.1 18.6,105.4 19.8,109.6 25.7,120.1 38.8,133.6 37.4,104 37.1,98.4 54.7,96.9 "/>
<polygon points="96.9,55.8 95.3,53 93.5,79.5 81.6,99.5 81.2,92.8 77.6,90.1 56,91.2 61.4,93.5 78.3,95.5 79.6,114.3 95.4,92.3 
    96.9,74.4 "/>
<polygon fill="#4F727F" stroke="#374F56" points="55.8,92.1 56.3,97 74.6,96.3 74.1,134 87.7,119.3 96.1,99.9 99.5,59.1 96.4,56.2 
    95.4,80.6 79.5,106.8 80.4,99 80.2,94.4 77.7,92.3 "/>
<polygon points="35.2,115.2 37.3,115.1 45.1,120.5 45.3,113.2 55.4,114.8 65.6,112.2 65.7,119 72.7,115.4 75.6,115.2 72.9,123.4 
    59.2,131 43.8,125.7 "/>
<path fill="#4F727F" stroke="#374F56" d="M75.3,115.9l-11.5,6.7l0-7.9l-8.4,1.7l-8.8-1.7v8.3l-10.7-7.1l0.3,17.4
    c0,0,7.4,7.6,20.9,6.5c13.4-1.2,18.4-5.5,18.4-5.5L75.3,115.9z"/>
<ellipse transform="matrix(-0.9982 5.999766e-02 -5.999766e-02 -0.9982 151.5405 241.1813)" fill="none" stroke="#000000" cx="72.1" cy="122.9" rx="0.7" ry="0.8"/>
<ellipse transform="matrix(-0.9982 5.996077e-02 -5.996077e-02 -0.9982 84.2558 243.2031)" fill="none" stroke="#000000" cx="38.5" cy="122.9" rx="0.7" ry="0.8"/>
<path fill="#918C80" stroke="#4F4A4A" d="M104.5,79.3c1.2,0.2,5.3-2.4,5.3-8.8c0.1-6.4-5-9.8-5.5-9.7c-0.5,0.1-1.9,5.5-1.5,10.8
    C103.1,76.9,103.7,79.1,104.5,79.3z"/>
<path fill="#918C80" stroke="#4F4A4A" d="M5.4,61c-1.2-0.1-5.1,2.6-4.9,9.1c0.2,6.4,5.4,9.6,6,9.4c0.5-0.2,1.6-5.6,1-10.9
    C6.9,63.3,6.2,61.1,5.4,61z"/>
<polyline fill="none" stroke="#4F4A4A" points="3.2,67.2 1,70.6 3.3,72.8 "/>
<polyline fill="none" stroke="#4F4A4A" points="107.2,72.9 109.4,69.4 107.1,67.2 "/>
</svg>