<?xml version="1.0" encoding="utf-8"?>
<!-- Generator: Adobe Illustrator 19.0.1, SVG Export Plug-In . SVG Version: 6.00 Build 0)  -->
<svg version="1.1" id="Layer_1" xmlns="http://www.w3.org/2000/svg" xmlns:xlink="http://www.w3.org/1999/xlink" x="0px" y="0px"
	 viewBox="0 0 288 396" style="enable-background:new 0 0 288 396;" xml:space="preserve">
<style type="text/css">
	.st0{fill:url(#SVGID_1_);stroke:#717677;}
	.st1{fill:#454136;}
	.st2{fill:#939393;stroke:#524F45;stroke-width:0.9822;}
	.st3{fill:#918C80;stroke:#454136;stroke-width:0.7858;}
	.st4{fill:#918C80;}
	.st5{fill:none;stroke:#010101;}
	.st6{fill:url(#SVGID_2_);stroke:#717677;}
	.st7{fill:url(#SVGID_3_);stroke:#717677;}
	.st8{fill:url(#SVGID_4_);stroke:#A8AAAD;}
	.st9{fill:#717677;}
	.st10{fill:url(#SVGID_5_);stroke:#A8AAAD;}
	.st11{fill:url(#SVGID_6_);stroke:#B5B6B6;stroke-width:0.5;}
	.st12{fill:url(#SVGID_7_);stroke:#B5B6B6;stroke-width:0.5;}
	.st13{fill:url(#SVGID_8_);}
	.st14{fill:url(#SVGID_9_);stroke:#010101;stroke-width:0.1833;}
	.st15{fill:#010101;}
	.st16{fill:#918C80;stroke:#231A18;stroke-width:0.4863;}
	.st17{fill:url(#SVGID_10_);}
	.st18{fill:url(#SVGID_11_);}
	.st19{fill:#EDE9E5;}
	.st20{fill:url(#SVGID_12_);}
	.st21{fill:url(#SVGID_13_);}
	.st22{fill:url(#SVGID_14_);stroke:#010101;stroke-width:0.18;}
	.st23{fill:#918C80;stroke:#231A18;stroke-width:0.4775;}
	.st24{fill:url(#SVGID_15_);}
	.st25{fill:url(#SVGID_16_);stroke:#717677;}
	.st26{fill:url(#SVGID_17_);stroke:#717677;}
	.st27{fill:url(#SVGID_18_);stroke:#717677;}
	.st28{fill:none;stroke:#385057;stroke-width:0.5;}
	.st29{fill:#939598;stroke:#595A5C;stroke-width:0.75;}
	.st30{fill:#FFFFFF;stroke:#595A5C;}
	.st31{clip-path:url(#SVGID_20_);fill:url(#SVGID_21_);stroke:#717677;}
</style>
<radialGradient id="SVGID_1_" cx="101.2933" cy="150.9058" r="39.1168" gradientUnits="userSpaceOnUse">
	<stop  offset="0" style="stop-color:#3D2E17"/>
	<stop  offset="1" style="stop-color:#392015"/>
</radialGradient>
<path class="st0" d="M88.8,199.2c0,0-11.7-8.3-12-15.3c-0.3-7-1.7-28.7-1.7-28.7l7.3-21.3l22-24.3l13-7.3l6.3,0.7l3.7,2l-11.7,12.3
	c0,0-10.7,5.7-14.7,10.7c-4,5-9.7,16-10.3,19.3c-0.7,3.3-6,12.7-6,24.7s0.3,17.3,0.3,17.3l4.7,8l2.2,2.5L88.8,199.2z"/>
<path class="st1" d="M79.9,165.5c0,0,1.8-2.6,2.7-2.7c0.3,0,2.6,5.2,3.3,10.8c0.8,6,0.2,11.8-0.8,12.2c-1.1,0.4-5.4-9.2-5.4-9.2
	L79.9,165.5z"/>
<polygon class="st2" points="88.2,171.1 79.6,172.1 79.7,176.5 88.8,175.4 "/>
<path class="st3" d="M82.2,163.1c0,0-0.7,0-1.8,0.3c-0.7,0.2-1.4,0.6-1.4,0.6s-1.3,5.1-0.6,10.2c1,7.9,3.3,11.5,3.3,11.5
	s0.6,0.2,1.5,0.2c0.8,0,1.6-0.2,1.6-0.2s-2-3.9-2.9-11.6C80.8,167,82.2,163.1,82.2,163.1z"/>
<path class="st4" d="M124.6,225.8c0,0-0.5,10-0.5,11c0,1-3.9,4.8-7.3,5c-3.2,0.2-5.2-1.1-6-4c-0.8-2.9-1.2-6.4-1.6-10.8
	c-0.5-5,11.3-0.8,11.3-0.8L124.6,225.8z"/>
<path class="st1" d="M129.6,215.7c0,0-0.8,14.9-13.3,15.4c-12.5,0.5-12.6-15.1-13-17.3c-0.3-2.3,12.8,2.4,12.8,2.4L129.6,215.7z"/>
<ellipse transform="matrix(-0.9982 5.987900e-02 -5.987900e-02 -0.9982 245.0867 450.4916)" class="st5" cx="115.8" cy="228.9" rx="0.7" ry="0.8"/>
<radialGradient id="SVGID_2_" cx="166.96" cy="248.9995" r="43.7851" gradientUnits="userSpaceOnUse">
	<stop  offset="0" style="stop-color:#3D2E17"/>
	<stop  offset="1" style="stop-color:#392015"/>
</radialGradient>
<path class="st6" d="M131.1,198.5c0,0,6.2,25.3,10,47.3c2.5,14.5,9.7,27.6,10.4,31c1.7,8.7,1.7,8.7,1.7,8.7l6.3-6.3
	c0,0,9.7,13,17,17.3l0.3-4.3l15.3,7.3l1.3-6.7l7.7-1l1.7-4.7l-9-13.7l-1.3-13.3L131.1,198.5z"/>
<radialGradient id="SVGID_3_" cx="174.96" cy="220.1662" r="46.4598" gradientUnits="userSpaceOnUse">
	<stop  offset="0" style="stop-color:#3D2E17"/>
	<stop  offset="1" style="stop-color:#392015"/>
</radialGradient>
<path class="st7" d="M154.8,167.2l-10.7,18l-8,21.7l10.3,12c0,0,8,14.3,13.3,22.3c5.3,8,13.7,14.7,23.7,19c10,4.3,16.3,6,16.3,6
	l8-3.3l3.7,10.3l0.3-16.3l2-3v-10.3l-25.3-15l-18.7-36L154.8,167.2z"/>
<linearGradient id="SVGID_4_" gradientUnits="userSpaceOnUse" x1="84.7691" y1="165.6701" x2="153.7933" y2="165.6701">
	<stop  offset="0" style="stop-color:#BFBFBF"/>
	<stop  offset="1" style="stop-color:#E6E6E6"/>
</linearGradient>
<path class="st8" d="M98.8,129.2c0,0-13,27.3-13,29.7c0,2.3-1,24.7-1,24.7s-0.7,7.7,5,13.7c0.7,0.7,1.3,1.6,2.2,2.5
	c6.9,6.6,14.6,17.9,23.1,17.9c9.7,0,12.2,0.5,19.8-6.5s16.8-15.5,17.2-21.2c0.3-5.7,1.7-28,1.7-28l-4.7-30.3l-15-17.3l-16.3-0.3
	l-12.3,6L98.8,129.2z"/>
<path class="st1" d="M159.5,186.7c0,0-2.2,2.3-3.1,2.1c-0.3,0-1.6-5.5-1.4-11.2c0.2-6.1,1.8-11.7,2.9-11.9c1.1-0.2,3.7,10,3.7,10
	L159.5,186.7z"/>
<polygon class="st2" points="152.2,179.7 160.9,180.2 161.6,175.9 152.4,175.4 "/>
<path class="st3" d="M156.8,188.7c0,0,0.7,0.1,1.8,0c0.7-0.1,1.5-0.3,1.5-0.3s2.2-4.8,2.4-9.9c0.4-8-1.3-11.9-1.3-11.9
	s-0.6-0.3-1.4-0.4c-0.7-0.1-1.6-0.1-1.6-0.1s1.3,4.1,0.9,11.9C158.9,185.1,156.8,188.7,156.8,188.7z"/>
<path class="st9" d="M102.1,190.2c0,0,5.5,2.3,6.2,3.7c0.7,1.3,5.5,3.8,8.8,4.2c3.3,0.3,6,0.8,10.5-1.3c4.5-2.2,5.5-3,7.2-3
	c1.7,0-10.9,0.3-13.5,0.2C118,193.7,112.2,193.7,102.1,190.2z"/>
<linearGradient id="SVGID_5_" gradientUnits="userSpaceOnUse" x1="84.7933" y1="153.8251" x2="153.7933" y2="153.8251">
	<stop  offset="0" style="stop-color:#BFBFBF"/>
	<stop  offset="1" style="stop-color:#E6E6E6"/>
</linearGradient>
<path class="st10" d="M84.8,181.5c0,0,1-20.3,1-22.7c0-2.3,13-29.7,13-29.7l6.7-9.3l12.3-6l16.3,0.3l15,17.3l4.7,30.3
	c0,0-0.8,18.3-1.2,24c0,0-10,10.3-34.5,7.5C96.3,190.8,84.8,181.5,84.8,181.5z"/>
<radialGradient id="SVGID_6_" cx="1469.5289" cy="-2416.3042" r="7.0337" gradientTransform="matrix(0.5966 -0.8025 0.716 0.5323 993.9999 2648.0137)" gradientUnits="userSpaceOnUse">
	<stop  offset="0" style="stop-color:#E4D8DD"/>
	<stop  offset="1" style="stop-color:#E6E6E6"/>
</radialGradient>
<path class="st11" d="M134.6,178.1c0,0-3.8,5.6,2.3,9.9c6.1,4.3,9.7-1,10.4-2.1c0.7-1.2,2.1-5.6-3-8.7
	C139.3,174,135.3,177.1,134.6,178.1z"/>
<radialGradient id="SVGID_7_" cx="3135.0442" cy="-3048.4731" r="5.9758" gradientTransform="matrix(1.433944e-02 -1.1207 0.9999 1.279393e-02 3101.1887 3728.8074)" gradientUnits="userSpaceOnUse">
	<stop  offset="0" style="stop-color:#E4D8DD"/>
	<stop  offset="1" style="stop-color:#E6E6E6"/>
</radialGradient>
<path class="st12" d="M91.1,177.3c-0.3-4.6,5.3-6.9,7.8-6.5c2.6,0.4,5.8,0.8,5.7,4.8c-0.1,4.1-4.3,6.9-8,6.4
	C93.1,181.4,91.3,179.5,91.1,177.3z"/>
<ellipse transform="matrix(0.6436 -0.7654 0.7654 0.6436 -88.2177 169.0998)" class="st5" cx="137.5" cy="179.3" rx="0.7" ry="0.8"/>
<ellipse transform="matrix(0.6438 -0.7652 0.7652 0.6438 -91.5346 176.0942)" class="st5" cx="143.4" cy="186.4" rx="0.7" ry="0.8"/>
<path class="st5" d="M101.4,172.4c0.4,0,0.7,0.4,0.7,0.8c0,0.4-0.4,0.7-0.8,0.7c-0.4,0-0.7-0.4-0.7-0.8
	C100.6,172.7,101,172.4,101.4,172.4z"/>
<path class="st5" d="M94.5,178.8c0.4,0,0.7,0.4,0.7,0.8c0,0.4-0.4,0.7-0.8,0.7c-0.4,0-0.7-0.4-0.7-0.8
	C93.8,179.1,94.1,178.8,94.5,178.8z"/>
<ellipse transform="matrix(0.6438 -0.7652 0.7652 0.6438 -99.8373 171.1845)" class="st5" cx="134" cy="192.8" rx="0.7" ry="0.8"/>
<path class="st5" d="M102.8,188.3c0.4,0,0.7,0.4,0.7,0.8c0,0.4-0.4,0.7-0.8,0.7c-0.4,0-0.7-0.4-0.7-0.8
	C102.1,188.5,102.4,188.3,102.8,188.3z"/>
<g>
	
		<radialGradient id="SVGID_8_" cx="99.8461" cy="577.6578" r="6.9685" gradientTransform="matrix(1.1391 0.2352 -0.222 1.0757 119.3617 -484.9753)" gradientUnits="userSpaceOnUse">
		<stop  offset="0" style="stop-color:#F7F9E7"/>
		<stop  offset="0.9755" style="stop-color:#EAF2CF"/>
	</radialGradient>
	<path class="st13" d="M96.9,158.2c-0.9,4.1,2,8.2,6.4,9.1c4.4,0.9,8.6-1.7,9.5-5.9c0.9-4.1-2-8.2-6.4-9.1
		C102,151.5,97.8,154.1,96.9,158.2z"/>
	
		<radialGradient id="SVGID_9_" cx="100.0733" cy="575.4108" r="3.4161" gradientTransform="matrix(1.1391 0.2352 -0.222 1.0757 119.3617 -484.9753)" gradientUnits="userSpaceOnUse">
		<stop  offset="0" style="stop-color:#8A5423"/>
		<stop  offset="1" style="stop-color:#000000"/>
	</radialGradient>
	<path class="st14" d="M108.6,158.7c-0.4,1.8-2,2.9-3.7,2.6c-1.7-0.4-2.8-2.1-2.4-3.8c0.4-1.8,2-2.9,3.7-2.6
		C107.9,155.2,109,156.9,108.6,158.7z"/>
	
		<ellipse transform="matrix(0.9794 0.2022 -0.2022 0.9794 34.1317 -18.0804)" class="st15" cx="105.6" cy="158.1" rx="1.4" ry="1.4"/>
	<path class="st16" d="M96.5,158.8c0,0,4.3,2.1,8.8,2.4c3.9,0.2,7.6-0.5,7.6-0.5L112,164l-3.1,3.2l-5.8,0.9l-2.3-0.8l-3.2-2.6
		l-1.2-4.2L96.5,158.8z"/>
	
		<radialGradient id="SVGID_10_" cx="100.5098" cy="574.8384" r="0.4787" fx="100.9885" fy="574.835" gradientTransform="matrix(1.1391 0.2352 -0.222 1.0757 119.3617 -484.9753)" gradientUnits="userSpaceOnUse">
		<stop  offset="0" style="stop-color:#FFFFFF"/>
		<stop  offset="1" style="stop-color:#FFFFFF;stop-opacity:0.21"/>
	</radialGradient>
	<path class="st17" d="M106.8,157.1c-0.1,0.3-0.3,0.4-0.6,0.4c-0.3-0.1-0.5-0.3-0.4-0.6c0.1-0.3,0.3-0.4,0.6-0.4
		C106.6,156.5,106.8,156.8,106.8,157.1z"/>
	
		<radialGradient id="SVGID_11_" cx="434.8397" cy="285.553" r="0.479" fx="435.3187" fy="285.5497" gradientTransform="matrix(2.2849 0.4714 -0.593 2.8747 -715.685 -869.1823)" gradientUnits="userSpaceOnUse">
		<stop  offset="0" style="stop-color:#FFFFFF"/>
		<stop  offset="1" style="stop-color:#FFFFFF;stop-opacity:0.21"/>
	</radialGradient>
	<path class="st18" d="M109.6,156.9c-0.2,0.7-0.8,1.2-1.4,1.1c-0.6-0.1-1-0.8-0.8-1.5c0.1-0.7,0.8-1.2,1.4-1.1
		C109.3,155.4,109.7,156.1,109.6,156.9z"/>
	<path class="st16" d="M113.1,159.7c0,0-1-2.4-3.1-3.4c-1.3-0.6-3.3-0.9-6.1-0.8c-6.4,0.1-7.6,3.1-7.6,3.1l1.5-3.3l3.8-3.2l5.1-0.3
		l2.9,1.5l2,1.9L113.1,159.7z"/>
	<path class="st19" d="M113.4,161.8c-1,4.8-5.7,7.8-10.4,6.8c-4.8-1-7.9-5.6-6.9-10.4c1-4.8,5.7-7.8,10.4-6.8
		C111.3,152.4,114.4,157.1,113.4,161.8z M106.2,152.5c-4.1-0.9-8.2,1.8-9,5.9c-0.8,4.1,1.8,8.1,6,9c4.1,0.9,8.2-1.8,9-5.9
		C113.1,157.3,110.4,153.3,106.2,152.5z"/>
</g>
<g>
	
		<radialGradient id="SVGID_12_" cx="198.7917" cy="794.4872" r="6.8076" gradientTransform="matrix(1.1383 0.3584 -0.3535 1.1122 195.584 -789.593)" gradientUnits="userSpaceOnUse">
		<stop  offset="0" style="stop-color:#F7F9E7"/>
		<stop  offset="0.9755" style="stop-color:#EAF2CF"/>
	</radialGradient>
	<path class="st20" d="M133.3,162.9c-1.3,4.2,1.1,8.7,5.3,10c4.3,1.3,8.8-0.9,10.2-5.1c1.3-4.2-1.1-8.7-5.3-10
		C139.2,156.4,134.6,158.7,133.3,162.9z"/>
	
		<radialGradient id="SVGID_13_" cx="659.785" cy="241.0969" r="0.5755" fx="660.3604" fy="241.0929" gradientTransform="matrix(6.1408 1.9337 -1.8685 5.8813 -3462.5181 -2529.4504)" gradientUnits="userSpaceOnUse">
		<stop  offset="0" style="stop-color:#FFFFFF"/>
		<stop  offset="1" style="stop-color:#FFFFFF;stop-opacity:0.21"/>
	</radialGradient>
	<path class="st21" d="M142,165.2c-0.6,1.8-2.6,2.8-4.5,2.1c-1.9-0.6-3.1-2.6-2.5-4.4c0.6-1.8,2.6-2.8,4.6-2.1
		C141.4,161.5,142.6,163.4,142,165.2z"/>
	
		<radialGradient id="SVGID_14_" cx="205.0556" cy="757.8012" r="4.5461" gradientTransform="matrix(1.267 0.3989 -0.3739 1.1766 164.0494 -810.2521)" gradientUnits="userSpaceOnUse">
		<stop  offset="0" style="stop-color:#8A5423"/>
		<stop  offset="1" style="stop-color:#000000"/>
	</radialGradient>
	<path class="st22" d="M143.1,164.6c-0.6,1.8-2.5,2.9-4.3,2.3c-1.8-0.6-2.7-2.5-2.1-4.4c0.6-1.8,2.5-2.9,4.3-2.3
		C142.8,160.8,143.7,162.7,143.1,164.6z"/>
	<path class="st15" d="M141.4,163.9c-0.3,0.8-1.1,1.2-1.9,1c-0.8-0.2-1.2-1.1-1-1.9c0.3-0.8,1.1-1.2,1.9-1
		C141.3,162.3,141.7,163.1,141.4,163.9z"/>
	<path class="st23" d="M132.6,165.2c0,0,1.4-0.8,2.1-0.4c1.8,1,4,2.2,6.8,2.1c5.7-0.1,7.2-0.6,7.2-0.6l-1.6,4.1l-3.7,2.5l-4.5,0.3
		l-4-2.1l-2.6-3.8L132.6,165.2z"/>
	<path class="st23" d="M149,165.5c0,0-1.3-1.6-6.1-3.6c-3.3-1.4-5.4-0.7-7.3,0.1c-1.4,0.6-2.9,1.5-2.9,1.5l1.7-3.7l4.4-2.3l4.3,0.4
		l2.9,1.6l1.8,2L149,165.5z"/>
	<path class="st19" d="M149,167.8c-1.4,4.5-6.4,7-11,5.5c-4.6-1.5-7.2-6.3-5.8-10.8c1.4-4.5,6.4-7,11-5.5
		C147.8,158.4,150.4,163.3,149,167.8z M142.9,158.2c-4-1.2-8.2,0.9-9.4,4.8c-1.2,3.9,1,8,5,9.3c4,1.2,8.2-0.9,9.4-4.8
		C149.1,163.6,146.9,159.4,142.9,158.2z"/>
	
		<radialGradient id="SVGID_15_" cx="205.2026" cy="758.047" r="0.5765" fx="205.779" fy="758.043" gradientTransform="matrix(1.267 0.3989 -0.3739 1.1766 164.0494 -810.2521)" gradientUnits="userSpaceOnUse">
		<stop  offset="0" style="stop-color:#FFFFFF"/>
		<stop  offset="1" style="stop-color:#FFFFFF;stop-opacity:0.21"/>
	</radialGradient>
	<path class="st24" d="M141.3,163.7c-0.1,0.4-0.5,0.5-0.9,0.4c-0.4-0.1-0.6-0.5-0.5-0.9c0.1-0.4,0.5-0.5,0.9-0.4
		C141.2,163,141.4,163.4,141.3,163.7z"/>
</g>
<radialGradient id="SVGID_16_" cx="104.5433" cy="152.1662" r="7.025" gradientUnits="userSpaceOnUse">
	<stop  offset="0" style="stop-color:#3D2E17"/>
	<stop  offset="1" style="stop-color:#392015"/>
</radialGradient>
<path class="st25" d="M114,155.2l-0.3-3.3c0,0-4.5-2.5-5.7-2.7s-9.8-0.2-9.8-0.2l-3,2.7l4-1.7l6.5,0.8l3.5,1.8l1.7,2.7L114,155.2z"
	/>
<radialGradient id="SVGID_17_" cx="141.1266" cy="156.0828" r="5.7024" gradientUnits="userSpaceOnUse">
	<stop  offset="0" style="stop-color:#3D2E17"/>
	<stop  offset="1" style="stop-color:#392015"/>
</radialGradient>
<polygon class="st26" points="133.3,157.2 135.3,154.7 146.8,154.2 149,157.3 144.3,157.2 138.3,157.2 135.3,158 "/>
<radialGradient id="SVGID_18_" cx="166.7933" cy="177.3328" r="62.986" gradientUnits="userSpaceOnUse">
	<stop  offset="0" style="stop-color:#3D2E17"/>
	<stop  offset="1" style="stop-color:#392015"/>
</radialGradient>
<path class="st27" d="M182.8,202.2c0,0,0.3-14.7-5.3-34s-7.7-31-7.7-31l-11-19l-13.7-11.3l-9.3-3.7l-8.3,1.7l-10,11.3
	c0,0,4.7-1,11,1.7c6.3,2.7,13,9.3,13,18.3s11.7,35.3,16,41s7.7,9.7,7.7,9.7s-3,36,4.7,46.3c7.7,10.3,5,6,5,6l1.7-19.7l8.3,21
	l15.3,7.3l9.3,3.7l-1.7-9.7l8.3,3.7l-7.3-8c0,0-2.7-5.7-4.7-9.3s-14-13.7-14-13.7L182.8,202.2z"/>
<path class="st28" d="M120.2,176.1"/>
<path class="st28" d="M127.7,100.7c0,0-3,2.5-5.2,17"/>
<path class="st29" d="M125.5,180.4c0-0.2,0-0.4,0-0.6l1.3-0.4l-0.4-1.4l-1.2,0.1c-0.2-0.5-0.4-0.9-0.7-1.3l0.8-1l-1.1-1l-0.9,0.8
	c-0.3-0.2-0.7-0.4-1.1-0.6l0.1-1.3l-1.4-0.1l-0.2,1.1c-0.5,0-0.9,0-1.4,0.1l-0.6-1.2l-1.3,0.6l0.4,1.2l0,0c-0.4,0.2-0.7,0.5-1,0.8
	l0-0.1l-1.2-0.7l-0.7,1.2l1,0.8c-0.2,0.4-0.3,0.9-0.4,1.3l-1.4,0.1l0,1.4l1.3,0.1l0,0c0.1,0.4,0.2,0.8,0.3,1.2l-1.1,0.7l0.8,1.2
	l1.2-0.5l0,0c0.3,0.3,0.6,0.6,0.9,0.9l-0.5,1.2l1.3,0.6l0.7-1.1l0,0c0.4,0.1,0.7,0.2,1.1,0.2l0.2,1.3l1.4-0.2l0-1.3l0,0
	c0.4-0.1,0.7-0.2,1.1-0.4l0,0l0.9,1.1l1.1-0.9l-0.7-1.1c0.3-0.3,0.6-0.6,0.8-1l0,0l1.3,0.3l0.4-1.4l-1.1-0.5
	C125.5,181,125.5,180.7,125.5,180.4z"/>
<circle class="st30" cx="120.5" cy="180.2" r="3.3"/>
<g>
	<defs>
		<polygon id="SVGID_19_" points="128.2,95.7 72.5,95.7 72.5,162.7 85.2,162.7 84.7,167.5 84.5,176 84.2,184 86,194.7 92.7,201 
			104.7,180.5 		"/>
	</defs>
	<clipPath id="SVGID_20_">
		<use xlink:href="#SVGID_19_"  style="overflow:visible;"/>
	</clipPath>
	<radialGradient id="SVGID_21_" cx="101.2933" cy="150.9058" r="39.1168" gradientUnits="userSpaceOnUse">
		<stop  offset="0" style="stop-color:#3D2E17"/>
		<stop  offset="1" style="stop-color:#392015"/>
	</radialGradient>
	<path class="st31" d="M88.8,199.2c0,0-11.7-8.3-12-15.3c-0.3-7-1.7-28.7-1.7-28.7l7.3-21.3l22-24.3l13-7.3l6.3,0.7l3.7,2
		l-11.7,12.3c0,0-10.7,5.7-14.7,10.7c-4,5-9.7,16-10.3,19.3c-0.7,3.3-6,12.7-6,24.7s0.3,17.3,0.3,17.3l4.7,8l2.2,2.5L88.8,199.2z"/>
</g>
</svg>
