<?xml version="1.0" encoding="utf-8"?>
<!-- Generator: Adobe Illustrator 19.0.1, SVG Export Plug-In . SVG Version: 6.00 Build 0)  -->
<svg version="1.1" id="Layer_1" xmlns="http://www.w3.org/2000/svg" xmlns:xlink="http://www.w3.org/1999/xlink" x="0px" y="0px"
	 viewBox="0 0 288 396" style="enable-background:new 0 0 288 396;" xml:space="preserve">
<style type="text/css">
	.st0{fill:url(#SVGID_1_);stroke:#595A5C;stroke-width:1.2535;}
	.st1{fill:url(#SVGID_2_);stroke:#595A5C;stroke-width:1.2535;}
	.st2{fill:url(#SVGID_3_);stroke:#595A5C;stroke-width:1.2535;}
	.st3{fill:url(#SVGID_4_);stroke:#231F20;stroke-width:2.507;}
	.st4{fill:url(#SVGID_5_);stroke:#595A5C;stroke-width:1.2535;}
	.st5{fill:#FFFFFF;}
	.st6{fill:url(#SVGID_6_);stroke:#231F20;stroke-width:2.507;}
	.st7{fill:url(#SVGID_7_);stroke:#595A5C;stroke-width:1.2535;}
	.st8{fill:#595A5C;stroke:#595A5C;stroke-width:1.2535;}
	.st9{fill:url(#SVGID_8_);stroke:#231F20;stroke-width:0.9401;}
	.st10{fill:url(#SVGID_9_);stroke:#231F20;stroke-width:0.9401;}
	.st11{fill:#939393;stroke:#524F45;stroke-width:1.6943;}
	.st12{fill:#524F45;stroke:#939393;stroke-width:0.8793;}
	.st13{fill:url(#SVGID_10_);stroke:#595A5C;stroke-width:0.8793;}
	.st14{fill:none;stroke:#010101;}
	.st15{fill:url(#SVGID_11_);}
	.st16{fill:url(#SVGID_12_);stroke:#010101;stroke-width:0.1885;}
	.st17{fill:#010101;}
	.st18{fill:#918C80;stroke:#231A18;stroke-width:0.5;}
	.st19{fill:url(#SVGID_13_);}
	.st20{fill:url(#SVGID_14_);}
	.st21{fill:#EDE9E5;}
	.st22{fill:url(#SVGID_15_);}
	.st23{fill:url(#SVGID_16_);}
	.st24{fill:url(#SVGID_17_);stroke:#010101;stroke-width:0.1885;}
	.st25{fill:url(#SVGID_18_);}
	.st26{opacity:0.2;fill:#507380;}
	.st27{fill:none;stroke:#385057;}
	.st28{fill:#507380;stroke:#385057;}
	.st29{fill:url(#SVGID_19_);stroke:#231F20;stroke-width:2.507;}
	.st30{fill:#385057;}
	.st31{fill:none;stroke:#385057;stroke-miterlimit:10;}
</style>
<linearGradient id="SVGID_1_" gradientUnits="userSpaceOnUse" x1="113.9652" y1="274.9582" x2="146.5125" y2="274.9582">
	<stop  offset="0" style="stop-color:#C8C3B5"/>
	<stop  offset="1" style="stop-color:#E7E5D6"/>
</linearGradient>
<path class="st0" d="M118.6,266.4c0,0-4.1,2.2-4.4,4.1c-0.3,1.8-0.6,6.8,0.9,8.6c1.5,1.9,6.7,4.2,16.2,4.4
	c6.3,0.1,13.6-1.8,14.6-4.2c1-2.4,0.5-5.9,0.4-7.2c-0.2-2.7-3.3-3.4-3.3-3.4L118.6,266.4z"/>
<linearGradient id="SVGID_2_" gradientUnits="userSpaceOnUse" x1="118.6548" y1="265.1063" x2="141.6534" y2="265.1063">
	<stop  offset="0" style="stop-color:#C8C3B5"/>
	<stop  offset="1" style="stop-color:#E7E5D6"/>
</linearGradient>
<path class="st1" d="M121.8,259.7c0,0-1.9,1.9-2.6,3.5c-0.7,1.6-0.7,4.8,0.3,5.8c1.1,1.1,6.3,1.6,11.8,1.6c5.3,0,9.7-0.5,10-1.5
	c0.4-1.7,0.5-2.7,0.2-4.7c-0.3-1.7-4.3-3.5-5.3-3.8C135.1,260.2,121.8,259.7,121.8,259.7z"/>
<linearGradient id="SVGID_3_" gradientUnits="userSpaceOnUse" x1="129.7895" y1="256.0589" x2="129.5068" y2="270.018">
	<stop  offset="0" style="stop-color:#C8C3B5"/>
	<stop  offset="1" style="stop-color:#E7E5D6"/>
</linearGradient>
<path class="st2" d="M112.5,251.6c0,0-1,4.7,0.1,7.8c1,3,2.7,3.4,5.4,4.2c2.6,0.8,6.7,1.3,11.5,1.3c5.7,0,9.7-0.3,11.9-1.1
	c3.3-1.2,5.4-2.4,6-4.4c0.6-2.1,0.3-8.3-1-9.8c-1.3-1.5-20.1,4.3-20.1,4.3L112.5,251.6z"/>
<radialGradient id="SVGID_4_" cx="174.96" cy="214.9118" r="12.541" gradientUnits="userSpaceOnUse">
	<stop  offset="0" style="stop-color:#4E4E50"/>
	<stop  offset="1" style="stop-color:#231F20"/>
</radialGradient>
<polygon class="st3" points="173,201 164,207 170.8,228.8 186,218.5 "/>
<linearGradient id="SVGID_5_" gradientUnits="userSpaceOnUse" x1="89.9633" y1="200.3748" x2="174.85" y2="200.3748">
	<stop  offset="0" style="stop-color:#C8C3B5"/>
	<stop  offset="1" style="stop-color:#E7E5D6"/>
</linearGradient>
<path class="st4" d="M92.4,174.3c0,0-0.9,13.5-1.6,16.9s-2.2,30.1,1.3,35.4l6.3,11.6c0,0,4.4,10.3,12.2,12.5
	c7.8,2.2,21.6,3.8,31,0.3c9.4-3.4,27.3-18.5,29.1-22.2c1.9-3.8,4.1-34.5,4.1-34.5l-0.6-38.9l-16.3-7.8l-46.7,1.9L92.4,174.3z"/>
<path class="st5" d="M92.4,174.3"/>
<radialGradient id="SVGID_6_" cx="133.4409" cy="162.0667" r="48.9173" gradientUnits="userSpaceOnUse">
	<stop  offset="0" style="stop-color:#4E4E50"/>
	<stop  offset="1" style="stop-color:#231F20"/>
</radialGradient>
<path class="st6" d="M88.7,210.6c0,0-5-6.3-4.4-20.7c0.6-14.4-1.3-16.3,1.3-21.9c2.5-5.6,1.9-12.5,8.8-26.3s23.2-28.8,37.6-28.2
	c14.4,0.6,30.1-0.6,40.7,10.7s10,15.7,10,15.7s-10.7,16.3-22.6,16.6c-11.9,0.3-14.7,7.8-29.5,3.4c-14.7-4.4-23.5-0.9-29.8,5.3
	C94.6,171.5,94,179,94,179s-6.6,16-6.6,20.4C87.4,203.8,88.7,210.6,88.7,210.6z"/>
<linearGradient id="SVGID_7_" gradientUnits="userSpaceOnUse" x1="102.1479" y1="235.9501" x2="139.7524" y2="235.9501">
	<stop  offset="0" style="stop-color:#C8C3B5"/>
	<stop  offset="1" style="stop-color:#E7E5D6"/>
</linearGradient>
<path class="st7" d="M103.1,221c0,0,14.4-10,36.4,3.1l0.3,27.6c0,0-9.7,4.1-18.8,2.5c-9.1-1.6-18.8-3.1-18.8-10.3
	S103.1,221,103.1,221z"/>
<polygon class="st5" points="110.3,218.6 109.8,225.7 127.4,228.8 135.1,227.4 134.9,221.8 122.2,217.5 "/>
<path class="st8" d="M103.1,221c0,0,8.5,8.8,35.7,5.5c0,0-7.4,2.7-10,4.7c-2.7,2-9,2.7-13.2,1.4c-4.4-1.3-6.9-6.1-8.9-7.5
	S103.1,221,103.1,221z"/>
<radialGradient id="SVGID_8_" cx="144.1396" cy="175.5511" r="9.0417" gradientUnits="userSpaceOnUse">
	<stop  offset="0" style="stop-color:#4E4E50"/>
	<stop  offset="1" style="stop-color:#231F20"/>
</radialGradient>
<path class="st9" d="M131.9,176.2c0,0,2.5-4.4,6.3-4.4c3.8,0,14.4,1.9,14.4,1.9l3.8,5.6c0,0-8.8-4.4-11.9-4.4
	S131.9,176.2,131.9,176.2z"/>
<radialGradient id="SVGID_9_" cx="104.9682" cy="172.7308" r="9.1925" gradientUnits="userSpaceOnUse">
	<stop  offset="0" style="stop-color:#4E4E50"/>
	<stop  offset="1" style="stop-color:#231F20"/>
</radialGradient>
<path class="st10" d="M117.5,176.2l-7.5-6.9l-13.2,0.6l-4.4,4.4c0,0,12.5-1.9,15-1.3C110,173.7,117.5,176.2,117.5,176.2z"/>
<path class="st11" d="M110.2,202.6c-0.1,2-0.2,2.8-0.3,4.4c0,0.1-0.1,0.6,1.3,1c2.7,0.7,7.1,1.4,11.1,1.6c4.9,0.2,8.4-0.1,10.4-0.5
	c0.7-0.1,0.8-0.5,0.8-1.3c0.1-1.5,0.1-2.4,0.2-4.6c0-0.2-0.1-1.7-1.2-1.6c-2.6,0.1-5.9,0.5-9.7,0.3c-3.8-0.2-8.1-0.9-10-1.3
	C111,200,110.2,200.9,110.2,202.6z"/>
<polygon class="st12" points="119.1,211.3 125.2,211.5 128.8,207.6 128.8,201.9 125.3,197.8 119.1,197.9 115.3,201.9 115.3,207.8 
	"/>
<radialGradient id="SVGID_10_" cx="121.9316" cy="204.5229" r="5.2584" gradientUnits="userSpaceOnUse">
	<stop  offset="0" style="stop-color:#E6E6E6"/>
	<stop  offset="1" style="stop-color:#808080"/>
</radialGradient>
<path class="st13" d="M127.2,204.5c0,2.9-2.4,5.3-5.3,5.3c-2.9,0-5.3-2.4-5.3-5.3c0-2.9,2.4-5.3,5.3-5.3
	C124.8,199.3,127.2,201.6,127.2,204.5z"/>
<path class="st8" d="M103.1,221c0,0,4.4-2.1,8-2c3.7,0.1,14,1,17.1,1.7c3.1,0.6,11.2,3.4,11.2,3.4C117.5,211,103.1,221,103.1,221"/>
<ellipse transform="matrix(0.9982 5.988750e-02 -5.988750e-02 0.9982 15.0164 -8.1118)" class="st14" cx="142.8" cy="246.5" rx="0.6" ry="0.7"/>
<ellipse transform="matrix(0.9982 5.988750e-02 -5.988750e-02 0.9982 12.9377 -9.68)" class="st14" cx="168" cy="211" rx="0.6" ry="0.7"/>
<ellipse transform="matrix(0.9982 5.988750e-02 -5.988750e-02 0.9982 8.4902 -9.9007)" class="st14" cx="169.4" cy="136.7" rx="0.6" ry="0.7"/>
<ellipse transform="matrix(0.9982 5.988750e-02 -5.988750e-02 0.9982 9.6025 -9.7824)" class="st14" cx="168" cy="155.3" rx="0.6" ry="0.7"/>
<ellipse transform="matrix(0.9982 5.988750e-02 -5.988750e-02 0.9982 9.3553 -8.7659)" class="st14" cx="150.9" cy="151.7" rx="0.6" ry="0.7"/>
<ellipse transform="matrix(0.9982 5.988750e-02 -5.988750e-02 0.9982 14.2415 -5.5674)" class="st14" cx="100" cy="234.8" rx="0.6" ry="0.7"/>
<g>
	
		<radialGradient id="SVGID_11_" cx="106.2884" cy="602.8171" r="7.1653" gradientTransform="matrix(1.1391 0.2352 -0.222 1.0757 119.3617 -484.9753)" gradientUnits="userSpaceOnUse">
		<stop  offset="0" style="stop-color:#F7F9E7"/>
		<stop  offset="0.9755" style="stop-color:#EAF2CF"/>
	</radialGradient>
	<path class="st15" d="M98.5,186.8c-0.9,4.3,2.1,8.5,6.6,9.4c4.5,0.9,8.9-1.8,9.8-6c0.9-4.3-2.1-8.5-6.6-9.4
		C103.7,179.8,99.3,182.5,98.5,186.8z"/>
	
		<radialGradient id="SVGID_12_" cx="106.522" cy="600.5065" r="3.5126" gradientTransform="matrix(1.1391 0.2352 -0.222 1.0757 119.3617 -484.9753)" gradientUnits="userSpaceOnUse">
		<stop  offset="0" style="stop-color:#8A5423"/>
		<stop  offset="1" style="stop-color:#000000"/>
	</radialGradient>
	<path class="st16" d="M110.5,187.3c-0.4,1.8-2.1,3-3.9,2.6c-1.8-0.4-2.9-2.1-2.5-3.9c0.4-1.8,2.1-3,3.9-2.6
		C109.7,183.7,110.8,185.4,110.5,187.3z"/>
	<path class="st17" d="M108.7,186.9c-0.2,0.8-0.9,1.3-1.7,1.1c-0.8-0.2-1.2-0.9-1.1-1.7c0.2-0.8,0.9-1.3,1.7-1.1
		C108.4,185.3,108.9,186.1,108.7,186.9z"/>
	<path class="st18" d="M98,187.4c0,0,4.4,1.4,9.1,1.7c4.1,0.2,7.9,0.3,7.9,0.3l-1,3.4l-3.2,3.3l-6,0.9l-2.4-0.9l-3.3-2.6l-1.3-4.4
		L98,187.4z"/>
	
		<radialGradient id="SVGID_13_" cx="106.9708" cy="599.918" r="0.4922" fx="107.463" fy="599.9146" gradientTransform="matrix(1.1391 0.2352 -0.222 1.0757 119.3617 -484.9753)" gradientUnits="userSpaceOnUse">
		<stop  offset="0" style="stop-color:#FFFFFF"/>
		<stop  offset="1" style="stop-color:#FFFFFF;stop-opacity:0.21"/>
	</radialGradient>
	<path class="st19" d="M108.6,185.6c-0.1,0.3-0.4,0.5-0.7,0.4c-0.3-0.1-0.5-0.3-0.5-0.6c0.1-0.3,0.4-0.5,0.7-0.4
		C108.4,185,108.6,185.3,108.6,185.6z"/>
	
		<radialGradient id="SVGID_14_" cx="438.0863" cy="294.9305" r="0.4926" fx="438.5789" fy="294.9271" gradientTransform="matrix(2.2849 0.4714 -0.593 2.8747 -715.685 -869.1823)" gradientUnits="userSpaceOnUse">
		<stop  offset="0" style="stop-color:#FFFFFF"/>
		<stop  offset="1" style="stop-color:#FFFFFF;stop-opacity:0.21"/>
	</radialGradient>
	<path class="st20" d="M111.4,185.3c-0.2,0.8-0.8,1.3-1.4,1.1c-0.6-0.1-1-0.8-0.8-1.6c0.2-0.8,0.8-1.3,1.4-1.1
		C111.2,183.9,111.6,184.6,111.4,185.3z"/>
	<path class="st18" d="M115.1,188.3c0,0-1.1-2.5-3.2-3.5c-1.3-0.6-3.4-0.9-6.3-0.9c-6.5,0.1-7.8,3.2-7.8,3.2l1.6-3.4l3.9-3.3
		l5.3-0.3l3,1.6l2,2L115.1,188.3z"/>
	<path class="st21" d="M115.4,190.5c-1,4.9-5.8,8-10.7,7c-4.9-1-8.1-5.8-7.1-10.7c1-4.9,5.8-8,10.7-7
		C113.2,180.8,116.4,185.6,115.4,190.5z M108,180.8c-4.3-0.9-8.4,1.8-9.3,6.1c-0.9,4.2,1.9,8.4,6.1,9.3c4.3,0.9,8.4-1.8,9.3-6.1
		C115,185.9,112.3,181.7,108,180.8z"/>
</g>
<g>
	
		<radialGradient id="SVGID_15_" cx="170.8296" cy="687.047" r="7.1282" gradientTransform="matrix(1.1539 0.3042 -0.3005 1.1277 152.9589 -637.3846)" gradientUnits="userSpaceOnUse">
		<stop  offset="0" style="stop-color:#F7F9E7"/>
		<stop  offset="0.9755" style="stop-color:#EAF2CF"/>
	</radialGradient>
	<path class="st22" d="M135.4,187.2c-1.2,4.4,1.5,9,6.1,10.2c4.5,1.2,9.2-1.4,10.4-5.9c1.2-4.4-1.5-9-6.1-10.2
		C141.2,180.1,136.6,182.7,135.4,187.2z"/>
	
		<radialGradient id="SVGID_16_" cx="654.5845" cy="220.7768" r="0.6026" fx="655.187" fy="220.7726" gradientTransform="matrix(6.2254 1.6411 -1.5883 5.9631 -3583.3254 -2202.311)" gradientUnits="userSpaceOnUse">
		<stop  offset="0" style="stop-color:#FFFFFF"/>
		<stop  offset="1" style="stop-color:#FFFFFF;stop-opacity:0.21"/>
	</radialGradient>
	<path class="st23" d="M144.6,189.2c-0.5,1.9-2.6,3-4.7,2.5c-2.1-0.5-3.3-2.5-2.8-4.4c0.5-1.9,2.6-3,4.7-2.5
		C143.9,185.4,145.1,187.3,144.6,189.2z"/>
	
		<radialGradient id="SVGID_17_" cx="179.8928" cy="656.1736" r="4.7603" gradientTransform="matrix(1.2845 0.3385 -0.3179 1.193 120.4826 -656.5294)" gradientUnits="userSpaceOnUse">
		<stop  offset="0" style="stop-color:#8A5423"/>
		<stop  offset="1" style="stop-color:#000000"/>
	</radialGradient>
	<path class="st24" d="M145.8,188.5c-0.5,2-2.5,3.1-4.3,2.7c-1.9-0.5-3-2.5-2.5-4.4c0.5-2,2.5-3.2,4.3-2.7
		C145.2,184.5,146.3,186.5,145.8,188.5z"/>
	<path class="st17" d="M144,187.9c-0.2,0.8-1.1,1.4-1.9,1.1c-0.8-0.2-1.3-1.1-1.1-1.9c0.2-0.8,1.1-1.3,1.9-1.1
		C143.7,186.2,144.2,187,144,187.9z"/>
	<path class="st18" d="M134.9,189.6c0,0,1.4-0.7,2.2-0.6c2,0.3,4,0.8,7.2,1.2c5.9,0.8,7.5-0.3,7.5-0.3l-1.5,4.3l-3.7,2.8l-4.7,0.5
		l-4.2-2l-2.9-3.8L134.9,189.6z"/>
	<path class="st18" d="M151.9,189.2c0,0-1.5-1.6-6.6-3.5c-3.5-1.3-5.7-0.5-7.6,0.4c-1.5,0.7-3,1.7-3,1.7l1.6-3.9l4.5-2.7l4.6,0.2
		l3.1,1.5l2,2L151.9,189.2z"/>
	<path class="st21" d="M152.1,191.6c-1.3,4.8-6.3,7.6-11.2,6.3c-4.9-1.3-7.9-6.2-6.6-11c1.3-4.8,6.3-7.6,11.2-6.3
		C150.4,181.8,153.4,186.8,152.1,191.6z M145.2,181.8c-4.2-1.1-8.5,1.3-9.6,5.4c-1.1,4.1,1.4,8.4,5.6,9.5c4.2,1.1,8.5-1.3,9.6-5.4
		C152,187.1,149.5,182.9,145.2,181.8z"/>
	
		<radialGradient id="SVGID_18_" cx="180.0467" cy="656.431" r="0.6036" fx="180.6503" fy="656.4268" gradientTransform="matrix(1.2845 0.3385 -0.3179 1.193 120.4826 -656.5294)" gradientUnits="userSpaceOnUse">
		<stop  offset="0" style="stop-color:#FFFFFF"/>
		<stop  offset="1" style="stop-color:#FFFFFF;stop-opacity:0.21"/>
	</radialGradient>
	<path class="st25" d="M143.8,187.7c-0.1,0.4-0.5,0.6-1,0.5c-0.4-0.1-0.7-0.5-0.6-0.9c0.1-0.4,0.5-0.6,1-0.5
		C143.6,186.9,143.9,187.3,143.8,187.7z"/>
</g>
<rect x="127.8" y="185.5" transform="matrix(0.9996 2.836685e-02 -2.836685e-02 0.9996 5.4843 -3.9263)" class="st26" width="26.7" height="11.7"/>
<rect x="89.8" y="183.5" transform="matrix(0.9963 8.603855e-02 -8.603855e-02 0.9963 16.6723 -8.1708)" class="st26" width="26.7" height="11.7"/>
<rect x="127.8" y="185.5" transform="matrix(0.9996 2.836685e-02 -2.836685e-02 0.9996 5.4843 -3.9263)" class="st27" width="26.7" height="11.7"/>
<rect x="89.8" y="183.5" transform="matrix(0.9963 8.603855e-02 -8.603855e-02 0.9963 16.6723 -8.1708)" class="st27" width="26.7" height="11.7"/>
<polygon class="st28" points="154.5,187.5 172.5,184.2 173.1,186.2 154.5,192.2 "/>
<radialGradient id="SVGID_19_" cx="179.2526" cy="193.0904" r="41.8594" gradientUnits="userSpaceOnUse">
	<stop  offset="0" style="stop-color:#4E4E50"/>
	<stop  offset="1" style="stop-color:#231F20"/>
</radialGradient>
<path class="st29" d="M171.4,247l-4.7-2.8l0.6-9.4l5.3-14.4c0,0,4.4,1.6,6.6-0.9c2.2-2.5-5-12.5-6.3-23.8
	c-1.3-11.3-9.4-21.6-10-33.8c0,0-4.1-5.6-8.1-5l24.1-17.5c0,0,7.5-0.6,11.9,5.3c4.4,6,13.5,11.3,12.8,25.1s-4.7,16.6-4.7,16.6
	s1.3,13.2-2.2,19.1s-6,19.1-12.5,20.4S171.4,247,171.4,247z"/>
<path class="st30" d="M181.1,210c0,0,0.7,0.8,0.3,2.3c-0.3,1.2-1.4,1.8-1.4,1.8l-7.2-1l0.5-4.4L181.1,210z"/>
<path class="st28" d="M179.5,221.3c1.2,0.4,5.6-1.4,6.8-7.7c1.2-6.3-3.1-10.6-3.7-10.5c-0.6,0-2.8,5.1-3.4,10.4
	C178.5,218.7,178.7,221,179.5,221.3z"/>
<polyline class="st31" points="183.3,215.5 186.1,212.5 184.2,209.9 "/>
<ellipse transform="matrix(0.9982 5.988750e-02 -5.988750e-02 0.9982 11.6116 -9.0504)" class="st27" cx="156.8" cy="189.2" rx="0.6" ry="0.7"/>
<polygon class="st28" points="117,186.7 119.2,185.5 125.5,185.6 127.6,186.9 127.6,189 124.6,187.5 119.6,187.4 116.5,189.7 "/>
</svg>
