<svg version="1.1"
     xmlns="http://www.w3.org/2000/svg" xmlns:xlink="http://www.w3.org/1999/xlink" xmlns:a="http://ns.adobe.com/AdobeSVGViewerExtensions/3.0/"
     x="0px" y="0px" width="110.5px" height="164px" viewBox="0 0 110.5 164" enable-background="new 0 0 110.5 164"
     xml:space="preserve">
<defs>
</defs>
<g id="paultag_1_">
    
        <linearGradient id="SVGID_1_" gradientUnits="userSpaceOnUse" x1="115.802" y1="561.8226" x2="132.4523" y2="561.8226" gradientTransform="matrix(0.9871 0.1604 -0.1817 1.1179 31.6994 -501.0416)">
        <stop  offset="0" style="stop-color:#9C9C9C"/>
        <stop  offset="1" style="stop-color:#E6E6E6"/>
    </linearGradient>
    <path fill="url(#SVGID_1_)" stroke="#898B8D" stroke-width="0.7849" d="M46.3,130.9l-3.6,27.9c0,0,1.5,4.3,6.6,4.8
        c5.1,0.5,8-3.4,8-3.4l5.7-28.2l-12.7-2.4L46.3,130.9z"/>
    <path fill="#444035" d="M62,159.5l-0.8-16.8c0,0-4,0.5-8.4-0.4c-4.4-0.9-8.2-3.1-8.2-3.1s-2.4,8.1-6.6,16.4c0,0,3.7,3.8,12.3,5.4
        C58.9,162.7,62,159.5,62,159.5z"/>
    <linearGradient id="SVGID_2_" gradientUnits="userSpaceOnUse" x1="16.6236" y1="101.3873" x2="99.0126" y2="101.3873">
        <stop  offset="0" style="stop-color:#BFBFBF"/>
        <stop  offset="1" style="stop-color:#E6E6E6"/>
    </linearGradient>
    <path fill="url(#SVGID_2_)" stroke="#7B797B" d="M16.9,85.4c0,0-2.9,28,9.2,35.2c12.1,7.2,15.4,7.7,21.2,12.6
        c5.8,4.8,16.4,6.8,20.8,6.3c4.3-0.5,15.4-8.7,17.4-14c1.9-5.3,14-10.1,13.5-28c-0.5-17.9-0.5-17.9-0.5-17.9l-1.4-16.4l-78.2,5.3
        L16.9,85.4z"/>
    <path fill="#FFFFFF" stroke="#58595B" stroke-width="2" d="M44.9,104.8c0,0,4.3,7.6,22.1,8.5c0,0,8-0.4,12.3-6.2
        C83.7,101.4,44.9,104.8,44.9,104.8z"/>
    <path fill="#FFFFFF" d="M31.6,70.3c17.1-9.8,26.9-2.2,26.9-2.2l2.5-4.4c0,0-14.5-2.9-20.3-1.8C34.8,63,31.6,70.3,31.6,70.3z"/>
    <path fill="#FFFFFF" d="M96.6,71.4c0.9,1.2-1.8-5.8-4-6.9c-2.2-1.1-10.2-2.2-16.7-1.1c-6.5,1.1-2.9,5.8-2.9,5.8s7.4-2.5,12.2-2.4
        C89.9,67,93.7,67.2,96.6,71.4z"/>
    <path fill="#FFFFFF" d="M44.3,103.9c0,0,4.4,7.6,22.2,8.5c0,0,8-0.4,12.4-6.2C83.2,100.4,44.3,103.9,44.3,103.9z"/>
    <linearGradient id="SVGID_3_" gradientUnits="userSpaceOnUse" x1="15.4419" y1="66.3514" x2="99.5359" y2="66.3514">
        <stop  offset="0" style="stop-color:#BFBFBF"/>
        <stop  offset="1" style="stop-color:#E6E6E6"/>
    </linearGradient>
    <path fill="url(#SVGID_3_)" stroke="#58595B" d="M16,66.1c0,0-1.4,16.4,0.5,23.2c1.9,6.8,8.2,14,24.1,15.9
        c15.9,1.9,19.8,2.9,26.1,2.9c6.3,0,17.4,0,22.2-1.9c4.8-1.9,9.2-8.2,10.1-13c1-4.8,0-17.4,0.5-30.4c0.5-13-2.4-30.4-2.4-30.4
        l-20.3-7.7l-37.7,2.9L28,32.3L16.4,50.7L16,66.1z"/>
    <path fill="#4D3C27" stroke="#8B755A" stroke-width="0.3621" d="M16.4,87.8l2.9-16.4c0,0,2.9-3.4,8.2-8.7
        c5.3-5.3,1.5-14.5,7.2-17.9c5.8-3.4,18.3-2.9,29.9-3.4C76.3,41,86,41,87.4,39.1c1.4-1.9,8.7,8.7,8.7,8.7c0,0,2.9,17.9,4,28
        c0.2,1.5,0.7,2.4,1.4,0.1c1.7-6.4,5.2-18.9,6.2-21.4c1.4-3.4,0.5-15.4-5.8-21.2c0,0,2.9-13.5-6.3-18.3c-9.2-4.8-17.9-3.4-24.6-7.2
        c-6.8-3.9-23.7-4.8-27-1c0,0-1.9-1.9-1.4-3.9c0.5-1.9-5.3,5.3-8.2,5.8c-2.9,0.5-7.7-1-9.7-1.5c-1.9-0.5,1.9,5.3-1,6.8
        C20.8,15.4,8.2,35.2,5.3,41c-2.9,5.8-1,19.3,2.9,28.5C12.1,78.7,16.4,87.8,16.4,87.8z"/>
    <g>
        <path fill="#FFFFFF" d="M74.6,73.5c-0.7-0.2,3.5-3.6,6.7-3.5c3.3,0.2,5.1,1.5,9.8,4.4C91.2,74.5,78.8,74.6,74.6,73.5z"/>
        <linearGradient id="SVGID_4_" gradientUnits="userSpaceOnUse" x1="75.0784" y1="73.2932" x2="91.6362" y2="73.2932">
            <stop  offset="0" style="stop-color:#BFBFBF"/>
            <stop  offset="1" style="stop-color:#E6E6E6"/>
        </linearGradient>
        <path fill="url(#SVGID_4_)" stroke="#A7A8AB" stroke-width="0.7241" d="M75.2,74.6c-0.7-0.2,3.4-3.6,6.7-3.4
            c3.3,0.2,5.1,1.4,9.8,4.3C91.6,75.5,79.3,75.6,75.2,74.6z"/>
        
            <radialGradient id="SVGID_5_" cx="2098.2891" cy="-0.4985" r="7.245" gradientTransform="matrix(-1.1601 8.540000e-02 8.060000e-02 1.0953 2517.5859 -102.5868)" gradientUnits="userSpaceOnUse">
            <stop  offset="0" style="stop-color:#F6F8E6"/>
            <stop  offset="0.9755" style="stop-color:#E9F1CE"/>
        </radialGradient>
        <path fill="url(#SVGID_5_)" d="M91.7,75.4c0.3,4.4-3.2,8.2-7.8,8.6c-4.6,0.3-8.7-2.9-9-7.3c-0.3-4.4,3.2-8.2,7.8-8.6
            C87.4,67.8,91.4,71.1,91.7,75.4z"/>
        
            <linearGradient id="SVGID_6_" gradientUnits="userSpaceOnUse" x1="2098.1431" y1="-4.0235" x2="2098.6787" y2="-8.0026" gradientTransform="matrix(-1.1601 8.540000e-02 8.060000e-02 1.0953 2517.5859 -102.5868)">
            <stop  offset="0" style="stop-color:#FFFFFF;stop-opacity:0.21"/>
            <stop  offset="1" style="stop-color:#E8F4F2;stop-opacity:0.9386"/>
        </linearGradient>
        <path fill="url(#SVGID_6_)" d="M91.7,73.5c0,0-5.7-2.1-10.2-1.9c-4.4,0.2-6.1,2-6.1,2l2.7-3.7l3.7-2l3.1,0l3.9,1.3L91.7,73.5z"/>
        
            <radialGradient id="SVGID_7_" cx="2098.6589" cy="-2.3864" r="4.0825" gradientTransform="matrix(-1.1601 8.540000e-02 8.060000e-02 1.0953 2517.5859 -102.5868)" gradientUnits="userSpaceOnUse">
            <stop  offset="0" style="stop-color:#895323"/>
            <stop  offset="1" style="stop-color:#000000"/>
        </radialGradient>
        <path fill="url(#SVGID_7_)" stroke="#000000" stroke-width="0.1885" d="M79,75c0.2,2.2,2,3.8,4,3.6c2.1-0.2,3.6-2,3.5-4.2
            c-0.2-2.2-2-3.8-4-3.6C80.4,71,78.9,72.9,79,75z"/>
        <path d="M81.1,73.9c0.1,1,1,1.8,2,1.7c1-0.1,1.8-1,1.7-2c-0.1-1-1-1.8-2-1.7C81.8,71.9,81,72.8,81.1,73.9z"/>
        
            <radialGradient id="SVGID_8_" cx="2098.5452" cy="-2.1394" r="0.5975" fx="2099.1426" fy="-2.1435" gradientTransform="matrix(-1.1601 8.540000e-02 8.060000e-02 1.0953 2517.5859 -102.5868)" gradientUnits="userSpaceOnUse">
            <stop  offset="0" style="stop-color:#FFFFFF"/>
            <stop  offset="1" style="stop-color:#FFFFFF;stop-opacity:0.21"/>
        </radialGradient>
        <path fill="url(#SVGID_8_)" d="M82.2,74.3c0,0.3,0.4,0.6,0.7,0.6c0.4,0,0.7-0.3,0.6-0.7c0-0.4-0.4-0.6-0.7-0.6
            C82.5,73.7,82.2,74,82.2,74.3z"/>
        
            <radialGradient id="SVGID_9_" cx="1442.7931" cy="230.817" r="0.538" fx="1443.3311" fy="230.8133" gradientTransform="matrix(-2.3267 0.1712 0.2153 2.9274 3388.5513 -850.43)" gradientUnits="userSpaceOnUse">
            <stop  offset="0" style="stop-color:#FFFFFF"/>
            <stop  offset="1" style="stop-color:#FFFFFF;stop-opacity:0.21"/>
        </radialGradient>
        <path fill="url(#SVGID_9_)" d="M80.1,72.3c0.1,0.8,0.7,1.5,1.4,1.4c0.7-0.1,1.2-0.8,1.1-1.6c-0.1-0.8-0.7-1.5-1.4-1.4
            C80.6,70.8,80.1,71.5,80.1,72.3z"/>
        <path fill="#908B80" stroke="#231A18" stroke-width="0.3621" d="M91.7,75.4c-0.3-4.4-4.3-7.7-9-7.3c-3.8,0.3-6.8,2.9-7.6,6.2
            c0.4-0.8,3.9-3.4,6.8-3.2C85.1,71.3,86.9,72.6,91.7,75.4c-0.1,0-12.4,0.2-16.6-0.9c0,0-0.1,0-0.1-0.1c-0.2,0.7-0.2,1.4-0.2,2.2
            c0.3,4.4,4.3,7.7,9,7.3C88.5,83.7,92,79.8,91.7,75.4z"/>
        <path fill="#444035" d="M82.8,67.1c5.1-0.4,9.5,3.4,9.8,8.5c0.4,5-3.4,9.4-8.5,9.8c-5.1,0.4-9.5-3.4-9.8-8.5
            C73.9,71.9,77.7,67.5,82.8,67.1z M75.6,76.7c0.3,4.4,4.1,7.6,8.5,7.3c4.4-0.3,7.7-4.1,7.3-8.5c-0.3-4.4-4.1-7.6-8.5-7.3
            C78.5,68.6,75.2,72.4,75.6,76.7z"/>
    </g>
    <g>
        <path fill="#FFFFFF" d="M54.8,72.6c0,0-2.4-2.2-6-3.5c-3.6-1.3-9.1,3.5-11.4,3.6C35,73,45.4,73.4,54.8,72.6z"/>
        <linearGradient id="SVGID_10_" gradientUnits="userSpaceOnUse" x1="37.7098" y1="72.0416" x2="55.4282" y2="72.0416">
            <stop  offset="0" style="stop-color:#BFBFBF"/>
            <stop  offset="1" style="stop-color:#E6E6E6"/>
        </linearGradient>
        <path fill="url(#SVGID_10_)" stroke="#A7A8AB" stroke-width="0.7241" d="M55.4,73.7c0,0-2.4-2.2-6-3.4c-3.6-1.3-9.1,3.4-11.4,3.6
            C35.7,74,46,74.4,55.4,73.7z"/>
        
            <radialGradient id="SVGID_11_" cx="2088.8042" cy="20.7763" r="7.2016" gradientTransform="matrix(-1.1903 8.600000e-02 8.730000e-02 1.1637 2530.8198 -128.3248)" gradientUnits="userSpaceOnUse">
            <stop  offset="0" style="stop-color:#F6F8E6"/>
            <stop  offset="0.9755" style="stop-color:#E9F1CE"/>
        </radialGradient>
        <path fill="url(#SVGID_11_)" d="M54.9,74.9c0.3,4.6-3.2,8.7-7.9,9c-4.7,0.3-8.9-3.1-9.2-7.8c-0.3-4.6,3.2-8.7,7.9-9
            C50.4,66.8,54.6,70.2,54.9,74.9z"/>
        
            <radialGradient id="SVGID_12_" cx="1029.0304" cy="305.0328" r="0.6085" fx="1029.6389" fy="305.0286" gradientTransform="matrix(-6.4213 0.4642 0.4607 6.1536 6516.2495 -2279.6597)" gradientUnits="userSpaceOnUse">
            <stop  offset="0" style="stop-color:#FFFFFF"/>
            <stop  offset="1" style="stop-color:#FFFFFF;stop-opacity:0.21"/>
        </radialGradient>
        <path fill="url(#SVGID_12_)" d="M45.4,75.2c0.1,2,2,3.5,4.2,3.3c2.2-0.2,3.8-1.9,3.6-3.9c-0.1-2-2-3.5-4.2-3.3
            C46.9,71.5,45.2,73.2,45.4,75.2z"/>
        
            <radialGradient id="SVGID_13_" cx="1906.5948" cy="39.0858" r="4.5441" gradientTransform="matrix(-1.3248 9.570000e-02 9.230000e-02 1.2312 2568.5234 -157.7897)" gradientUnits="userSpaceOnUse">
            <stop  offset="0" style="stop-color:#895323"/>
            <stop  offset="1" style="stop-color:#000000"/>
        </radialGradient>
        <path fill="url(#SVGID_13_)" stroke="#000000" stroke-width="0.1885" d="M43.4,73.5c0.1,1.9,1.8,3.4,3.6,3.3
            c1.8-0.1,3.2-1.8,3.1-3.7c-0.1-1.9-1.8-3.4-3.6-3.3C44.6,69.9,43.2,71.6,43.4,73.5z"/>
        <path d="M45,72.5c0.1,1,1,1.8,2,1.7c1-0.1,1.8-1,1.7-2c-0.1-1-1-1.8-2-1.7C45.7,70.6,44.9,71.5,45,72.5z"/>
        
            <radialGradient id="SVGID_14_" cx="1905.4642" cy="38.0045" r="0.6811" fx="1906.1453" fy="37.9998" gradientTransform="matrix(-1.3248 9.570000e-02 9.230000e-02 1.2312 2568.5234 -157.7897)" gradientUnits="userSpaceOnUse">
            <stop  offset="0" style="stop-color:#FFFFFF"/>
            <stop  offset="1" style="stop-color:#FFFFFF;stop-opacity:0.21"/>
        </radialGradient>
        <path fill="url(#SVGID_14_)" d="M46.8,71.4c0,0.4,0.5,0.8,1,0.7c0.5,0,0.9-0.4,0.8-0.9c0-0.4-0.5-0.8-1-0.7
            C47.2,70.6,46.8,70.9,46.8,71.4z"/>
        <g>
            <path fill="#908B80" stroke="#231A18" stroke-width="0.3621" d="M38,73.8c2.4-0.2,7.8-4.9,11.4-3.6c2.3,0.8,4,1.9,5,2.7
                c-1.2-3.6-4.8-6.1-8.8-5.8c-3.9,0.3-7.1,3.1-7.8,6.7C38,73.8,38,73.8,38,73.8z"/>
            <path fill="#908B80" stroke="#231A18" stroke-width="0.3621" d="M54.7,73.7c-7.6,0.5-15.6,0.4-16.8,0.2c-0.1,0.7-0.2,1.4-0.1,2.2
                c0.3,4.6,4.5,8.1,9.2,7.8c4.7-0.3,8.3-4.4,7.9-9C54.9,74.5,54.8,74.1,54.7,73.7z"/>
        </g>
        <path fill="#444035" d="M46.1,66.4c5.1-0.4,9.6,3.4,9.9,8.4c0.4,5-3.5,9.4-8.6,9.7c-5.1,0.4-9.6-3.4-9.9-8.4
            C37.2,71.1,41,66.8,46.1,66.4z M38.8,76c0.3,4.3,4.1,7.5,8.5,7.2c4.4-0.3,7.7-4.1,7.4-8.3c-0.3-4.3-4.1-7.5-8.5-7.2
            C41.8,68,38.5,71.7,38.8,76z"/>
    </g>
    <path fill="#4D3C27" stroke="#8B755A" stroke-width="0.3621" d="M32.3,71.3c17-9.8,26.8-2.2,26.8-2.2l2.5-4.3
        c0,0-14.5-2.9-20.3-1.8C35.5,64.1,32.3,71.3,32.3,71.3z"/>
    <path fill="#4D3C27" stroke="#8B755A" stroke-width="0.3621" d="M97.1,72.4c0.9,1.2-1.8-5.8-4-6.9c-2.2-1.1-10.1-2.2-16.7-1.1
        c-6.5,1.1-2.9,5.8-2.9,5.8s7.4-2.5,12.1-2.4C90.4,68,94.2,68.2,97.1,72.4z"/>
    
        <ellipse transform="matrix(0.9929 0.1188 -0.1188 0.9929 5.236 -11.0595)" fill="none" stroke="#000000" stroke-width="0.9834" cx="95.4" cy="38.4" rx="0.6" ry="0.7"/>
    
        <ellipse transform="matrix(0.9927 0.1208 -0.1208 0.9927 2.804 -2.927)" fill="none" stroke="#000000" stroke-width="0.9834" cx="25.5" cy="21.7" rx="0.6" ry="0.7"/>
    <path fill="none" stroke="#000000" stroke-width="0.9834" d="M97.9,88.6c0,0.4-0.4,0.7-0.7,0.6c-0.3,0-0.6-0.4-0.5-0.8
        c0-0.4,0.4-0.7,0.7-0.6C97.8,87.9,98,88.2,97.9,88.6z"/>
    <polygon fill="#444035" points="56.1,93.5 61.2,72.6 69.6,89 63.5,98.8   "/>
    <path fill="#929292" stroke="#524E44" stroke-width="1.3218" d="M70.2,73.1l-8.4,0c0,0,2.7,16.2,2.2,18.2c-0.4,2.1-2.1,5.6-3.9,5
        c-1.7-0.6,5.2,4.8,8.3,4.2c0.2,0,0.4-0.1,0.6-0.2c2.7-1.7,5.8-2.7,3.7-10.6C70.6,81.8,70.2,73.1,70.2,73.1z"/>
    <path fill="#6F5E4D" stroke="#AD9B86" stroke-width="0.3621" d="M15.1,82.9c0,0,4.8,8.6,10.1,12.3c5.2,3.7,9.7,10.8,9.7,10.8
        l4.8,8.6l1.7,8.1c0,0,2.3,3.7,3.8,3c1.5-0.7,5.8-0.3,5.8-0.3l5.6,5.6l6.7,0.4h10.4l4.8-0.7l4.1-6.7l3.3-4.1l7.1-4.5
        c0,0,3.4-4.8,3.4-6c0-1.1,1.1-6.3,1.1-6.3l2.2-10.4c0,0,2.2,21.2-11.2,33.1C75.1,137.7,69.1,144,52,138.1
        c-17.1-6-26.1-13.8-30.9-19.7C16.2,112.4,15.1,82.9,15.1,82.9z"/>
    <path fill="#444035" d="M8.6,95.7c0,0,2.7,5.8,5.4,5.6c2.7-0.2,4.4-0.1,5.2-1.2c0.7-1,2.6-8.9,0.6-22.2
        c-1.9-12.4-6.5-11.4-9.7-11.2c-3.2,0.2-4.1,2-4.3,4.3C4.2,91.4,9.4,82.5,9.4,82.5L8.6,95.7z"/>
    <path fill="#929292" d="M14.2,83.8c-0.8-6.9-2.7-16.2-7.2-16.1C4.6,67.8,4.4,79,5.5,84.6c1.1,5.6,3.5,13.9,5.1,14
        C14.1,98.9,15,90.4,14.2,83.8z"/>
    <path fill="#444035" d="M4.9,87.4c0,0,0.8,1,3.5,0.9c0.8,0,1.3,0,1.6-0.4c0.2-0.3,1.2-1.8,0.4-6.6c-0.6-3.8-2.2-3.6-3.2-3.6
        c-2.5,0.2-3.5,0.3-3.5,1c-0.5,6.2,0.4,4,0.4,4L4.9,87.4z"/>
    <path fill="#929292" d="M6.4,82.9c-0.3-2.1-1-4.8-2.3-4.7c-0.8,0-0.8,3.4-0.5,5.2c0.3,1.7,1.1,4.2,1.5,4.3
        C6.2,87.7,6.6,84.9,6.4,82.9z"/>
    
        <ellipse transform="matrix(0.9927 0.1205 -0.1205 0.9927 16.3088 -4.742)" fill="none" stroke="#000000" stroke-width="0.9834" cx="47.4" cy="132.5" rx="0.6" ry="0.7"/>
    
        <ellipse transform="matrix(0.9927 0.1205 -0.1205 0.9927 11.9093 -1.9846)" fill="none" stroke="#000000" stroke-width="0.9834" cx="22.4" cy="97.5" rx="0.6" ry="0.7"/>
    <path fill="none" stroke="#868687" d="M104.9,77.3l-2.2-9.1l4.9-6.9l-1.1-5.2l-2.2-4.1l-2.2-7.7c0,0,4.9-3.8,4.9-4.7
        c0-0.8-10.7-9.1-10.7-9.1l-3.8-7.4l-5.8-12.6l-5.8,1.1L74.5,4l-6.6,2.7c0,0-7.1,3.8-8.5,3.3C58,9.5,49,0.7,49,0.7l-8.2,9.9
        c0,0-0.5,3.8-1.4,3.8S27,10.3,27,10.3l-0.5,5l-0.1,4.3l-11-0.3c0,0-9.6,1.9-9.1,2.7c0.5,0.8,4.1,8,4.1,8L5,34.2l0.5,6.9L2,44.9
        l2.2,8.5l-3.3,7.4l2.5,11.8l2.2,8.2"/>
    <path fill="none" stroke="#868687" d="M103.3,77.3l2.2-9.1l1.5-19.1l-6.4-18.9l-10.3-6.6l1.6-8.6l-7.8-1l-5.8-7.6l-6.8,0.8l-6,3.3
        l-4.9-3.9l-7.3,4.9c0,0-5.3-7.3-6-6.2c-0.8,1.2-5.1,7.4-5.1,7.4L38.2,10l-5.6,5.1c0,0-8-1.3-9.1-0.2c-1.1,1.1-4.3,7-4.3,7l-7.6,1.6
        L7,38.8L1.6,50.5l2.1,18L7,80.3"/>
    
        <radialGradient id="SVGID_15_" cx="6250.6572" cy="42.6418" r="5.4243" gradientTransform="matrix(-1 0 0 1.2636 6257.0269 28.7789)" gradientUnits="userSpaceOnUse">
        <stop  offset="0" style="stop-color:#EEDE4C"/>
        <stop  offset="1" style="stop-color:#CCAC58"/>
    </radialGradient>
    <ellipse fill="url(#SVGID_15_)" stroke="#B28729" stroke-width="1.1241" cx="6.4" cy="82.7" rx="5.8" ry="6.3"/>
    <g>
        <defs>
            <rect id="SVGID_16_" x="99.7" y="74.7" width="9.2" height="13"/>
        </defs>
        <clipPath id="SVGID_17_">
            <use xlink:href="#SVGID_16_"  overflow="visible"/>
        </clipPath>
        
            <radialGradient id="SVGID_18_" cx="6155.0874" cy="81.1312" r="4.9959" gradientTransform="matrix(-1 0 0 1 6257.0269 0)" gradientUnits="userSpaceOnUse">
            <stop  offset="0" style="stop-color:#EEDE4C"/>
            <stop  offset="1" style="stop-color:#CCAC58"/>
        </radialGradient>
        <ellipse clip-path="url(#SVGID_17_)" fill="url(#SVGID_18_)" stroke="#B28729" cx="101.9" cy="81.1" rx="4.3" ry="5.6"/>
    </g>
    
        <linearGradient id="SVGID_19_" gradientUnits="userSpaceOnUse" x1="8389.1602" y1="1071.4926" x2="8395.917" y2="1071.4926" gradientTransform="matrix(-0.6495 0.2458 -0.1057 -0.8599 5667.5254 -1043.0824)">
        <stop  offset="0" style="stop-color:#BFBFBF"/>
        <stop  offset="0.3085" style="stop-color:#C5C5C5"/>
        <stop  offset="0.6888" style="stop-color:#D4D4D4"/>
        <stop  offset="1" style="stop-color:#E6E6E6"/>
    </linearGradient>
    <path fill="url(#SVGID_19_)" stroke="#A7A8AB" stroke-width="0.4528" d="M101.4,83.7c0,0,0.3-0.7,1.2-0.8c0.7-0.1,1.1,0.5,1.1,0.5
        l1.6,30l-2.4,0.7L101.4,83.7z"/>
    
        <linearGradient id="SVGID_20_" gradientUnits="userSpaceOnUse" x1="6769.5151" y1="-644.2614" x2="6780.9375" y2="-644.2614" gradientTransform="matrix(-0.9957 -9.280000e-02 9.280000e-02 -0.9957 6910.3096 104.0166)">
        <stop  offset="0" style="stop-color:#9C9C9C"/>
        <stop  offset="1" style="stop-color:#E6E6E6"/>
    </linearGradient>
    <path fill="url(#SVGID_20_)" stroke="#898B8D" stroke-width="0.7375" d="M98.7,116.2c0.3-2.7,3-4.7,6.1-4.4
        c3.1,0.3,5.5,2.7,5.2,5.4c-0.3,2.7-3,4.7-6.1,4.4C100.8,121.4,98.5,118.9,98.7,116.2z"/>
</g>
</svg>