<svg version="1.1"
     xmlns="http://www.w3.org/2000/svg" xmlns:xlink="http://www.w3.org/1999/xlink" xmlns:a="http://ns.adobe.com/AdobeSVGViewerExtensions/3.0/"
     x="0px" y="0px" width="108.2px" height="154.6px" viewBox="0 0 108.2 154.6" enable-background="new 0 0 108.2 154.6"
     xml:space="preserve">
<defs>
</defs>
<g id="timball_1_">
    <path fill="#332F26" d="M31.4,143.3c0,0,0-5.2,2.3-5.9c2.3-0.8,6.7-1.3,6.7-1.3l28-1.7c0,0,10.8,0.1,12.9,1.3
        c3.1,1.7,1.5,3.7,0.3,6c-1.2,2.2-14.5,7.2-14.5,7.2l-24.3,0.8L31.4,143.3z"/>
    <path fill="#918C80" d="M36,129.4c0,0-0.4,9.8,0.6,10.5c1.1,0.7,10.9,4,22.5,3.1c10.8-0.8,17.6-4.4,18.8-5.5
        c1.2-1.1-0.1-6.2-0.3-8.8c-0.2-2.5-16.4,2.4-16.4,2.4L36,129.4z"/>
    <path fill="#444035" d="M33.2,113.5c0,0-0.9,12.4-0.7,14.7c0.2,2.3,2.8,4.4,4.9,5.5c4.2,2.2,13.8,3.7,23.9,2.6
        c6.8-0.7,15.6-4.4,17.1-5.5c1.4-1.1,2.9-3.3,2.7-7.3c-0.2-4-0.8-13.9-1.6-16.1c-0.8-2.3-11.4,3.1-11.4,3.1L33.2,113.5z"/>
    <path fill="#444035" d="M32.3,138.6c-0.8,1.3-1.4,3.5-1.5,5.2c0,1.7,0.4,4.6,1.2,5.4c2.4,2.5,14.3,6.6,29.8,5.1
        c15.5-1.5,21.3-7.9,21.6-8.7c0.6-1.8-0.6-10.4-0.9-8.2c-0.1,1.2-11.3,8.1-22.9,8C34.1,144.9,32.3,138.6,32.3,138.6z"/>
    <path fill="#4F727F" stroke="#374F56" d="M100.3,54.5c0,0,8.4,7,7.3,15.1c-1,8.1-5.8,12.4-7,13.4c-1.2,1.1,0-18.9,0-18.9
        L100.3,54.5z"/>
    <path fill="#4F727F" stroke="#374F56" d="M7.6,54.3c0,0-8.1,7.7-7,18.5c1.1,10.8,10.5,14.7,10.5,14.7L11.7,72L7.6,54.3z"/>
    
        <linearGradient id="SVGID_1_" gradientUnits="userSpaceOnUse" x1="44.7488" y1="172.9679" x2="44.7488" y2="200.3116" gradientTransform="matrix(0.9983 5.770000e-02 -5.770000e-02 0.9983 17.825 -73.7698)">
        <stop  offset="0" style="stop-color:#C8C3B5"/>
        <stop  offset="1" style="stop-color:#E8E6D6"/>
    </linearGradient>
    <path fill="url(#SVGID_1_)" stroke="#868687" d="M14.6,90.3c0,0,5.9,31.2,39.7,29.5c33.7-1.7,37.3-30.4,37.9-36.1
        c0.6-5.6-28.1,6-28.1,6L14.6,90.3z"/>
    <path fill="#FFFFFF" stroke="#808285" d="M27.2,94.8c0,0,14.9,6.7,28.2,6.2c11.3-0.5,19.5-5.1,21-5.6c1.4-0.5-23.1-1.6-23.1-1.6
        L27.2,94.8z"/>
    
        <linearGradient id="SVGID_2_" gradientUnits="userSpaceOnUse" x1="44.5863" y1="169.299" x2="44.859" y2="82.6951" gradientTransform="matrix(0.9983 5.770000e-02 -5.770000e-02 0.9983 17.825 -73.7698)">
        <stop  offset="0" style="stop-color:#C8C3B5"/>
        <stop  offset="1" style="stop-color:#E8E6D6"/>
    </linearGradient>
    <path fill="url(#SVGID_2_)" stroke="#58595B" d="M7.5,42.8c0,0-3.4,12.9-3.6,23.9C3.7,83.1,7.8,88.2,8.9,89.4
        c1.1,1.2,14.3,10,48.5,8.9c34.3-1.1,43.7-14.5,44.6-15c0.9-0.5,6.4-16.1-0.5-38.4c-4.7-15.2-23.7-31.4-23.7-31.4l-26.8-1L23.1,25.5
        L7.5,42.8z"/>
    
        <radialGradient id="SVGID_3_" cx="44.5817" cy="99.4505" r="40.3731" gradientTransform="matrix(0.9983 5.770000e-02 -5.770000e-02 0.9983 17.825 -73.7698)" gradientUnits="userSpaceOnUse">
        <stop  offset="0" style="stop-color:#4D4D4F"/>
        <stop  offset="1" style="stop-color:#231F20"/>
    </radialGradient>
    <path fill="url(#SVGID_3_)" stroke="#231F20" stroke-width="2" d="M69.4,16.9c0,0-4,10.5-3.8,11.4c0.2,0.9-4.3-3.4-5.5-3.1
        C59,25.3,57,26.6,57,26.6l-3.2-2.4l-3.3,2.9c0,0-2.6-3.3-3.5-2.2C46,26,45.8,28.5,43.8,29c-2,0.4-12.9-1-19.7,3.1
        C17.4,36.2,6.7,50,5.5,52.2C4.2,54.4,4.5,32,20.7,16.3C36.9,0.6,59.7-0.9,66.9,2.6c7.1,3.5,7.9,5.3,8.7,5.3c0.8,0,6.3-1.3,9,0.8
        c2.7,2.1,19.1,16.7,20.1,29.1c1,12.5,1.3,16.2-0.2,18.9c-1.6,2.7-3.5-8.1-5.1-10.2C97.8,44.5,88.7,31,84.7,26.2
        C80.7,21.5,71.8,15.3,69.4,16.9z"/>
    <path fill="#939598" stroke="#58595B" stroke-width="0.75" d="M58.1,78.7c0-0.2,0-0.3,0-0.5l1.1-0.3l-0.3-1.2l-1.1,0.1
        c-0.2-0.4-0.4-0.8-0.6-1.1l0.7-0.8L57,74l-0.8,0.7c-0.3-0.2-0.6-0.4-1-0.5l0.1-1.2L54,72.9l-0.2,1c-0.4,0-0.8,0-1.2,0.1L52.1,73
        l-1.2,0.5l0.3,1.1l0,0c-0.3,0.2-0.6,0.5-0.9,0.7l0,0l-1.1-0.6l-0.6,1.1l0.9,0.7c-0.2,0.4-0.3,0.8-0.4,1.2l-1.2,0.1l0,1.3l1.1,0.1
        l0,0c0,0.4,0.1,0.7,0.3,1l-1,0.6l0.7,1.1l1-0.5l0,0c0.2,0.3,0.5,0.6,0.8,0.8l-0.5,1.1l1.2,0.5l0.6-0.9l0,0c0.3,0.1,0.6,0.2,1,0.2
        l0.1,1.2l1.3-0.1l0-1.1l0,0c0.3-0.1,0.7-0.2,1-0.3l0,0l0.8,0.9l1-0.8l-0.6-0.9c0.3-0.3,0.5-0.6,0.7-0.9l0,0l1.2,0.3l0.3-1.2l-1-0.4
        C58.1,79.2,58.1,79,58.1,78.7z"/>
    <circle fill="#FFFFFF" stroke="#58595B" cx="53.6" cy="78.5" r="2.9"/>
    
        <radialGradient id="SVGID_4_" cx="62.505" cy="117.1008" r="8.4694" gradientTransform="matrix(0.9983 5.770000e-02 -5.770000e-02 0.9983 17.825 -73.7698)" gradientUnits="userSpaceOnUse">
        <stop  offset="0" style="stop-color:#4D4D4F"/>
        <stop  offset="1" style="stop-color:#231F20"/>
    </radialGradient>
    <path fill="url(#SVGID_4_)" stroke="#231F20" stroke-width="0.75" d="M62.1,43.9c-0.2,0.8,0.8,3.6,1.9,3.4c1-0.2,9-1,10.8-0.7
        c1.8,0.4,10,3.9,10,3.9s-2.5-4.8-4.5-5.9c-2-1.1-4.8-1-7.4-0.9C70.3,43.8,62.4,42.9,62.1,43.9z"/>
    
        <radialGradient id="SVGID_5_" cx="18.8118" cy="119.5808" r="8.0975" gradientTransform="matrix(0.9983 5.770000e-02 -5.770000e-02 0.9983 17.825 -73.7698)" gradientUnits="userSpaceOnUse">
        <stop  offset="0" style="stop-color:#4D4D4F"/>
        <stop  offset="1" style="stop-color:#231F20"/>
    </radialGradient>
    <path fill="url(#SVGID_5_)" stroke="#231F20" stroke-width="0.75" d="M39.1,46.7l1.7-2.2c0,0-7.9-1.5-10.7-1.1
        c-2.8,0.3-7.5,0.9-8.1,1.8c-0.6,1-3.3,4.4-3.3,4.4s7.7-3.7,9.4-3.6C29.9,46.1,39.4,45.9,39.1,46.7z"/>
    
        <radialGradient id="SVGID_6_" cx="96.2819" cy="212.4093" r="8.4306" gradientTransform="matrix(1.1854 0.1385 -0.1386 1.1587 -12.8566 -199.5215)" gradientUnits="userSpaceOnUse">
        <stop  offset="0" style="stop-color:#F7FFE7"/>
        <stop  offset="0.9755" style="stop-color:#EAF2CE"/>
    </radialGradient>
    <path fill="url(#SVGID_6_)" d="M61.8,58.8c-0.6,5.4,3.3,10.3,8.8,10.9c5.5,0.6,10.5-3.2,11.2-8.6c0.6-5.4-3.3-10.3-8.8-10.9
        C67.5,49.5,62.5,53.4,61.8,58.8z"/>
    
        <radialGradient id="SVGID_7_" cx="826.3384" cy="332.516" r="0.7128" fx="827.0511" fy="332.511" gradientTransform="matrix(6.3945 0.7473 -0.732 6.1273 -4971.8735 -2599.1802)" gradientUnits="userSpaceOnUse">
        <stop  offset="0" style="stop-color:#FFFFFF"/>
        <stop  offset="1" style="stop-color:#FFFFFF;stop-opacity:0.21"/>
    </radialGradient>
    <path fill="url(#SVGID_7_)" d="M73.1,56.1c-0.3,2.3-2.5,4-5,3.7c-2.5-0.3-4.3-2.4-4-4.7c0.3-2.3,2.5-4,5-3.7
        C71.5,51.7,73.3,53.8,73.1,56.1z"/>
    
        <radialGradient id="SVGID_8_" cx="136.1861" cy="219.5849" r="5.6312" gradientTransform="matrix(1.3193 0.1541 -0.1465 1.2259 -76.4337 -233.4836)" gradientUnits="userSpaceOnUse">
        <stop  offset="0" style="stop-color:#8A5222"/>
        <stop  offset="1" style="stop-color:#000000"/>
    </radialGradient>
    <path fill="url(#SVGID_8_)" stroke="#000000" stroke-width="0.2" d="M74.6,57.8c-0.3,2.4-2.4,4.1-4.6,3.8c-2.3-0.3-3.9-2.4-3.6-4.8
        c0.3-2.4,2.4-4.1,4.6-3.8C73.3,53.2,74.9,55.4,74.6,57.8z"/>
    <path d="M72.1,57.7c-0.1,1-1,1.8-2,1.6c-1-0.1-1.7-1-1.6-2.1c0.1-1,1-1.8,2-1.6C71.5,55.7,72.2,56.7,72.1,57.7z"/>
    <path fill="#918C80" stroke="#231A18" stroke-width="0.5" d="M61.7,59.2c0,0,0.1-1,1.2-0.7c1.6,0.5,6.5,1.8,8.4,1.7
        c1.6,0,4.1-0.4,6.4-1.3c2.1-0.8,2.5-1.5,2.5-1.5l1.5,1.9l-1.3,5.3l-3.9,3.9l-5.5,1.4l-5.3-1.6l-4-4L61.7,59.2z"/>
    <path fill="#918C80" stroke="#231A18" stroke-width="0.5" d="M81.2,58.6c0,0-10-3.1-13.2-3c-3,0.1-6.1,2.2-6.1,2.2l1.6-4.7l3.7-2.5
        l5.4-0.6l3.9,1.2l2.7,2L81.2,58.6z"/>
    <path fill="#444035" d="M82.1,61.1C81.4,67,76,71.1,70,70.4c-6-0.7-10.2-6-9.5-11.8c0.7-5.8,6.1-10,12.1-9.3
        C78.5,50,82.8,55.3,82.1,61.1z M72.4,50.8c-5.1-0.6-9.8,3-10.4,8c-0.6,5,3.1,9.5,8.2,10.1c5.1,0.6,9.8-3,10.4-8
        C81.2,56,77.6,51.4,72.4,50.8z"/>
    
        <radialGradient id="SVGID_9_" cx="136.1733" cy="220.1995" r="0.7132" fx="136.8864" fy="220.1946" gradientTransform="matrix(1.3193 0.1541 -0.1465 1.2259 -76.4337 -233.4836)" gradientUnits="userSpaceOnUse">
        <stop  offset="0" style="stop-color:#FFFFFF"/>
        <stop  offset="1" style="stop-color:#FFFFFF;stop-opacity:0.21"/>
    </radialGradient>
    <path fill="url(#SVGID_9_)" d="M71.9,57.5c-0.1,0.5-0.5,0.8-1,0.7c-0.5-0.1-0.9-0.5-0.8-0.9c0.1-0.5,0.5-0.8,1-0.7
        C71.5,56.6,71.9,57.1,71.9,57.5z"/>
    
        <radialGradient id="SVGID_10_" cx="46.255" cy="206.2491" r="8.0649" gradientTransform="matrix(1.1551 0.1365 -0.1289 1.0907 4.1636 -173.7469)" gradientUnits="userSpaceOnUse">
        <stop  offset="0" style="stop-color:#F7FFE7"/>
        <stop  offset="0.9755" style="stop-color:#EAF2CE"/>
    </radialGradient>
    <path fill="url(#SVGID_10_)" d="M21.7,56.4c-0.6,4.9,3.1,9.3,8.3,9.9c5.1,0.6,9.8-2.8,10.4-7.7c0.6-4.9-3.1-9.3-8.3-9.9
        C26.9,48.1,22.3,51.6,21.7,56.4z"/>
    
        <linearGradient id="SVGID_11_" gradientUnits="userSpaceOnUse" x1="46.094" y1="202.3233" x2="46.6903" y2="197.8933" gradientTransform="matrix(1.1551 0.1365 -0.1289 1.0907 4.1636 -173.7469)">
        <stop  offset="0" style="stop-color:#FFFFFF;stop-opacity:0.21"/>
        <stop  offset="1" style="stop-color:#E7FFF8;stop-opacity:0.9386"/>
    </linearGradient>
    <path fill="url(#SVGID_11_)" d="M21.9,54.3c0,0,6.5-2.1,11.4-1.6c4.9,0.5,6.7,2.5,6.7,2.5l-2.8-4.3l-4-2.4l-3.4-0.1l-4.4,1.3
        L21.9,54.3z"/>
    
        <radialGradient id="SVGID_12_" cx="47.4109" cy="205.525" r="4.4497" gradientTransform="matrix(1.1551 0.1365 -0.1289 1.0907 4.1636 -173.7469)" gradientUnits="userSpaceOnUse">
        <stop  offset="0" style="stop-color:#8A5222"/>
        <stop  offset="1" style="stop-color:#000000"/>
    </radialGradient>
    <path fill="url(#SVGID_12_)" stroke="#000000" stroke-width="0.2" d="M36.4,58.1c-0.3,2.3-2.3,4-4.6,3.7c-2.3-0.3-3.9-2.4-3.6-4.7
        c0.3-2.3,2.3-4,4.6-3.8C35.1,53.7,36.7,55.8,36.4,58.1z"/>
    <path d="M34.1,57.9c-0.1,1-1,1.7-2,1.6c-1-0.1-1.7-1-1.6-2c0.1-1,1-1.7,2-1.6C33.5,56.1,34.2,56.9,34.1,57.9z"/>
    <path fill="#918C80" stroke="#231A18" stroke-width="0.5" d="M24.1,57c0,0,4.3,2,8.4,2.4c0.6,0.1,3-0.4,5.8-1.2c2-0.6,2,1,3.5,0.4
        l-0.8,4.3L37.5,67l-6.9,1.6l-2.9-0.8l-4.1-2.8l-1.9-6.2L24.1,57z"/>
    
        <radialGradient id="SVGID_13_" cx="47.8914" cy="204.889" r="0.6236" fx="48.5149" fy="204.8847" gradientTransform="matrix(1.1551 0.1365 -0.1289 1.0907 4.1636 -173.7469)" gradientUnits="userSpaceOnUse">
        <stop  offset="0" style="stop-color:#FFFFFF"/>
        <stop  offset="1" style="stop-color:#FFFFFF;stop-opacity:0.21"/>
    </radialGradient>
    <path fill="url(#SVGID_13_)" d="M33.8,56.3c0,0.4-0.4,0.6-0.8,0.6c-0.4,0-0.7-0.4-0.6-0.7c0-0.4,0.4-0.6,0.8-0.6
        C33.5,55.6,33.8,56,33.8,56.3z"/>
    
        <radialGradient id="SVGID_14_" cx="522.4153" cy="301.9734" r="0.6242" fx="523.0395" fy="301.969" gradientTransform="matrix(2.3169 0.2738 -0.3444 2.915 -1071.9496 -969.0335)" gradientUnits="userSpaceOnUse">
        <stop  offset="0" style="stop-color:#FFFFFF"/>
        <stop  offset="1" style="stop-color:#FFFFFF;stop-opacity:0.21"/>
    </radialGradient>
    <path fill="url(#SVGID_14_)" d="M35.8,54.4c-0.1,1-0.9,1.7-1.6,1.6c-0.8-0.1-1.4-1-1.2-1.9c0.1-1,0.8-1.7,1.6-1.6
        C35.4,52.5,35.9,53.4,35.8,54.4z"/>
    <path fill="#918C80" stroke="#231A18" stroke-width="0.5" d="M41.4,57.9c0,0-6.4-2.8-9.5-2.7c-2.9,0.1-10.3,3.3-10.3,3.3l1.5-5.3
        l4.9-3.9l5.2-0.6l3.5,1.6l2.7,2.1L41.4,57.9z"/>
    <path fill="#444035" d="M42.3,60.1c-0.7,5.8-6,10-11.9,9.3c-5.9-0.7-10-6-9.4-11.8c0.7-5.8,6-10,11.8-9.3
        C38.8,48.9,43,54.2,42.3,60.1z M32.8,49.5c-5.1-0.6-9.6,3-10.2,8c-0.6,5,3,9.6,8.1,10.2c5.1,0.6,9.6-3,10.2-8
        C41.4,54.7,37.8,50.1,32.8,49.5z"/>
    <path fill="#58595B" stroke="#333132" d="M44.3,104.5c0,0-1.1,9,0.8,15c1.9,6,11,8.3,17.3,7.8c0,0-0.6-3.7-0.5-10.5
        c0.1-6.8,2.2-12.3,1-12.3c-1.1-0.1-5.3,2-9.2,1.8C49.8,106,44.4,103.3,44.3,104.5z"/>
    
        <ellipse transform="matrix(0.9931 0.1172 -0.1172 0.9931 12.9481 -4.7085)" fill="none" stroke="#000000" cx="46.5" cy="107.7" rx="0.7" ry="0.8"/>
    
        <ellipse transform="matrix(0.9931 0.1172 -0.1172 0.9931 13.0826 -6.3182)" fill="none" stroke="#000000" cx="60.3" cy="108.1" rx="0.7" ry="0.8"/>
    
        <ellipse transform="matrix(0.9964 8.502097e-02 -8.502097e-02 0.9964 11.3844 -5.6143)" fill="none" stroke="#000000" cx="71.6" cy="130.9" rx="0.7" ry="0.8"/>
    
        <ellipse transform="matrix(0.9964 8.529144e-02 -8.529144e-02 0.9964 11.3483 -2.9831)" fill="none" stroke="#000000" cx="40.6" cy="131.3" rx="0.7" ry="0.8"/>
    
        <ellipse transform="matrix(0.9964 8.496042e-02 -8.496042e-02 0.9964 12.7553 -5.1547)" fill="none" stroke="#000000" cx="66.9" cy="147.3" rx="0.7" ry="0.8"/>
</g>
</svg>